<ttFont>
    <TTGlyph name=".notdef" xMin="105" yMin="0" xMax="1221" yMax="1943">
      <contour>
        <pt x="105" y="1943" on="1"/>
        <pt x="1221" y="1943" on="1"/>
        <pt x="1221" y="0" on="1"/>
        <pt x="105" y="0" on="1"/>
      </contour>
      <contour>
        <pt x="520" y="399" on="1"/>
        <pt x="607" y="602" on="1"/>
        <pt x="663" y="760" on="1"/>
        <pt x="718" y="602" on="1"/>
        <pt x="805" y="399" on="1"/>
        <pt x="1029" y="399" on="1"/>
        <pt x="764" y="944" on="1"/>
        <pt x="1029" y="1481" on="1"/>
        <pt x="793" y="1481" on="1"/>
        <pt x="708" y="1276" on="1"/>
        <pt x="661" y="1138" on="1"/>
        <pt x="616" y="1276" on="1"/>
        <pt x="532" y="1481" on="1"/>
        <pt x="296" y="1481" on="1"/>
        <pt x="560" y="945" on="1"/>
        <pt x="296" y="399" on="1"/>
      </contour>
    </TTGlyph>
    <TTGlyph name="A" xMin="19" yMin="0" xMax="948" yMax="1708">
      <contour>
        <pt x="334" y="1708" on="1"/>
        <pt x="632" y="1708" on="1"/>
        <pt x="948" y="0" on="1"/>
        <pt x="686" y="0" on="1"/>
        <pt x="639" y="306" on="1"/>
        <pt x="327" y="306" on="1"/>
        <pt x="282" y="0" on="1"/>
        <pt x="19" y="0" on="1"/>
      </contour>
      <contour>
        <pt x="609" y="501" on="1"/>
        <pt x="489" y="1352" on="1"/>
        <pt x="478" y="1352" on="1"/>
        <pt x="357" y="501" on="1"/>
      </contour>
    </TTGlyph>
    <TTGlyph name="AE" xMin="11" yMin="0" xMax="1240" yMax="1708">
      <contour>
        <pt x="443" y="1708" on="1"/>
        <pt x="1240" y="1708" on="1"/>
        <pt x="1240" y="1503" on="1"/>
        <pt x="846" y="1503" on="1"/>
        <pt x="846" y="995" on="1"/>
        <pt x="1153" y="995" on="1"/>
        <pt x="1153" y="771" on="1"/>
        <pt x="846" y="771" on="1"/>
        <pt x="846" y="205" on="1"/>
        <pt x="1240" y="205" on="1"/>
        <pt x="1240" y="0" on="1"/>
        <pt x="590" y="0" on="1"/>
        <pt x="590" y="306" on="1"/>
        <pt x="335" y="306" on="1"/>
        <pt x="272" y="0" on="1"/>
        <pt x="11" y="0" on="1"/>
      </contour>
      <contour>
        <pt x="590" y="492" on="1"/>
        <pt x="590" y="1356" on="1"/>
        <pt x="553" y="1356" on="1"/>
        <pt x="374" y="492" on="1"/>
      </contour>
    </TTGlyph>
    <TTGlyph name="Aacute" xMin="19" yMin="0" xMax="948" yMax="2066">
      <component glyphName="A" x="0" y="0" flags="0x204"/>
      <component glyphName="acute.cap" x="265" y="0" flags="0x4"/>
    </TTGlyph>
    <TTGlyph name="Acircumflex" xMin="19" yMin="0" xMax="948" yMax="2066">
      <component glyphName="A" x="0" y="0" flags="0x204"/>
      <component glyphName="circumflex.cap" x="0" y="0" flags="0x4"/>
    </TTGlyph>
    <TTGlyph name="Adieresis" xMin="19" yMin="0" xMax="948" yMax="2066">
      <component glyphName="A" x="0" y="0" flags="0x204"/>
      <component glyphName="dieresis.cap" x="11" y="0" flags="0x4"/>
    </TTGlyph>
    <TTGlyph name="Agrave" xMin="19" yMin="0" xMax="948" yMax="2066">
      <component glyphName="A" x="0" y="0" flags="0x204"/>
      <component glyphName="grave.cap" x="26" y="0" flags="0x4"/>
    </TTGlyph>
    <TTGlyph name="Aring" xMin="18" yMin="0" xMax="947" yMax="2065">
      <contour>
        <pt x="302" y="1526" on="1"/>
        <pt x="234" y="1567" on="0"/>
        <pt x="169" y="1701" on="0"/>
        <pt x="169" y="1776" on="1"/>
        <pt x="169" y="1834" on="0"/>
        <pt x="206" y="1939" on="0"/>
        <pt x="283" y="2018" on="0"/>
        <pt x="402" y="2065" on="0"/>
        <pt x="483" y="2065" on="1"/>
        <pt x="565" y="2065" on="0"/>
        <pt x="686" y="2019" on="0"/>
        <pt x="767" y="1941" on="0"/>
        <pt x="807" y="1836" on="0"/>
        <pt x="807" y="1776" on="1"/>
        <pt x="807" y="1740" on="0"/>
        <pt x="789" y="1668" on="0"/>
        <pt x="753" y="1602" on="0"/>
        <pt x="698" y="1545" on="0"/>
        <pt x="662" y="1524" on="1"/>
        <pt x="947" y="0" on="1"/>
        <pt x="687" y="0" on="1"/>
        <pt x="640" y="306" on="1"/>
        <pt x="324" y="306" on="1"/>
        <pt x="279" y="0" on="1"/>
        <pt x="18" y="0" on="1"/>
      </contour>
      <contour>
        <pt x="482" y="1643" on="1"/>
        <pt x="522" y="1643" on="0"/>
        <pt x="581" y="1666" on="0"/>
        <pt x="620" y="1703" on="0"/>
        <pt x="640" y="1749" on="0"/>
        <pt x="640" y="1772" on="1"/>
        <pt x="640" y="1829" on="0"/>
        <pt x="562" y="1903" on="0"/>
        <pt x="482" y="1903" on="1"/>
        <pt x="410" y="1903" on="0"/>
        <pt x="343" y="1828" on="0"/>
        <pt x="343" y="1772" on="1"/>
        <pt x="343" y="1748" on="0"/>
        <pt x="360" y="1701" on="0"/>
        <pt x="394" y="1665" on="0"/>
        <pt x="447" y="1643" on="0"/>
      </contour>
      <contour>
        <pt x="610" y="501" on="1"/>
        <pt x="488" y="1356" on="1"/>
        <pt x="477" y="1356" on="1"/>
        <pt x="354" y="501" on="1"/>
      </contour>
    </TTGlyph>
    <TTGlyph name="Atilde" xMin="19" yMin="0" xMax="948" yMax="2066">
      <component glyphName="A" x="0" y="0" flags="0x204"/>
      <component glyphName="tilde.cap" x="-2" y="0" flags="0x4"/>
    </TTGlyph>
    <TTGlyph name="B" xMin="146" yMin="0" xMax="968" yMax="1708">
      <contour>
        <pt x="146" y="1708" on="1"/>
        <pt x="408" y="1708" on="1"/>
        <pt x="466" y="1708" on="0"/>
        <pt x="590" y="1700" on="0"/>
        <pt x="708" y="1674" on="0"/>
        <pt x="814" y="1623" on="0"/>
        <pt x="893" y="1537" on="0"/>
        <pt x="940" y="1410" on="0"/>
        <pt x="940" y="1321" on="1"/>
        <pt x="940" y="1238" on="1"/>
        <pt x="940" y="1170" on="0"/>
        <pt x="901" y="1056" on="0"/>
        <pt x="837" y="969" on="0"/>
        <pt x="755" y="912" on="0"/>
        <pt x="712" y="902" on="1"/>
        <pt x="712" y="894" on="1"/>
        <pt x="839" y="871" on="0"/>
        <pt x="968" y="676" on="0"/>
        <pt x="968" y="524" on="1"/>
        <pt x="968" y="437" on="1"/>
        <pt x="968" y="344" on="0"/>
        <pt x="927" y="207" on="0"/>
        <pt x="853" y="110" on="0"/>
        <pt x="751" y="48" on="0"/>
        <pt x="629" y="13" on="0"/>
        <pt x="491" y="0" on="0"/>
        <pt x="418" y="0" on="1"/>
        <pt x="146" y="0" on="1"/>
      </contour>
      <contour>
        <pt x="450" y="977" on="1"/>
        <pt x="502" y="977" on="0"/>
        <pt x="588" y="1002" on="0"/>
        <pt x="649" y="1055" on="0"/>
        <pt x="682" y="1140" on="0"/>
        <pt x="682" y="1200" on="1"/>
        <pt x="682" y="1270" on="1"/>
        <pt x="682" y="1330" on="0"/>
        <pt x="658" y="1422" on="0"/>
        <pt x="603" y="1486" on="0"/>
        <pt x="514" y="1519" on="0"/>
        <pt x="450" y="1519" on="1"/>
        <pt x="400" y="1519" on="1"/>
        <pt x="400" y="977" on="1"/>
      </contour>
      <contour>
        <pt x="474" y="180" on="1"/>
        <pt x="526" y="180" on="0"/>
        <pt x="611" y="207" on="0"/>
        <pt x="672" y="264" on="0"/>
        <pt x="705" y="352" on="0"/>
        <pt x="705" y="412" on="1"/>
        <pt x="705" y="545" on="1"/>
        <pt x="705" y="605" on="0"/>
        <pt x="681" y="698" on="0"/>
        <pt x="626" y="761" on="0"/>
        <pt x="538" y="794" on="0"/>
        <pt x="474" y="794" on="1"/>
        <pt x="400" y="794" on="1"/>
        <pt x="400" y="180" on="1"/>
      </contour>
    </TTGlyph>
    <TTGlyph name="C" xMin="99" yMin="-15" xMax="878" yMax="1723">
      <contour>
        <pt x="514" y="-15" on="1"/>
        <pt x="474" y="-15" on="0"/>
        <pt x="381" y="-2" on="0"/>
        <pt x="288" y="40" on="0"/>
        <pt x="203" y="117" on="0"/>
        <pt x="138" y="243" on="0"/>
        <pt x="99" y="428" on="0"/>
        <pt x="99" y="556" on="1"/>
        <pt x="99" y="1161" on="1"/>
        <pt x="99" y="1290" on="0"/>
        <pt x="139" y="1473" on="0"/>
        <pt x="205" y="1598" on="0"/>
        <pt x="291" y="1672" on="0"/>
        <pt x="383" y="1711" on="0"/>
        <pt x="474" y="1723" on="0"/>
        <pt x="513" y="1723" on="1"/>
        <pt x="615" y="1723" on="0"/>
        <pt x="752" y="1666" on="0"/>
        <pt x="835" y="1567" on="0"/>
        <pt x="870" y="1435" on="0"/>
        <pt x="870" y="1361" on="1"/>
        <pt x="870" y="1306" on="0"/>
        <pt x="859" y="1213" on="0"/>
        <pt x="848" y="1157" on="1"/>
        <pt x="638" y="1157" on="1"/>
        <pt x="638" y="1244" on="1"/>
        <pt x="638" y="1385" on="0"/>
        <pt x="576" y="1525" on="0"/>
        <pt x="516" y="1525" on="1"/>
        <pt x="480" y="1525" on="0"/>
        <pt x="426" y="1497" on="0"/>
        <pt x="390" y="1430" on="0"/>
        <pt x="371" y="1320" on="0"/>
        <pt x="371" y="1238" on="1"/>
        <pt x="371" y="458" on="1"/>
        <pt x="371" y="378" on="0"/>
        <pt x="386" y="272" on="0"/>
        <pt x="420" y="208" on="0"/>
        <pt x="475" y="181" on="0"/>
        <pt x="514" y="181" on="1"/>
        <pt x="539" y="181" on="0"/>
        <pt x="585" y="204" on="0"/>
        <pt x="620" y="253" on="0"/>
        <pt x="641" y="328" on="0"/>
        <pt x="641" y="379" on="1"/>
        <pt x="641" y="546" on="1"/>
        <pt x="878" y="546" on="1"/>
        <pt x="878" y="388" on="1"/>
        <pt x="878" y="182" on="0"/>
        <pt x="690" y="-14" on="0"/>
      </contour>
    </TTGlyph>
    <TTGlyph name="Ccedilla" xMin="99" yMin="-419" xMax="878" yMax="1723">
      <component glyphName="C" x="0" y="0" flags="0x204"/>
      <component glyphName="cedilla" x="131" y="0" flags="0x4"/>
    </TTGlyph>
    <TTGlyph name="D" xMin="146" yMin="0" xMax="976" yMax="1708">
      <contour>
        <pt x="146" y="1708" on="1"/>
        <pt x="415" y="1708" on="1"/>
        <pt x="476" y="1708" on="0"/>
        <pt x="607" y="1701" on="0"/>
        <pt x="732" y="1665" on="0"/>
        <pt x="843" y="1590" on="0"/>
        <pt x="927" y="1455" on="0"/>
        <pt x="976" y="1250" on="0"/>
        <pt x="976" y="1102" on="1"/>
        <pt x="976" y="606" on="1"/>
        <pt x="976" y="458" on="0"/>
        <pt x="927" y="252" on="0"/>
        <pt x="843" y="118" on="0"/>
        <pt x="732" y="43" on="0"/>
        <pt x="607" y="7" on="0"/>
        <pt x="476" y="0" on="0"/>
        <pt x="415" y="0" on="1"/>
        <pt x="146" y="0" on="1"/>
      </contour>
      <contour>
        <pt x="471" y="181" on="1"/>
        <pt x="541" y="181" on="0"/>
        <pt x="632" y="217" on="0"/>
        <pt x="685" y="308" on="0"/>
        <pt x="705" y="465" on="0"/>
        <pt x="705" y="585" on="1"/>
        <pt x="705" y="1115" on="1"/>
        <pt x="705" y="1235" on="0"/>
        <pt x="685" y="1392" on="0"/>
        <pt x="632" y="1483" on="0"/>
        <pt x="541" y="1519" on="0"/>
        <pt x="471" y="1519" on="1"/>
        <pt x="405" y="1519" on="1"/>
        <pt x="405" y="181" on="1"/>
      </contour>
    </TTGlyph>
    <TTGlyph name="Dcroat" xMin="43" yMin="0" xMax="941" yMax="1725">
      <component glyphName="Eth" x="0" y="0" flags="0x204"/>
    </TTGlyph>
    <TTGlyph name="E" xMin="146" yMin="0" xMax="789" yMax="1708">
      <contour>
        <pt x="146" y="1708" on="1"/>
        <pt x="779" y="1708" on="1"/>
        <pt x="779" y="1504" on="1"/>
        <pt x="405" y="1504" on="1"/>
        <pt x="405" y="993" on="1"/>
        <pt x="694" y="993" on="1"/>
        <pt x="694" y="789" on="1"/>
        <pt x="405" y="789" on="1"/>
        <pt x="405" y="204" on="1"/>
        <pt x="789" y="204" on="1"/>
        <pt x="789" y="0" on="1"/>
        <pt x="146" y="0" on="1"/>
      </contour>
    </TTGlyph>
    <TTGlyph name="Eacute" xMin="146" yMin="0" xMax="824" yMax="2066">
      <component glyphName="E" x="0" y="0" flags="0x204"/>
      <component glyphName="acute.cap" x="260" y="0" flags="0x4"/>
    </TTGlyph>
    <TTGlyph name="Ecircumflex" xMin="110" yMin="0" xMax="840" yMax="2066">
      <component glyphName="E" x="0" y="0" flags="0x204"/>
      <component glyphName="circumflex.cap" x="-4" y="0" flags="0x4"/>
    </TTGlyph>
    <TTGlyph name="Edieresis" xMin="120" yMin="0" xMax="840" yMax="2066">
      <component glyphName="E" x="0" y="0" flags="0x204"/>
      <component glyphName="dieresis.cap" x="6" y="0" flags="0x4"/>
    </TTGlyph>
    <TTGlyph name="Egrave" xMin="135" yMin="0" xMax="789" yMax="2066">
      <component glyphName="E" x="0" y="0" flags="0x204"/>
      <component glyphName="grave.cap" x="21" y="0" flags="0x4"/>
    </TTGlyph>
    <TTGlyph name="Eth" xMin="43" yMin="0" xMax="941" yMax="1725">
      <contour>
        <pt x="128" y="817" on="1"/>
        <pt x="43" y="817" on="1"/>
        <pt x="43" y="1019" on="1"/>
        <pt x="128" y="1019" on="1"/>
        <pt x="128" y="1725" on="1"/>
        <pt x="406" y="1725" on="1"/>
        <pt x="454" y="1725" on="0"/>
        <pt x="571" y="1715" on="0"/>
        <pt x="690" y="1678" on="0"/>
        <pt x="802" y="1602" on="0"/>
        <pt x="889" y="1469" on="0"/>
        <pt x="941" y="1271" on="0"/>
        <pt x="941" y="1129" on="1"/>
        <pt x="941" y="606" on="1"/>
        <pt x="941" y="462" on="0"/>
        <pt x="889" y="259" on="0"/>
        <pt x="802" y="125" on="0"/>
        <pt x="690" y="48" on="0"/>
        <pt x="571" y="9" on="0"/>
        <pt x="454" y="0" on="0"/>
        <pt x="406" y="0" on="1"/>
        <pt x="128" y="0" on="1"/>
      </contour>
      <contour>
        <pt x="418" y="180" on="1"/>
        <pt x="487" y="180" on="0"/>
        <pt x="584" y="225" on="0"/>
        <pt x="645" y="318" on="0"/>
        <pt x="672" y="460" on="0"/>
        <pt x="672" y="558" on="1"/>
        <pt x="672" y="1149" on="1"/>
        <pt x="672" y="1240" on="0"/>
        <pt x="647" y="1379" on="0"/>
        <pt x="588" y="1472" on="0"/>
        <pt x="490" y="1519" on="0"/>
        <pt x="418" y="1519" on="1"/>
        <pt x="387" y="1519" on="1"/>
        <pt x="387" y="1019" on="1"/>
        <pt x="545" y="1019" on="1"/>
        <pt x="545" y="817" on="1"/>
        <pt x="387" y="817" on="1"/>
        <pt x="387" y="180" on="1"/>
      </contour>
    </TTGlyph>
    <TTGlyph name="Euro" xMin="4" yMin="-15" xMax="977" yMax="1723">
      <contour>
        <pt x="4" y="726" on="1"/>
        <pt x="158" y="726" on="1"/>
        <pt x="158" y="877" on="1"/>
        <pt x="4" y="877" on="1"/>
        <pt x="4" y="1056" on="1"/>
        <pt x="158" y="1056" on="1"/>
        <pt x="158" y="1161" on="1"/>
        <pt x="158" y="1290" on="0"/>
        <pt x="200" y="1473" on="0"/>
        <pt x="269" y="1598" on="0"/>
        <pt x="358" y="1672" on="0"/>
        <pt x="455" y="1711" on="0"/>
        <pt x="551" y="1723" on="0"/>
        <pt x="592" y="1723" on="1"/>
        <pt x="693" y="1723" on="0"/>
        <pt x="831" y="1671" on="0"/>
        <pt x="917" y="1579" on="0"/>
        <pt x="954" y="1456" on="0"/>
        <pt x="954" y="1386" on="1"/>
        <pt x="954" y="1350" on="0"/>
        <pt x="949" y="1298" on="0"/>
        <pt x="942" y="1255" on="0"/>
        <pt x="932" y="1216" on="0"/>
        <pt x="927" y="1194" on="1"/>
        <pt x="727" y="1194" on="1"/>
        <pt x="727" y="1259" on="1"/>
        <pt x="727" y="1398" on="0"/>
        <pt x="654" y="1520" on="0"/>
        <pt x="585" y="1520" on="1"/>
        <pt x="547" y="1520" on="0"/>
        <pt x="487" y="1492" on="0"/>
        <pt x="445" y="1425" on="0"/>
        <pt x="423" y="1315" on="0"/>
        <pt x="423" y="1233" on="1"/>
        <pt x="423" y="1056" on="1"/>
        <pt x="745" y="1056" on="1"/>
        <pt x="716" y="877" on="1"/>
        <pt x="423" y="877" on="1"/>
        <pt x="423" y="726" on="1"/>
        <pt x="690" y="726" on="1"/>
        <pt x="658" y="546" on="1"/>
        <pt x="423" y="546" on="1"/>
        <pt x="423" y="456" on="1"/>
        <pt x="423" y="376" on="0"/>
        <pt x="446" y="271" on="0"/>
        <pt x="491" y="207" on="0"/>
        <pt x="558" y="181" on="0"/>
        <pt x="603" y="181" on="1"/>
        <pt x="637" y="181" on="0"/>
        <pt x="694" y="203" on="0"/>
        <pt x="736" y="248" on="0"/>
        <pt x="759" y="318" on="0"/>
        <pt x="759" y="366" on="1"/>
        <pt x="759" y="439" on="1"/>
        <pt x="977" y="439" on="1"/>
        <pt x="977" y="378" on="1"/>
        <pt x="977" y="178" on="0"/>
        <pt x="783" y="-14" on="0"/>
        <pt x="603" y="-15" on="1"/>
        <pt x="559" y="-15" on="0"/>
        <pt x="460" y="-2" on="0"/>
        <pt x="362" y="39" on="0"/>
        <pt x="271" y="114" on="0"/>
        <pt x="201" y="239" on="0"/>
        <pt x="159" y="420" on="0"/>
        <pt x="158" y="546" on="1"/>
        <pt x="4" y="546" on="1"/>
      </contour>
    </TTGlyph>
    <TTGlyph name="F" xMin="146" yMin="0" xMax="799" yMax="1708">
      <contour>
        <pt x="146" y="1708" on="1"/>
        <pt x="799" y="1708" on="1"/>
        <pt x="799" y="1504" on="1"/>
        <pt x="405" y="1504" on="1"/>
        <pt x="405" y="993" on="1"/>
        <pt x="714" y="993" on="1"/>
        <pt x="714" y="789" on="1"/>
        <pt x="405" y="789" on="1"/>
        <pt x="405" y="0" on="1"/>
        <pt x="146" y="0" on="1"/>
      </contour>
    </TTGlyph>
    <TTGlyph name="G" xMin="109" yMin="-16" xMax="954" yMax="1723">
      <contour>
        <pt x="491" y="-16" on="1"/>
        <pt x="461" y="-16" on="0"/>
        <pt x="381" y="-3" on="0"/>
        <pt x="296" y="39" on="0"/>
        <pt x="214" y="116" on="0"/>
        <pt x="149" y="243" on="0"/>
        <pt x="109" y="428" on="0"/>
        <pt x="109" y="556" on="1"/>
        <pt x="109" y="1161" on="1"/>
        <pt x="109" y="1290" on="0"/>
        <pt x="151" y="1473" on="0"/>
        <pt x="221" y="1598" on="0"/>
        <pt x="312" y="1672" on="0"/>
        <pt x="410" y="1711" on="0"/>
        <pt x="506" y="1723" on="0"/>
        <pt x="547" y="1723" on="1"/>
        <pt x="651" y="1723" on="0"/>
        <pt x="794" y="1666" on="0"/>
        <pt x="883" y="1567" on="0"/>
        <pt x="922" y="1435" on="0"/>
        <pt x="922" y="1361" on="1"/>
        <pt x="922" y="1306" on="0"/>
        <pt x="909" y="1213" on="0"/>
        <pt x="898" y="1157" on="1"/>
        <pt x="691" y="1157" on="1"/>
        <pt x="691" y="1238" on="1"/>
        <pt x="691" y="1519" on="0"/>
        <pt x="540" y="1519" on="1"/>
        <pt x="499" y="1519" on="0"/>
        <pt x="439" y="1491" on="0"/>
        <pt x="399" y="1424" on="0"/>
        <pt x="380" y="1314" on="0"/>
        <pt x="380" y="1232" on="1"/>
        <pt x="380" y="458" on="1"/>
        <pt x="380" y="378" on="0"/>
        <pt x="399" y="272" on="0"/>
        <pt x="438" y="208" on="0"/>
        <pt x="497" y="181" on="0"/>
        <pt x="538" y="181" on="1"/>
        <pt x="581" y="181" on="0"/>
        <pt x="643" y="226" on="0"/>
        <pt x="683" y="304" on="0"/>
        <pt x="702" y="410" on="0"/>
        <pt x="702" y="472" on="1"/>
        <pt x="702" y="695" on="1"/>
        <pt x="569" y="695" on="1"/>
        <pt x="569" y="865" on="1"/>
        <pt x="954" y="865" on="1"/>
        <pt x="954" y="0" on="1"/>
        <pt x="782" y="0" on="1"/>
        <pt x="754" y="162" on="1"/>
        <pt x="705" y="67" on="0"/>
        <pt x="578" y="-16" on="0"/>
      </contour>
    </TTGlyph>
    <TTGlyph name="H" xMin="146" yMin="0" xMax="971" yMax="1708">
      <contour>
        <pt x="146" y="1708" on="1"/>
        <pt x="405" y="1708" on="1"/>
        <pt x="405" y="993" on="1"/>
        <pt x="712" y="993" on="1"/>
        <pt x="712" y="1708" on="1"/>
        <pt x="971" y="1708" on="1"/>
        <pt x="971" y="0" on="1"/>
        <pt x="712" y="0" on="1"/>
        <pt x="712" y="789" on="1"/>
        <pt x="405" y="789" on="1"/>
        <pt x="405" y="0" on="1"/>
        <pt x="146" y="0" on="1"/>
      </contour>
    </TTGlyph>
    <TTGlyph name="I" xMin="146" yMin="0" xMax="405" yMax="1708">
      <contour>
        <pt x="146" y="1708" on="1"/>
        <pt x="405" y="1708" on="1"/>
        <pt x="405" y="0" on="1"/>
        <pt x="146" y="0" on="1"/>
      </contour>
    </TTGlyph>
    <TTGlyph name="IJ" xMin="146" yMin="-16" xMax="1254" yMax="1708">
      <component glyphName="I" x="0" y="0" flags="0x4"/>
      <component glyphName="J" x="544" y="0" flags="0x4"/>
    </TTGlyph>
    <TTGlyph name="Iacute" xMin="146" yMin="0" xMax="619" yMax="2066">
      <component glyphName="I" x="0" y="0" flags="0x204"/>
      <component glyphName="acute.cap" x="55" y="0" flags="0x4"/>
    </TTGlyph>
    <TTGlyph name="Icircumflex" xMin="-95" yMin="0" xMax="635" yMax="2066">
      <component glyphName="I" x="0" y="0" flags="0x204"/>
      <component glyphName="circumflex.cap" x="-209" y="0" flags="0x4"/>
    </TTGlyph>
    <TTGlyph name="Idieresis" xMin="-84" yMin="0" xMax="636" yMax="2066">
      <component glyphName="I" x="0" y="0" flags="0x204"/>
      <component glyphName="dieresis.cap" x="-198" y="0" flags="0x4"/>
    </TTGlyph>
    <TTGlyph name="Igrave" xMin="-69" yMin="0" xMax="405" yMax="2066">
      <component glyphName="I" x="0" y="0" flags="0x204"/>
      <component glyphName="grave.cap" x="-183" y="0" flags="0x4"/>
    </TTGlyph>
    <TTGlyph name="Itilde" xMin="-98" yMin="0" xMax="649" yMax="2066">
      <component glyphName="I" x="0" y="0" flags="0x204"/>
      <component glyphName="tilde.cap" x="-212" y="0" flags="0x4"/>
    </TTGlyph>
    <TTGlyph name="J" xMin="12" yMin="-16" xMax="710" yMax="1708">
      <contour>
        <pt x="351" y="-16" on="1"/>
        <pt x="255" y="-16" on="0"/>
        <pt x="125" y="44" on="0"/>
        <pt x="46" y="147" on="0"/>
        <pt x="12" y="285" on="0"/>
        <pt x="12" y="362" on="1"/>
        <pt x="12" y="416" on="0"/>
        <pt x="26" y="551" on="0"/>
        <pt x="40" y="619" on="1"/>
        <pt x="247" y="619" on="1"/>
        <pt x="244" y="411" on="1"/>
        <pt x="244" y="345" on="0"/>
        <pt x="256" y="256" on="0"/>
        <pt x="281" y="203" on="0"/>
        <pt x="320" y="180" on="0"/>
        <pt x="348" y="180" on="1"/>
        <pt x="371" y="180" on="0"/>
        <pt x="408" y="198" on="0"/>
        <pt x="434" y="243" on="0"/>
        <pt x="448" y="320" on="0"/>
        <pt x="448" y="378" on="1"/>
        <pt x="451" y="1708" on="1"/>
        <pt x="710" y="1708" on="1"/>
        <pt x="710" y="414" on="1"/>
        <pt x="710" y="282" on="0"/>
        <pt x="650" y="114" on="0"/>
        <pt x="549" y="19" on="0"/>
        <pt x="420" y="-16" on="0"/>
      </contour>
    </TTGlyph>
    <TTGlyph name="Jcircumflex" xMin="15" yMin="-16" xMax="943" yMax="2066">
      <component glyphName="J" x="3" y="0" flags="0x4"/>
      <component glyphName="circumflex.cap" x="99" y="0" flags="0x4"/>
    </TTGlyph>
    <TTGlyph name="K" xMin="146" yMin="0" xMax="1004" yMax="1708">
      <contour>
        <pt x="146" y="1708" on="1"/>
        <pt x="405" y="1708" on="1"/>
        <pt x="405" y="962" on="1"/>
        <pt x="413" y="962" on="1"/>
        <pt x="709" y="1708" on="1"/>
        <pt x="967" y="1708" on="1"/>
        <pt x="637" y="907" on="1"/>
        <pt x="1004" y="0" on="1"/>
        <pt x="727" y="0" on="1"/>
        <pt x="413" y="813" on="1"/>
        <pt x="405" y="813" on="1"/>
        <pt x="405" y="0" on="1"/>
        <pt x="146" y="0" on="1"/>
      </contour>
    </TTGlyph>
    <TTGlyph name="Kcommaaccent" xMin="146" yMin="-457" xMax="1004" yMax="1708">
      <component glyphName="K" x="0" y="0" flags="0x4"/>
      <component glyphName="commaaccent" x="308" y="0" flags="0x4"/>
    </TTGlyph>
    <TTGlyph name="L" xMin="146" yMin="0" xMax="758" yMax="1708">
      <contour>
        <pt x="146" y="1708" on="1"/>
        <pt x="405" y="1708" on="1"/>
        <pt x="405" y="204" on="1"/>
        <pt x="758" y="204" on="1"/>
        <pt x="758" y="0" on="1"/>
        <pt x="146" y="0" on="1"/>
      </contour>
    </TTGlyph>
    <TTGlyph name="Ldot" xMin="146" yMin="0" xMax="824" yMax="1708">
      <contour>
        <pt x="674" y="601" on="1"/>
        <pt x="638" y="601" on="0"/>
        <pt x="584" y="629" on="0"/>
        <pt x="549" y="675" on="0"/>
        <pt x="531" y="734" on="0"/>
        <pt x="531" y="765" on="1"/>
        <pt x="531" y="799" on="0"/>
        <pt x="548" y="862" on="0"/>
        <pt x="583" y="910" on="0"/>
        <pt x="637" y="939" on="0"/>
        <pt x="674" y="939" on="1"/>
        <pt x="712" y="939" on="0"/>
        <pt x="768" y="910" on="0"/>
        <pt x="806" y="862" on="0"/>
        <pt x="824" y="799" on="0"/>
        <pt x="824" y="765" on="1"/>
        <pt x="824" y="735" on="0"/>
        <pt x="806" y="676" on="0"/>
        <pt x="768" y="630" on="0"/>
        <pt x="712" y="601" on="0"/>
      </contour>
      <contour>
        <pt x="146" y="1708" on="1"/>
        <pt x="405" y="1708" on="1"/>
        <pt x="405" y="204" on="1"/>
        <pt x="758" y="204" on="1"/>
        <pt x="758" y="0" on="1"/>
        <pt x="146" y="0" on="1"/>
      </contour>
    </TTGlyph>
    <TTGlyph name="Lslash" xMin="-76" yMin="0" xMax="756" yMax="1725">
      <contour>
        <pt x="146" y="560" on="1"/>
        <pt x="42" y="479" on="1"/>
        <pt x="-76" y="634" on="1"/>
        <pt x="146" y="812" on="1"/>
        <pt x="146" y="1725" on="1"/>
        <pt x="402" y="1725" on="1"/>
        <pt x="402" y="1018" on="1"/>
        <pt x="599" y="1178" on="1"/>
        <pt x="729" y="1010" on="1"/>
        <pt x="402" y="757" on="1"/>
        <pt x="402" y="207" on="1"/>
        <pt x="756" y="207" on="1"/>
        <pt x="756" y="0" on="1"/>
        <pt x="146" y="0" on="1"/>
      </contour>
    </TTGlyph>
    <TTGlyph name="M" xMin="146" yMin="0" xMax="1296" yMax="1708">
      <contour>
        <pt x="146" y="1708" on="1"/>
        <pt x="484" y="1708" on="1"/>
        <pt x="648" y="1047" on="1"/>
        <pt x="674" y="937" on="0"/>
        <pt x="704" y="738" on="0"/>
        <pt x="718" y="650" on="1"/>
        <pt x="726" y="650" on="1"/>
        <pt x="740" y="738" on="0"/>
        <pt x="770" y="937" on="0"/>
        <pt x="796" y="1047" on="1"/>
        <pt x="965" y="1708" on="1"/>
        <pt x="1296" y="1708" on="1"/>
        <pt x="1296" y="0" on="1"/>
        <pt x="1054" y="0" on="1"/>
        <pt x="1054" y="565" on="1"/>
        <pt x="1054" y="695" on="0"/>
        <pt x="1059" y="935" on="0"/>
        <pt x="1067" y="1136" on="0"/>
        <pt x="1077" y="1290" on="0"/>
        <pt x="1081" y="1335" on="1"/>
        <pt x="1062" y="1335" on="1"/>
        <pt x="804" y="220" on="1"/>
        <pt x="640" y="220" on="1"/>
        <pt x="380" y="1335" on="1"/>
        <pt x="361" y="1335" on="1"/>
        <pt x="365" y="1290" on="0"/>
        <pt x="375" y="1136" on="0"/>
        <pt x="383" y="935" on="0"/>
        <pt x="388" y="695" on="0"/>
        <pt x="388" y="565" on="1"/>
        <pt x="388" y="0" on="1"/>
        <pt x="146" y="0" on="1"/>
      </contour>
    </TTGlyph>
    <TTGlyph name="N" xMin="146" yMin="0" xMax="981" yMax="1708">
      <contour>
        <pt x="146" y="1708" on="1"/>
        <pt x="356" y="1708" on="1"/>
        <pt x="770" y="565" on="1"/>
        <pt x="776" y="565" on="1"/>
        <pt x="773" y="605" on="0"/>
        <pt x="763" y="703" on="0"/>
        <pt x="755" y="828" on="0"/>
        <pt x="749" y="986" on="0"/>
        <pt x="749" y="1085" on="1"/>
        <pt x="749" y="1708" on="1"/>
        <pt x="981" y="1708" on="1"/>
        <pt x="981" y="0" on="1"/>
        <pt x="769" y="0" on="1"/>
        <pt x="357" y="1113" on="1"/>
        <pt x="349" y="1113" on="1"/>
        <pt x="352" y="1068" on="0"/>
        <pt x="362" y="963" on="0"/>
        <pt x="370" y="821" on="0"/>
        <pt x="376" y="632" on="0"/>
        <pt x="376" y="502" on="1"/>
        <pt x="376" y="0" on="1"/>
        <pt x="146" y="0" on="1"/>
      </contour>
    </TTGlyph>
    <TTGlyph name="Nacute" xMin="145" yMin="0" xMax="980" yMax="2066">
      <component glyphName="N" x="-1" y="0" flags="0x4"/>
      <component glyphName="acute.cap" x="343" y="0" flags="0x4"/>
    </TTGlyph>
    <TTGlyph name="Ntilde" xMin="145" yMin="0" xMax="980" yMax="2066">
      <component glyphName="N" x="-1" y="0" flags="0x4"/>
      <component glyphName="tilde.cap" x="75" y="0" flags="0x4"/>
    </TTGlyph>
    <TTGlyph name="O" xMin="99" yMin="-15" xMax="945" yMax="1723">
      <contour>
        <pt x="524" y="-15" on="1"/>
        <pt x="483" y="-15" on="0"/>
        <pt x="387" y="-2" on="0"/>
        <pt x="293" y="40" on="0"/>
        <pt x="206" y="117" on="0"/>
        <pt x="139" y="243" on="0"/>
        <pt x="99" y="428" on="0"/>
        <pt x="99" y="556" on="1"/>
        <pt x="99" y="1161" on="1"/>
        <pt x="99" y="1290" on="0"/>
        <pt x="140" y="1473" on="0"/>
        <pt x="208" y="1598" on="0"/>
        <pt x="295" y="1672" on="0"/>
        <pt x="390" y="1711" on="0"/>
        <pt x="484" y="1723" on="0"/>
        <pt x="524" y="1723" on="1"/>
        <pt x="562" y="1723" on="0"/>
        <pt x="655" y="1712" on="0"/>
        <pt x="748" y="1675" on="0"/>
        <pt x="836" y="1602" on="0"/>
        <pt x="904" y="1477" on="0"/>
        <pt x="945" y="1292" on="0"/>
        <pt x="945" y="1161" on="1"/>
        <pt x="945" y="556" on="1"/>
        <pt x="945" y="429" on="0"/>
        <pt x="903" y="246" on="0"/>
        <pt x="835" y="119" on="0"/>
        <pt x="746" y="42" on="0"/>
        <pt x="653" y="-1" on="0"/>
        <pt x="561" y="-15" on="0"/>
      </contour>
      <contour>
        <pt x="524" y="180" on="1"/>
        <pt x="562" y="180" on="0"/>
        <pt x="619" y="206" on="0"/>
        <pt x="656" y="270" on="0"/>
        <pt x="675" y="375" on="0"/>
        <pt x="675" y="455" on="1"/>
        <pt x="675" y="1232" on="1"/>
        <pt x="675" y="1314" on="0"/>
        <pt x="656" y="1424" on="0"/>
        <pt x="619" y="1491" on="0"/>
        <pt x="562" y="1519" on="0"/>
        <pt x="524" y="1519" on="1"/>
        <pt x="485" y="1519" on="0"/>
        <pt x="427" y="1491" on="0"/>
        <pt x="389" y="1424" on="0"/>
        <pt x="370" y="1314" on="0"/>
        <pt x="370" y="1232" on="1"/>
        <pt x="370" y="455" on="1"/>
        <pt x="370" y="375" on="0"/>
        <pt x="389" y="270" on="0"/>
        <pt x="427" y="206" on="0"/>
        <pt x="485" y="180" on="0"/>
      </contour>
    </TTGlyph>
    <TTGlyph name="OE" xMin="103" yMin="0" xMax="1298" yMax="1708">
      <contour>
        <pt x="103" y="1077" on="1"/>
        <pt x="103" y="1227" on="0"/>
        <pt x="156" y="1438" on="0"/>
        <pt x="243" y="1578" on="0"/>
        <pt x="356" y="1658" on="0"/>
        <pt x="476" y="1698" on="0"/>
        <pt x="595" y="1708" on="0"/>
        <pt x="644" y="1708" on="1"/>
        <pt x="1298" y="1708" on="1"/>
        <pt x="1298" y="1503" on="1"/>
        <pt x="904" y="1503" on="1"/>
        <pt x="904" y="995" on="1"/>
        <pt x="1211" y="995" on="1"/>
        <pt x="1211" y="771" on="1"/>
        <pt x="904" y="771" on="1"/>
        <pt x="904" y="205" on="1"/>
        <pt x="1298" y="205" on="1"/>
        <pt x="1298" y="0" on="1"/>
        <pt x="644" y="0" on="1"/>
        <pt x="595" y="0" on="0"/>
        <pt x="476" y="10" on="0"/>
        <pt x="356" y="49" on="0"/>
        <pt x="243" y="129" on="0"/>
        <pt x="156" y="270" on="0"/>
        <pt x="103" y="480" on="0"/>
        <pt x="103" y="631" on="1"/>
      </contour>
      <contour>
        <pt x="647" y="187" on="1"/>
        <pt x="647" y="1521" on="1"/>
        <pt x="631" y="1521" on="1"/>
        <pt x="557" y="1521" on="0"/>
        <pt x="457" y="1473" on="0"/>
        <pt x="397" y="1374" on="0"/>
        <pt x="371" y="1225" on="0"/>
        <pt x="371" y="1123" on="1"/>
        <pt x="371" y="582" on="1"/>
        <pt x="371" y="477" on="0"/>
        <pt x="399" y="328" on="0"/>
        <pt x="462" y="232" on="0"/>
        <pt x="560" y="187" on="0"/>
        <pt x="631" y="187" on="1"/>
      </contour>
    </TTGlyph>
    <TTGlyph name="Oacute" xMin="112" yMin="-15" xMax="958" yMax="2066">
      <component glyphName="O" x="13" y="0" flags="0x4"/>
      <component glyphName="acute.cap" x="313" y="0" flags="0x4"/>
    </TTGlyph>
    <TTGlyph name="Ocircumflex" xMin="112" yMin="-15" xMax="958" yMax="2066">
      <component glyphName="O" x="13" y="0" flags="0x4"/>
      <component glyphName="circumflex.cap" x="48" y="0" flags="0x4"/>
    </TTGlyph>
    <TTGlyph name="Odieresis" xMin="112" yMin="-15" xMax="958" yMax="2066">
      <component glyphName="O" x="13" y="0" flags="0x4"/>
      <component glyphName="dieresis.cap" x="59" y="0" flags="0x4"/>
    </TTGlyph>
    <TTGlyph name="Ograve" xMin="112" yMin="-15" xMax="958" yMax="2066">
      <component glyphName="O" x="13" y="0" flags="0x4"/>
      <component glyphName="grave.cap" x="74" y="0" flags="0x4"/>
    </TTGlyph>
    <TTGlyph name="Oslash" xMin="99" yMin="-171" xMax="945" yMax="1878">
      <contour>
        <pt x="299" y="-171" on="1"/>
        <pt x="174" y="-171" on="1"/>
        <pt x="735" y="1878" on="1"/>
        <pt x="860" y="1878" on="1"/>
      </contour>
      <contour>
        <pt x="524" y="-15" on="1"/>
        <pt x="483" y="-15" on="0"/>
        <pt x="387" y="-2" on="0"/>
        <pt x="293" y="40" on="0"/>
        <pt x="206" y="117" on="0"/>
        <pt x="139" y="243" on="0"/>
        <pt x="99" y="428" on="0"/>
        <pt x="99" y="556" on="1"/>
        <pt x="99" y="1161" on="1"/>
        <pt x="99" y="1290" on="0"/>
        <pt x="140" y="1473" on="0"/>
        <pt x="208" y="1598" on="0"/>
        <pt x="295" y="1672" on="0"/>
        <pt x="390" y="1711" on="0"/>
        <pt x="484" y="1723" on="0"/>
        <pt x="524" y="1723" on="1"/>
        <pt x="562" y="1723" on="0"/>
        <pt x="655" y="1712" on="0"/>
        <pt x="748" y="1675" on="0"/>
        <pt x="836" y="1602" on="0"/>
        <pt x="904" y="1477" on="0"/>
        <pt x="945" y="1292" on="0"/>
        <pt x="945" y="1161" on="1"/>
        <pt x="945" y="556" on="1"/>
        <pt x="945" y="429" on="0"/>
        <pt x="903" y="246" on="0"/>
        <pt x="835" y="119" on="0"/>
        <pt x="746" y="42" on="0"/>
        <pt x="653" y="-1" on="0"/>
        <pt x="561" y="-15" on="0"/>
      </contour>
      <contour>
        <pt x="524" y="180" on="1"/>
        <pt x="562" y="180" on="0"/>
        <pt x="619" y="206" on="0"/>
        <pt x="656" y="270" on="0"/>
        <pt x="675" y="375" on="0"/>
        <pt x="675" y="455" on="1"/>
        <pt x="675" y="1232" on="1"/>
        <pt x="675" y="1314" on="0"/>
        <pt x="656" y="1424" on="0"/>
        <pt x="619" y="1491" on="0"/>
        <pt x="562" y="1519" on="0"/>
        <pt x="524" y="1519" on="1"/>
        <pt x="485" y="1519" on="0"/>
        <pt x="427" y="1491" on="0"/>
        <pt x="389" y="1424" on="0"/>
        <pt x="370" y="1314" on="0"/>
        <pt x="370" y="1232" on="1"/>
        <pt x="370" y="455" on="1"/>
        <pt x="370" y="375" on="0"/>
        <pt x="389" y="270" on="0"/>
        <pt x="427" y="206" on="0"/>
        <pt x="485" y="180" on="0"/>
      </contour>
    </TTGlyph>
    <TTGlyph name="Otilde" xMin="112" yMin="-15" xMax="958" yMax="2066">
      <component glyphName="O" x="13" y="0" flags="0x4"/>
      <component glyphName="tilde.cap" x="45" y="0" flags="0x4"/>
    </TTGlyph>
    <TTGlyph name="P" xMin="146" yMin="0" xMax="932" yMax="1708">
      <contour>
        <pt x="146" y="1708" on="1"/>
        <pt x="405" y="1708" on="1"/>
        <pt x="454" y="1708" on="0"/>
        <pt x="571" y="1699" on="0"/>
        <pt x="688" y="1666" on="0"/>
        <pt x="797" y="1598" on="0"/>
        <pt x="881" y="1481" on="0"/>
        <pt x="932" y="1305" on="0"/>
        <pt x="932" y="1179" on="1"/>
        <pt x="932" y="1119" on="1"/>
        <pt x="932" y="982" on="0"/>
        <pt x="885" y="787" on="0"/>
        <pt x="807" y="654" on="0"/>
        <pt x="704" y="574" on="0"/>
        <pt x="593" y="533" on="0"/>
        <pt x="480" y="520" on="0"/>
        <pt x="430" y="520" on="1"/>
        <pt x="405" y="520" on="1"/>
        <pt x="405" y="0" on="1"/>
        <pt x="146" y="0" on="1"/>
      </contour>
      <contour>
        <pt x="418" y="710" on="1"/>
        <pt x="488" y="710" on="0"/>
        <pt x="584" y="751" on="0"/>
        <pt x="641" y="838" on="0"/>
        <pt x="666" y="975" on="0"/>
        <pt x="666" y="1071" on="1"/>
        <pt x="666" y="1225" on="1"/>
        <pt x="666" y="1301" on="0"/>
        <pt x="644" y="1412" on="0"/>
        <pt x="587" y="1484" on="0"/>
        <pt x="491" y="1519" on="0"/>
        <pt x="418" y="1519" on="1"/>
        <pt x="405" y="1519" on="1"/>
        <pt x="405" y="710" on="1"/>
      </contour>
    </TTGlyph>
    <TTGlyph name="Q" xMin="109" yMin="-346" xMax="955" yMax="1723">
      <contour>
        <pt x="429" y="-5" on="1"/>
        <pt x="372" y="6" on="0"/>
        <pt x="258" y="68" on="0"/>
        <pt x="166" y="196" on="0"/>
        <pt x="109" y="401" on="0"/>
        <pt x="109" y="556" on="1"/>
        <pt x="109" y="1161" on="1"/>
        <pt x="109" y="1290" on="0"/>
        <pt x="150" y="1473" on="0"/>
        <pt x="218" y="1598" on="0"/>
        <pt x="305" y="1672" on="0"/>
        <pt x="400" y="1711" on="0"/>
        <pt x="494" y="1723" on="0"/>
        <pt x="534" y="1723" on="1"/>
        <pt x="572" y="1723" on="0"/>
        <pt x="665" y="1712" on="0"/>
        <pt x="758" y="1675" on="0"/>
        <pt x="846" y="1602" on="0"/>
        <pt x="914" y="1477" on="0"/>
        <pt x="955" y="1292" on="0"/>
        <pt x="955" y="1161" on="1"/>
        <pt x="955" y="556" on="1"/>
        <pt x="955" y="408" on="0"/>
        <pt x="899" y="207" on="0"/>
        <pt x="810" y="79" on="0"/>
        <pt x="701" y="12" on="0"/>
        <pt x="647" y="-1" on="1"/>
        <pt x="647" y="-16" on="1"/>
        <pt x="647" y="-65" on="0"/>
        <pt x="670" y="-125" on="0"/>
        <pt x="715" y="-158" on="0"/>
        <pt x="782" y="-169" on="0"/>
        <pt x="826" y="-169" on="1"/>
        <pt x="840" y="-169" on="0"/>
        <pt x="868" y="-169" on="0"/>
        <pt x="880" y="-168" on="1"/>
        <pt x="880" y="-308" on="1"/>
        <pt x="831" y="-330" on="0"/>
        <pt x="745" y="-346" on="0"/>
        <pt x="697" y="-346" on="1"/>
        <pt x="676" y="-346" on="0"/>
        <pt x="620" y="-341" on="0"/>
        <pt x="560" y="-322" on="0"/>
        <pt x="503" y="-287" on="0"/>
        <pt x="457" y="-226" on="0"/>
        <pt x="429" y="-136" on="0"/>
        <pt x="429" y="-72" on="1"/>
      </contour>
      <contour>
        <pt x="534" y="180" on="1"/>
        <pt x="572" y="180" on="0"/>
        <pt x="629" y="206" on="0"/>
        <pt x="666" y="270" on="0"/>
        <pt x="685" y="375" on="0"/>
        <pt x="685" y="455" on="1"/>
        <pt x="685" y="1232" on="1"/>
        <pt x="685" y="1314" on="0"/>
        <pt x="666" y="1424" on="0"/>
        <pt x="629" y="1491" on="0"/>
        <pt x="572" y="1519" on="0"/>
        <pt x="534" y="1519" on="1"/>
        <pt x="495" y="1519" on="0"/>
        <pt x="437" y="1491" on="0"/>
        <pt x="399" y="1424" on="0"/>
        <pt x="380" y="1314" on="0"/>
        <pt x="380" y="1232" on="1"/>
        <pt x="380" y="455" on="1"/>
        <pt x="380" y="375" on="0"/>
        <pt x="399" y="270" on="0"/>
        <pt x="437" y="206" on="0"/>
        <pt x="495" y="180" on="0"/>
      </contour>
    </TTGlyph>
    <TTGlyph name="R" xMin="146" yMin="0" xMax="998" yMax="1708">
      <contour>
        <pt x="146" y="1708" on="1"/>
        <pt x="427" y="1708" on="1"/>
        <pt x="475" y="1708" on="0"/>
        <pt x="590" y="1700" on="0"/>
        <pt x="705" y="1669" on="0"/>
        <pt x="812" y="1607" on="0"/>
        <pt x="895" y="1499" on="0"/>
        <pt x="945" y="1336" on="0"/>
        <pt x="945" y="1220" on="1"/>
        <pt x="945" y="1177" on="1"/>
        <pt x="945" y="982" on="0"/>
        <pt x="833" y="737" on="0"/>
        <pt x="724" y="683" on="1"/>
        <pt x="998" y="0" on="1"/>
        <pt x="724" y="0" on="1"/>
        <pt x="497" y="639" on="1"/>
        <pt x="400" y="639" on="1"/>
        <pt x="400" y="0" on="1"/>
        <pt x="146" y="0" on="1"/>
      </contour>
      <contour>
        <pt x="439" y="826" on="1"/>
        <pt x="507" y="826" on="0"/>
        <pt x="601" y="856" on="0"/>
        <pt x="659" y="927" on="0"/>
        <pt x="685" y="1044" on="0"/>
        <pt x="685" y="1130" on="1"/>
        <pt x="685" y="1265" on="1"/>
        <pt x="685" y="1331" on="0"/>
        <pt x="661" y="1427" on="0"/>
        <pt x="604" y="1489" on="0"/>
        <pt x="510" y="1519" on="0"/>
        <pt x="439" y="1519" on="1"/>
        <pt x="400" y="1519" on="1"/>
        <pt x="400" y="826" on="1"/>
      </contour>
    </TTGlyph>
    <TTGlyph name="Racute" xMin="146" yMin="0" xMax="998" yMax="2066">
      <component glyphName="R" x="0" y="0" flags="0x4"/>
      <component glyphName="acute.cap" x="354" y="0" flags="0x4"/>
    </TTGlyph>
    <TTGlyph name="Rcaron" xMin="146" yMin="0" xMax="998" yMax="2066">
      <component glyphName="R" x="0" y="0" flags="0x4"/>
      <component glyphName="caron.cap" x="89" y="0" flags="0x4"/>
    </TTGlyph>
    <TTGlyph name="Rcommaaccent" xMin="146" yMin="-457" xMax="998" yMax="1708">
      <component glyphName="R" x="0" y="0" flags="0x4"/>
      <component glyphName="commaaccent" x="305" y="0" flags="0x4"/>
    </TTGlyph>
    <TTGlyph name="S" xMin="80" yMin="-16" xMax="884" yMax="1723">
      <contour>
        <pt x="80" y="346" on="1"/>
        <pt x="80" y="401" on="0"/>
        <pt x="93" y="494" on="0"/>
        <pt x="106" y="548" on="1"/>
        <pt x="307" y="548" on="1"/>
        <pt x="307" y="465" on="1"/>
        <pt x="307" y="396" on="0"/>
        <pt x="324" y="290" on="0"/>
        <pt x="363" y="217" on="0"/>
        <pt x="428" y="180" on="0"/>
        <pt x="475" y="180" on="1"/>
        <pt x="549" y="180" on="0"/>
        <pt x="627" y="261" on="0"/>
        <pt x="627" y="339" on="1"/>
        <pt x="627" y="379" on="0"/>
        <pt x="616" y="446" on="0"/>
        <pt x="589" y="512" on="0"/>
        <pt x="543" y="585" on="0"/>
        <pt x="507" y="630" on="1"/>
        <pt x="237" y="951" on="1"/>
        <pt x="165" y="1043" on="0"/>
        <pt x="87" y="1230" on="0"/>
        <pt x="87" y="1336" on="1"/>
        <pt x="87" y="1421" on="0"/>
        <pt x="140" y="1563" on="0"/>
        <pt x="240" y="1666" on="0"/>
        <pt x="387" y="1723" on="0"/>
        <pt x="480" y="1723" on="1"/>
        <pt x="593" y="1723" on="0"/>
        <pt x="744" y="1659" on="0"/>
        <pt x="834" y="1555" on="0"/>
        <pt x="871" y="1426" on="0"/>
        <pt x="871" y="1361" on="1"/>
        <pt x="871" y="1306" on="0"/>
        <pt x="854" y="1213" on="0"/>
        <pt x="843" y="1157" on="1"/>
        <pt x="643" y="1157" on="1"/>
        <pt x="643" y="1238" on="1"/>
        <pt x="643" y="1374" on="0"/>
        <pt x="565" y="1519" on="0"/>
        <pt x="477" y="1519" on="1"/>
        <pt x="404" y="1519" on="0"/>
        <pt x="332" y="1438" on="0"/>
        <pt x="332" y="1370" on="1"/>
        <pt x="332" y="1334" on="0"/>
        <pt x="343" y="1276" on="0"/>
        <pt x="364" y="1227" on="0"/>
        <pt x="394" y="1181" on="0"/>
        <pt x="413" y="1156" on="1"/>
        <pt x="714" y="792" on="1"/>
        <pt x="796" y="685" on="0"/>
        <pt x="884" y="488" on="0"/>
        <pt x="884" y="378" on="1"/>
        <pt x="884" y="287" on="0"/>
        <pt x="827" y="141" on="0"/>
        <pt x="721" y="39" on="0"/>
        <pt x="571" y="-16" on="0"/>
        <pt x="477" y="-16" on="1"/>
        <pt x="361" y="-16" on="0"/>
        <pt x="208" y="46" on="0"/>
        <pt x="117" y="148" on="0"/>
        <pt x="80" y="278" on="0"/>
      </contour>
    </TTGlyph>
    <TTGlyph name="Scaron" xMin="76" yMin="-16" xMax="880" yMax="2066">
      <component glyphName="S" x="-4" y="0" flags="0x4"/>
      <component glyphName="caron.cap" x="-6" y="0" flags="0x4"/>
    </TTGlyph>
    <TTGlyph name="T" xMin="29" yMin="0" xMax="837" yMax="1708">
      <contour>
        <pt x="304" y="1504" on="1"/>
        <pt x="29" y="1504" on="1"/>
        <pt x="29" y="1708" on="1"/>
        <pt x="837" y="1708" on="1"/>
        <pt x="837" y="1504" on="1"/>
        <pt x="563" y="1504" on="1"/>
        <pt x="563" y="0" on="1"/>
        <pt x="304" y="0" on="1"/>
      </contour>
    </TTGlyph>
    <TTGlyph name="Thorn" xMin="146" yMin="0" xMax="932" yMax="1708">
      <contour>
        <pt x="146" y="1708" on="1"/>
        <pt x="403" y="1708" on="1"/>
        <pt x="403" y="1453" on="1"/>
        <pt x="414" y="1453" on="1"/>
        <pt x="462" y="1453" on="0"/>
        <pt x="577" y="1445" on="0"/>
        <pt x="692" y="1411" on="0"/>
        <pt x="799" y="1344" on="0"/>
        <pt x="882" y="1227" on="0"/>
        <pt x="932" y="1051" on="0"/>
        <pt x="932" y="925" on="1"/>
        <pt x="932" y="864" on="1"/>
        <pt x="932" y="727" on="0"/>
        <pt x="885" y="532" on="0"/>
        <pt x="807" y="399" on="0"/>
        <pt x="704" y="319" on="0"/>
        <pt x="593" y="277" on="0"/>
        <pt x="480" y="264" on="0"/>
        <pt x="430" y="264" on="1"/>
        <pt x="405" y="264" on="1"/>
        <pt x="405" y="0" on="1"/>
        <pt x="146" y="0" on="1"/>
      </contour>
      <contour>
        <pt x="418" y="455" on="1"/>
        <pt x="488" y="455" on="0"/>
        <pt x="584" y="496" on="0"/>
        <pt x="641" y="583" on="0"/>
        <pt x="666" y="720" on="0"/>
        <pt x="666" y="817" on="1"/>
        <pt x="666" y="970" on="1"/>
        <pt x="666" y="1046" on="0"/>
        <pt x="644" y="1157" on="0"/>
        <pt x="587" y="1230" on="0"/>
        <pt x="491" y="1265" on="0"/>
        <pt x="418" y="1265" on="1"/>
        <pt x="405" y="1265" on="1"/>
        <pt x="405" y="455" on="1"/>
      </contour>
    </TTGlyph>
    <TTGlyph name="U" xMin="140" yMin="-15" xMax="954" yMax="1708">
      <contour>
        <pt x="140" y="1708" on="1"/>
        <pt x="401" y="1708" on="1"/>
        <pt x="401" y="456" on="1"/>
        <pt x="401" y="376" on="0"/>
        <pt x="417" y="270" on="0"/>
        <pt x="452" y="207" on="0"/>
        <pt x="507" y="180" on="0"/>
        <pt x="545" y="180" on="1"/>
        <pt x="583" y="180" on="0"/>
        <pt x="640" y="207" on="0"/>
        <pt x="677" y="270" on="0"/>
        <pt x="696" y="376" on="0"/>
        <pt x="696" y="456" on="1"/>
        <pt x="696" y="1708" on="1"/>
        <pt x="954" y="1708" on="1"/>
        <pt x="954" y="525" on="1"/>
        <pt x="954" y="400" on="0"/>
        <pt x="914" y="222" on="0"/>
        <pt x="848" y="102" on="0"/>
        <pt x="763" y="32" on="0"/>
        <pt x="672" y="-5" on="0"/>
        <pt x="582" y="-15" on="0"/>
        <pt x="545" y="-15" on="1"/>
        <pt x="508" y="-15" on="0"/>
        <pt x="419" y="-5" on="0"/>
        <pt x="329" y="32" on="0"/>
        <pt x="245" y="102" on="0"/>
        <pt x="179" y="222" on="0"/>
        <pt x="140" y="399" on="0"/>
        <pt x="140" y="525" on="1"/>
      </contour>
    </TTGlyph>
    <TTGlyph name="Uacute" xMin="144" yMin="-15" xMax="958" yMax="2066">
      <component glyphName="U" x="4" y="0" flags="0x4"/>
      <component glyphName="acute.cap" x="341" y="0" flags="0x4"/>
    </TTGlyph>
    <TTGlyph name="Ucircumflex" xMin="144" yMin="-15" xMax="958" yMax="2066">
      <component glyphName="U" x="4" y="0" flags="0x4"/>
      <component glyphName="circumflex.cap" x="76" y="0" flags="0x4"/>
    </TTGlyph>
    <TTGlyph name="Udieresis" xMin="144" yMin="-15" xMax="958" yMax="2066">
      <component glyphName="U" x="4" y="0" flags="0x4"/>
      <component glyphName="dieresis.cap" x="87" y="0" flags="0x4"/>
    </TTGlyph>
    <TTGlyph name="Ugrave" xMin="144" yMin="-15" xMax="958" yMax="2066">
      <component glyphName="U" x="4" y="0" flags="0x4"/>
      <component glyphName="grave.cap" x="102" y="0" flags="0x4"/>
    </TTGlyph>
    <TTGlyph name="V" xMin="19" yMin="0" xMax="936" yMax="1708">
      <contour>
        <pt x="19" y="1708" on="1"/>
        <pt x="284" y="1708" on="1"/>
        <pt x="472" y="355" on="1"/>
        <pt x="483" y="355" on="1"/>
        <pt x="672" y="1708" on="1"/>
        <pt x="936" y="1708" on="1"/>
        <pt x="625" y="0" on="1"/>
        <pt x="329" y="0" on="1"/>
      </contour>
    </TTGlyph>
    <TTGlyph name="W" xMin="37" yMin="0" xMax="1441" yMax="1708">
      <contour>
        <pt x="37" y="1708" on="1"/>
        <pt x="285" y="1708" on="1"/>
        <pt x="400" y="676" on="1"/>
        <pt x="413" y="435" on="1"/>
        <pt x="438" y="435" on="1"/>
        <pt x="462" y="706" on="1"/>
        <pt x="646" y="1708" on="1"/>
        <pt x="853" y="1708" on="1"/>
        <pt x="1029" y="706" on="1"/>
        <pt x="1049" y="435" on="1"/>
        <pt x="1075" y="435" on="1"/>
        <pt x="1087" y="676" on="1"/>
        <pt x="1192" y="1708" on="1"/>
        <pt x="1441" y="1708" on="1"/>
        <pt x="1202" y="0" on="1"/>
        <pt x="939" y="0" on="1"/>
        <pt x="798" y="821" on="1"/>
        <pt x="754" y="1178" on="1"/>
        <pt x="734" y="1178" on="1"/>
        <pt x="691" y="821" on="1"/>
        <pt x="543" y="0" on="1"/>
        <pt x="283" y="0" on="1"/>
      </contour>
    </TTGlyph>
    <TTGlyph name="X" xMin="33" yMin="0" xMax="906" yMax="1708">
      <contour>
        <pt x="345" y="860" on="1"/>
        <pt x="33" y="1708" on="1"/>
        <pt x="310" y="1708" on="1"/>
        <pt x="469" y="1162" on="1"/>
        <pt x="479" y="1162" on="1"/>
        <pt x="638" y="1708" on="1"/>
        <pt x="906" y="1708" on="1"/>
        <pt x="593" y="859" on="1"/>
        <pt x="906" y="0" on="1"/>
        <pt x="639" y="0" on="1"/>
        <pt x="477" y="549" on="1"/>
        <pt x="460" y="549" on="1"/>
        <pt x="291" y="0" on="1"/>
        <pt x="33" y="0" on="1"/>
      </contour>
    </TTGlyph>
    <TTGlyph name="Y" xMin="5" yMin="0" xMax="954" yMax="1708">
      <contour>
        <pt x="349" y="569" on="1"/>
        <pt x="5" y="1708" on="1"/>
        <pt x="266" y="1708" on="1"/>
        <pt x="475" y="891" on="1"/>
        <pt x="487" y="891" on="1"/>
        <pt x="694" y="1708" on="1"/>
        <pt x="954" y="1708" on="1"/>
        <pt x="608" y="569" on="1"/>
        <pt x="608" y="0" on="1"/>
        <pt x="349" y="0" on="1"/>
      </contour>
    </TTGlyph>
    <TTGlyph name="Yacute" xMin="5" yMin="0" xMax="954" yMax="2066">
      <component glyphName="Y" x="0" y="0" flags="0x204"/>
      <component glyphName="acute.cap" x="261" y="0" flags="0x4"/>
    </TTGlyph>
    <TTGlyph name="Ydieresis" xMin="5" yMin="0" xMax="954" yMax="2066">
      <component glyphName="Y" x="0" y="0" flags="0x204"/>
      <component glyphName="dieresis.cap" x="7" y="0" flags="0x4"/>
    </TTGlyph>
    <TTGlyph name="Z" xMin="39" yMin="0" xMax="836" yMax="1708">
      <contour>
        <pt x="39" y="137" on="1"/>
        <pt x="545" y="1504" on="1"/>
        <pt x="115" y="1504" on="1"/>
        <pt x="115" y="1708" on="1"/>
        <pt x="836" y="1708" on="1"/>
        <pt x="836" y="1571" on="1"/>
        <pt x="329" y="204" on="1"/>
        <pt x="806" y="204" on="1"/>
        <pt x="806" y="0" on="1"/>
        <pt x="39" y="0" on="1"/>
      </contour>
    </TTGlyph>
    <TTGlyph name="Zacute" xMin="39" yMin="0" xMax="836" yMax="2066">
      <component glyphName="Z" x="0" y="0" flags="0x204"/>
      <component glyphName="acute.cap" x="264" y="0" flags="0x4"/>
    </TTGlyph>
    <TTGlyph name="Zcaron" xMin="39" yMin="0" xMax="844" yMax="2066">
      <component glyphName="Z" x="0" y="0" flags="0x204"/>
      <component glyphName="caron.cap" x="0" y="0" flags="0x4"/>
    </TTGlyph>
    <TTGlyph name="a" xMin="54" yMin="-15" xMax="792" yMax="1393">
      <contour>
        <pt x="320" y="-15" on="1"/>
        <pt x="256" y="-15" on="0"/>
        <pt x="157" y="36" on="0"/>
        <pt x="89" y="124" on="0"/>
        <pt x="54" y="245" on="0"/>
        <pt x="54" y="316" on="1"/>
        <pt x="54" y="401" on="0"/>
        <pt x="96" y="533" on="0"/>
        <pt x="177" y="639" on="0"/>
        <pt x="297" y="726" on="0"/>
        <pt x="376" y="765" on="1"/>
        <pt x="414" y="784" on="0"/>
        <pt x="509" y="823" on="0"/>
        <pt x="546" y="837" on="1"/>
        <pt x="546" y="1019" on="1"/>
        <pt x="546" y="1059" on="0"/>
        <pt x="540" y="1128" on="0"/>
        <pt x="517" y="1179" on="0"/>
        <pt x="471" y="1208" on="0"/>
        <pt x="431" y="1208" on="1"/>
        <pt x="404" y="1208" on="0"/>
        <pt x="353" y="1188" on="0"/>
        <pt x="314" y="1140" on="0"/>
        <pt x="291" y="1060" on="0"/>
        <pt x="291" y="1001" on="1"/>
        <pt x="291" y="941" on="1"/>
        <pt x="98" y="941" on="1"/>
        <pt x="89" y="980" on="0"/>
        <pt x="80" y="1045" on="0"/>
        <pt x="80" y="1077" on="1"/>
        <pt x="80" y="1154" on="0"/>
        <pt x="133" y="1272" on="0"/>
        <pt x="228" y="1352" on="0"/>
        <pt x="360" y="1393" on="0"/>
        <pt x="439" y="1393" on="1"/>
        <pt x="542" y="1393" on="0"/>
        <pt x="678" y="1348" on="0"/>
        <pt x="759" y="1258" on="0"/>
        <pt x="792" y="1122" on="0"/>
        <pt x="792" y="1031" on="1"/>
        <pt x="792" y="0" on="1"/>
        <pt x="604" y="0" on="1"/>
        <pt x="586" y="118" on="1"/>
        <pt x="545" y="59" on="0"/>
        <pt x="408" y="-15" on="0"/>
      </contour>
      <contour>
        <pt x="432" y="180" on="1"/>
        <pt x="464" y="180" on="0"/>
        <pt x="525" y="213" on="0"/>
        <pt x="546" y="237" on="1"/>
        <pt x="546" y="668" on="1"/>
        <pt x="526" y="660" on="0"/>
        <pt x="476" y="638" on="0"/>
        <pt x="447" y="620" on="1"/>
        <pt x="420" y="603" on="0"/>
        <pt x="368" y="555" on="0"/>
        <pt x="327" y="489" on="0"/>
        <pt x="302" y="406" on="0"/>
        <pt x="302" y="355" on="1"/>
        <pt x="302" y="276" on="0"/>
        <pt x="364" y="180" on="0"/>
      </contour>
    </TTGlyph>
    <TTGlyph name="aacute" xMin="68" yMin="-15" xMax="806" yMax="1983">
      <component glyphName="a" x="14" y="0" flags="0x204"/>
      <component glyphName="acute" x="183" y="0" flags="0x4"/>
    </TTGlyph>
    <TTGlyph name="acircumflex" xMin="63" yMin="-15" xMax="806" yMax="2066">
      <component glyphName="a" x="14" y="0" flags="0x204"/>
      <component glyphName="circumflex" x="-51" y="0" flags="0x4"/>
    </TTGlyph>
    <TTGlyph name="acute" xMin="114" yMin="1462" xMax="573" yMax="1983">
      <contour>
        <pt x="114" y="1567" on="1"/>
        <pt x="404" y="1983" on="1"/>
        <pt x="573" y="1846" on="1"/>
        <pt x="239" y="1462" on="1"/>
      </contour>
    </TTGlyph>
    <TTGlyph name="acute.cap" xMin="114" yMin="1733" xMax="564" yMax="2066">
      <contour>
        <pt x="114" y="1850" on="1"/>
        <pt x="435" y="2066" on="1"/>
        <pt x="564" y="1899" on="1"/>
        <pt x="219" y="1733" on="1"/>
      </contour>
    </TTGlyph>
    <TTGlyph name="adieresis" xMin="64" yMin="-15" xMax="806" yMax="1899">
      <component glyphName="a" x="14" y="0" flags="0x204"/>
      <component glyphName="dieresis" x="-50" y="0" flags="0x4"/>
    </TTGlyph>
    <TTGlyph name="ae" xMin="42" yMin="-16" xMax="1259" yMax="1386">
      <contour>
        <pt x="42" y="314" on="1"/>
        <pt x="42" y="398" on="0"/>
        <pt x="83" y="530" on="0"/>
        <pt x="163" y="636" on="0"/>
        <pt x="282" y="722" on="0"/>
        <pt x="361" y="761" on="1"/>
        <pt x="399" y="780" on="0"/>
        <pt x="487" y="819" on="0"/>
        <pt x="524" y="833" on="1"/>
        <pt x="524" y="1010" on="1"/>
        <pt x="524" y="1048" on="0"/>
        <pt x="520" y="1120" on="0"/>
        <pt x="500" y="1175" on="0"/>
        <pt x="456" y="1208" on="0"/>
        <pt x="416" y="1208" on="1"/>
        <pt x="389" y="1208" on="0"/>
        <pt x="338" y="1188" on="0"/>
        <pt x="299" y="1140" on="0"/>
        <pt x="276" y="1061" on="0"/>
        <pt x="276" y="1002" on="1"/>
        <pt x="276" y="936" on="1"/>
        <pt x="83" y="936" on="1"/>
        <pt x="74" y="975" on="0"/>
        <pt x="65" y="1040" on="0"/>
        <pt x="65" y="1072" on="1"/>
        <pt x="65" y="1148" on="0"/>
        <pt x="118" y="1265" on="0"/>
        <pt x="213" y="1345" on="0"/>
        <pt x="345" y="1385" on="0"/>
        <pt x="424" y="1385" on="1"/>
        <pt x="472" y="1385" on="0"/>
        <pt x="549" y="1367" on="0"/>
        <pt x="612" y="1337" on="0"/>
        <pt x="661" y="1296" on="0"/>
        <pt x="680" y="1273" on="1"/>
        <pt x="688" y="1273" on="1"/>
        <pt x="715" y="1305" on="0"/>
        <pt x="776" y="1348" on="0"/>
        <pt x="841" y="1375" on="0"/>
        <pt x="904" y="1386" on="0"/>
        <pt x="933" y="1386" on="1"/>
        <pt x="995" y="1386" on="0"/>
        <pt x="1113" y="1345" on="0"/>
        <pt x="1204" y="1247" on="0"/>
        <pt x="1259" y="1082" on="0"/>
        <pt x="1259" y="958" on="1"/>
        <pt x="1259" y="875" on="0"/>
        <pt x="1240" y="704" on="0"/>
        <pt x="1225" y="638" on="1"/>
        <pt x="777" y="638" on="1"/>
        <pt x="777" y="499" on="1"/>
        <pt x="777" y="409" on="0"/>
        <pt x="790" y="285" on="0"/>
        <pt x="823" y="207" on="0"/>
        <pt x="880" y="172" on="0"/>
        <pt x="923" y="172" on="1"/>
        <pt x="946" y="172" on="0"/>
        <pt x="990" y="191" on="0"/>
        <pt x="1025" y="234" on="0"/>
        <pt x="1046" y="307" on="0"/>
        <pt x="1046" y="361" on="1"/>
        <pt x="1046" y="411" on="1"/>
        <pt x="1251" y="411" on="1"/>
        <pt x="1251" y="358" on="1"/>
        <pt x="1251" y="164" on="0"/>
        <pt x="1079" y="-16" on="0"/>
        <pt x="915" y="-16" on="1"/>
        <pt x="820" y="-16" on="0"/>
        <pt x="679" y="70" on="0"/>
        <pt x="636" y="151" on="1"/>
        <pt x="628" y="151" on="1"/>
        <pt x="577" y="72" on="0"/>
        <pt x="424" y="-16" on="0"/>
        <pt x="339" y="-16" on="1"/>
        <pt x="259" y="-16" on="0"/>
        <pt x="146" y="37" on="0"/>
        <pt x="75" y="128" on="0"/>
        <pt x="42" y="248" on="0"/>
      </contour>
      <contour>
        <pt x="1024" y="807" on="1"/>
        <pt x="1025" y="818" on="0"/>
        <pt x="1027" y="856" on="0"/>
        <pt x="1028" y="899" on="0"/>
        <pt x="1028" y="939" on="0"/>
        <pt x="1028" y="953" on="1"/>
        <pt x="1028" y="1089" on="0"/>
        <pt x="970" y="1207" on="0"/>
        <pt x="907" y="1208" on="1"/>
        <pt x="874" y="1208" on="0"/>
        <pt x="825" y="1177" on="0"/>
        <pt x="793" y="1104" on="0"/>
        <pt x="777" y="985" on="0"/>
        <pt x="777" y="897" on="1"/>
        <pt x="777" y="807" on="1"/>
      </contour>
      <contour>
        <pt x="287" y="353" on="1"/>
        <pt x="287" y="275" on="0"/>
        <pt x="349" y="176" on="0"/>
        <pt x="417" y="176" on="1"/>
        <pt x="449" y="176" on="0"/>
        <pt x="503" y="209" on="0"/>
        <pt x="524" y="233" on="1"/>
        <pt x="524" y="665" on="1"/>
        <pt x="504" y="657" on="0"/>
        <pt x="461" y="635" on="0"/>
        <pt x="432" y="617" on="1"/>
        <pt x="405" y="600" on="0"/>
        <pt x="353" y="552" on="0"/>
        <pt x="312" y="486" on="0"/>
        <pt x="287" y="404" on="0"/>
      </contour>
    </TTGlyph>
    <TTGlyph name="agrave" xMin="68" yMin="-15" xMax="806" yMax="1983">
      <component glyphName="a" x="14" y="0" flags="0x204"/>
      <component glyphName="grave" x="-25" y="0" flags="0x4"/>
    </TTGlyph>
    <TTGlyph name="ampersand" xMin="55" yMin="-16" xMax="1130" yMax="1810">
      <contour>
        <pt x="55" y="410" on="1"/>
        <pt x="55" y="495" on="0"/>
        <pt x="111" y="645" on="0"/>
        <pt x="191" y="772" on="0"/>
        <pt x="280" y="875" on="0"/>
        <pt x="313" y="913" on="1"/>
        <pt x="340" y="942" on="1"/>
        <pt x="306" y="1003" on="1"/>
        <pt x="280" y="1050" on="0"/>
        <pt x="232" y="1154" on="0"/>
        <pt x="195" y="1263" on="0"/>
        <pt x="173" y="1376" on="0"/>
        <pt x="173" y="1432" on="1"/>
        <pt x="173" y="1519" on="0"/>
        <pt x="233" y="1659" on="0"/>
        <pt x="335" y="1757" on="0"/>
        <pt x="473" y="1810" on="0"/>
        <pt x="551" y="1810" on="1"/>
        <pt x="653" y="1810" on="0"/>
        <pt x="786" y="1748" on="0"/>
        <pt x="864" y="1655" on="0"/>
        <pt x="895" y="1548" on="0"/>
        <pt x="895" y="1502" on="1"/>
        <pt x="895" y="1409" on="0"/>
        <pt x="834" y="1250" on="0"/>
        <pt x="749" y="1119" on="0"/>
        <pt x="657" y="1016" on="0"/>
        <pt x="626" y="980" on="1"/>
        <pt x="604" y="955" on="1"/>
        <pt x="862" y="486" on="1"/>
        <pt x="879" y="541" on="0"/>
        <pt x="898" y="661" on="0"/>
        <pt x="898" y="724" on="1"/>
        <pt x="898" y="757" on="0"/>
        <pt x="896" y="814" on="0"/>
        <pt x="894" y="841" on="1"/>
        <pt x="1103" y="841" on="1"/>
        <pt x="1108" y="815" on="0"/>
        <pt x="1113" y="754" on="0"/>
        <pt x="1113" y="724" on="1"/>
        <pt x="1113" y="605" on="0"/>
        <pt x="1038" y="379" on="0"/>
        <pt x="974" y="283" on="1"/>
        <pt x="1130" y="1" on="1"/>
        <pt x="862" y="1" on="1"/>
        <pt x="806" y="101" on="1"/>
        <pt x="734" y="46" on="0"/>
        <pt x="574" y="-16" on="0"/>
        <pt x="491" y="-16" on="1"/>
        <pt x="395" y="-16" on="0"/>
        <pt x="235" y="41" on="0"/>
        <pt x="119" y="149" on="0"/>
        <pt x="55" y="308" on="0"/>
      </contour>
      <contour>
        <pt x="528" y="1143" on="1"/>
        <pt x="548" y="1166" on="0"/>
        <pt x="599" y="1228" on="0"/>
        <pt x="645" y="1306" on="0"/>
        <pt x="677" y="1402" on="0"/>
        <pt x="677" y="1458" on="1"/>
        <pt x="677" y="1496" on="0"/>
        <pt x="656" y="1552" on="0"/>
        <pt x="621" y="1588" on="0"/>
        <pt x="576" y="1606" on="0"/>
        <pt x="551" y="1606" on="1"/>
        <pt x="528" y="1606" on="0"/>
        <pt x="478" y="1589" on="0"/>
        <pt x="437" y="1549" on="0"/>
        <pt x="410" y="1482" on="0"/>
        <pt x="410" y="1432" on="1"/>
        <pt x="410" y="1398" on="0"/>
        <pt x="421" y="1333" on="0"/>
        <pt x="445" y="1260" on="0"/>
        <pt x="484" y="1177" on="0"/>
        <pt x="511" y="1125" on="1"/>
      </contour>
      <contour>
        <pt x="312" y="445" on="1"/>
        <pt x="312" y="397" on="0"/>
        <pt x="339" y="302" on="0"/>
        <pt x="396" y="227" on="0"/>
        <pt x="485" y="180" on="0"/>
        <pt x="546" y="180" on="1"/>
        <pt x="596" y="180" on="0"/>
        <pt x="683" y="220" on="0"/>
        <pt x="720" y="256" on="1"/>
        <pt x="436" y="768" on="1"/>
        <pt x="376" y="693" on="0"/>
        <pt x="312" y="528" on="0"/>
      </contour>
    </TTGlyph>
    <TTGlyph name="approxequal" xMin="110" yMin="230" xMax="1186" yMax="1385">
      <component glyphName="asciitilde" x="0" y="485" flags="0x204"/>
      <component glyphName="asciitilde" x="-10" y="-169" flags="0x4"/>
    </TTGlyph>
    <TTGlyph name="aring" xMin="68" yMin="-15" xMax="806" yMax="2065">
      <component glyphName="a" x="14" y="0" flags="0x204"/>
      <component glyphName="ring" x="-5" y="0" flags="0x4"/>
    </TTGlyph>
    <TTGlyph name="asciicircum" xMin="35" yMin="277" xMax="924" yMax="1725">
      <contour>
        <pt x="358" y="1725" on="1"/>
        <pt x="591" y="1725" on="1"/>
        <pt x="924" y="277" on="1"/>
        <pt x="705" y="277" on="1"/>
        <pt x="543" y="1067" on="1"/>
        <pt x="492" y="1402" on="1"/>
        <pt x="467" y="1402" on="1"/>
        <pt x="413" y="1067" on="1"/>
        <pt x="254" y="277" on="1"/>
        <pt x="35" y="277" on="1"/>
      </contour>
    </TTGlyph>
    <TTGlyph name="asciitilde" xMin="120" yMin="399" xMax="1186" yMax="900">
      <contour>
        <pt x="130" y="450" on="1"/>
        <pt x="120" y="580" on="0"/>
        <pt x="162" y="753" on="0"/>
        <pt x="246" y="857" on="0"/>
        <pt x="363" y="900" on="0"/>
        <pt x="428" y="900" on="1"/>
        <pt x="494" y="900" on="0"/>
        <pt x="594" y="854" on="0"/>
        <pt x="672" y="784" on="0"/>
        <pt x="733" y="704" on="0"/>
        <pt x="788" y="634" on="0"/>
        <pt x="843" y="588" on="0"/>
        <pt x="876" y="588" on="1"/>
        <pt x="945" y="588" on="0"/>
        <pt x="996" y="732" on="0"/>
        <pt x="972" y="869" on="1"/>
        <pt x="1164" y="869" on="1"/>
        <pt x="1186" y="752" on="0"/>
        <pt x="1157" y="575" on="0"/>
        <pt x="1078" y="458" on="0"/>
        <pt x="963" y="399" on="0"/>
        <pt x="900" y="399" on="1"/>
        <pt x="832" y="399" on="0"/>
        <pt x="728" y="445" on="0"/>
        <pt x="645" y="513" on="0"/>
        <pt x="581" y="594" on="0"/>
        <pt x="522" y="662" on="0"/>
        <pt x="466" y="708" on="0"/>
        <pt x="434" y="708" on="1"/>
        <pt x="396" y="708" on="0"/>
        <pt x="343" y="670" on="0"/>
        <pt x="314" y="602" on="0"/>
        <pt x="307" y="507" on="0"/>
        <pt x="316" y="450" on="1"/>
        <pt x="130" y="450" on="1"/>
      </contour>
    </TTGlyph>
    <TTGlyph name="asterisk" xMin="79" yMin="840" xMax="969" yMax="1727">
      <contour>
        <pt x="167" y="993" on="1"/>
        <pt x="404" y="1239" on="1"/>
        <pt x="79" y="1300" on="1"/>
        <pt x="150" y="1539" on="1"/>
        <pt x="449" y="1377" on="1"/>
        <pt x="403" y="1727" on="1"/>
        <pt x="649" y="1727" on="1"/>
        <pt x="595" y="1377" on="1"/>
        <pt x="896" y="1534" on="1"/>
        <pt x="969" y="1295" on="1"/>
        <pt x="638" y="1239" on="1"/>
        <pt x="873" y="986" on="1"/>
        <pt x="673" y="840" on="1"/>
        <pt x="521" y="1153" on="1"/>
        <pt x="366" y="844" on="1"/>
      </contour>
    </TTGlyph>
    <TTGlyph name="at" xMin="90" yMin="-403" xMax="1559" yMax="1820">
      <contour>
        <pt x="90" y="945" on="1"/>
        <pt x="90" y="1127" on="0"/>
        <pt x="154" y="1398" on="0"/>
        <pt x="263" y="1592" on="0"/>
        <pt x="408" y="1718" on="0"/>
        <pt x="571" y="1791" on="0"/>
        <pt x="742" y="1820" on="0"/>
        <pt x="823" y="1820" on="1"/>
        <pt x="906" y="1820" on="0"/>
        <pt x="1080" y="1796" on="0"/>
        <pt x="1243" y="1730" on="0"/>
        <pt x="1388" y="1612" on="0"/>
        <pt x="1496" y="1425" on="0"/>
        <pt x="1559" y="1159" on="0"/>
        <pt x="1559" y="977" on="1"/>
        <pt x="1559" y="765" on="1"/>
        <pt x="1559" y="625" on="0"/>
        <pt x="1533" y="387" on="0"/>
        <pt x="1464" y="213" on="0"/>
        <pt x="1342" y="115" on="0"/>
        <pt x="1245" y="115" on="1"/>
        <pt x="1142" y="115" on="0"/>
        <pt x="1020" y="208" on="0"/>
        <pt x="992" y="308" on="1"/>
        <pt x="957" y="214" on="0"/>
        <pt x="838" y="116" on="0"/>
        <pt x="764" y="116" on="1"/>
        <pt x="738" y="116" on="0"/>
        <pt x="674" y="123" on="0"/>
        <pt x="608" y="153" on="0"/>
        <pt x="546" y="214" on="0"/>
        <pt x="498" y="320" on="0"/>
        <pt x="469" y="480" on="0"/>
        <pt x="469" y="594" on="1"/>
        <pt x="469" y="837" on="1"/>
        <pt x="469" y="940" on="0"/>
        <pt x="496" y="1089" on="0"/>
        <pt x="541" y="1191" on="0"/>
        <pt x="600" y="1254" on="0"/>
        <pt x="662" y="1288" on="0"/>
        <pt x="723" y="1299" on="0"/>
        <pt x="748" y="1299" on="1"/>
        <pt x="818" y="1299" on="0"/>
        <pt x="916" y="1228" on="0"/>
        <pt x="948" y="1175" on="1"/>
        <pt x="967" y="1284" on="1"/>
        <pt x="1163" y="1284" on="1"/>
        <pt x="1163" y="450" on="1"/>
        <pt x="1163" y="406" on="0"/>
        <pt x="1178" y="347" on="0"/>
        <pt x="1204" y="313" on="0"/>
        <pt x="1237" y="299" on="0"/>
        <pt x="1254" y="299" on="1"/>
        <pt x="1276" y="299" on="0"/>
        <pt x="1316" y="326" on="0"/>
        <pt x="1344" y="410" on="0"/>
        <pt x="1361" y="567" on="0"/>
        <pt x="1361" y="697" on="1"/>
        <pt x="1361" y="977" on="1"/>
        <pt x="1361" y="1136" on="0"/>
        <pt x="1310" y="1359" on="0"/>
        <pt x="1226" y="1508" on="0"/>
        <pt x="1116" y="1593" on="0"/>
        <pt x="997" y="1635" on="0"/>
        <pt x="877" y="1646" on="0"/>
        <pt x="825" y="1646" on="1"/>
        <pt x="772" y="1646" on="0"/>
        <pt x="652" y="1631" on="0"/>
        <pt x="532" y="1581" on="0"/>
        <pt x="422" y="1488" on="0"/>
        <pt x="338" y="1332" on="0"/>
        <pt x="287" y="1104" on="0"/>
        <pt x="287" y="945" on="1"/>
        <pt x="287" y="474" on="1"/>
        <pt x="287" y="311" on="0"/>
        <pt x="341" y="82" on="0"/>
        <pt x="432" y="-72" on="0"/>
        <pt x="553" y="-162" on="0"/>
        <pt x="685" y="-207" on="0"/>
        <pt x="822" y="-219" on="0"/>
        <pt x="884" y="-219" on="1"/>
        <pt x="913" y="-219" on="0"/>
        <pt x="985" y="-214" on="0"/>
        <pt x="1058" y="-203" on="0"/>
        <pt x="1127" y="-187" on="0"/>
        <pt x="1154" y="-176" on="1"/>
        <pt x="1154" y="-336" on="1"/>
        <pt x="1134" y="-350" on="0"/>
        <pt x="1062" y="-374" on="0"/>
        <pt x="972" y="-392" on="0"/>
        <pt x="873" y="-403" on="0"/>
        <pt x="827" y="-403" on="1"/>
        <pt x="763" y="-403" on="0"/>
        <pt x="604" y="-381" on="0"/>
        <pt x="440" y="-313" on="0"/>
        <pt x="285" y="-189" on="0"/>
        <pt x="164" y="14" on="0"/>
        <pt x="90" y="309" on="0"/>
        <pt x="90" y="513" on="1"/>
      </contour>
      <contour>
        <pt x="821" y="312" on="1"/>
        <pt x="859" y="312" on="0"/>
        <pt x="907" y="361" on="0"/>
        <pt x="923" y="395" on="1"/>
        <pt x="923" y="1017" on="1"/>
        <pt x="907" y="1055" on="0"/>
        <pt x="858" y="1106" on="0"/>
        <pt x="822" y="1106" on="1"/>
        <pt x="800" y="1106" on="0"/>
        <pt x="759" y="1088" on="0"/>
        <pt x="728" y="1036" on="0"/>
        <pt x="709" y="941" on="0"/>
        <pt x="709" y="864" on="1"/>
        <pt x="709" y="546" on="1"/>
        <pt x="709" y="472" on="0"/>
        <pt x="725" y="381" on="0"/>
        <pt x="755" y="330" on="0"/>
        <pt x="796" y="312" on="0"/>
      </contour>
    </TTGlyph>
    <TTGlyph name="atilde" xMin="50" yMin="-15" xMax="806" yMax="1943">
      <component glyphName="a" x="14" y="0" flags="0x204"/>
      <component glyphName="tilde" x="-64" y="51" flags="0x4"/>
    </TTGlyph>
    <TTGlyph name="b" xMin="130" yMin="-16" xMax="891" yMax="1819">
      <contour>
        <pt x="130" y="1819" on="1"/>
        <pt x="383" y="1819" on="1"/>
        <pt x="383" y="1452" on="1"/>
        <pt x="375" y="1270" on="1"/>
        <pt x="376" y="1269" on="1"/>
        <pt x="393" y="1293" on="0"/>
        <pt x="438" y="1337" on="0"/>
        <pt x="495" y="1372" on="0"/>
        <pt x="564" y="1392" on="0"/>
        <pt x="605" y="1392" on="1"/>
        <pt x="626" y="1392" on="0"/>
        <pt x="685" y="1384" on="0"/>
        <pt x="748" y="1352" on="0"/>
        <pt x="811" y="1289" on="0"/>
        <pt x="860" y="1179" on="0"/>
        <pt x="891" y="1015" on="0"/>
        <pt x="891" y="898" on="1"/>
        <pt x="891" y="481" on="1"/>
        <pt x="891" y="364" on="0"/>
        <pt x="860" y="200" on="0"/>
        <pt x="810" y="89" on="0"/>
        <pt x="746" y="25" on="0"/>
        <pt x="680" y="-7" on="0"/>
        <pt x="618" y="-16" on="0"/>
        <pt x="595" y="-16" on="1"/>
        <pt x="547" y="-16" on="0"/>
        <pt x="470" y="8" on="0"/>
        <pt x="411" y="49" on="0"/>
        <pt x="366" y="101" on="0"/>
        <pt x="349" y="128" on="1"/>
        <pt x="328" y="0" on="1"/>
        <pt x="130" y="0" on="1"/>
      </contour>
      <contour>
        <pt x="383" y="279" on="1"/>
        <pt x="391" y="260" on="0"/>
        <pt x="414" y="224" on="0"/>
        <pt x="444" y="197" on="0"/>
        <pt x="484" y="180" on="0"/>
        <pt x="509" y="180" on="1"/>
        <pt x="537" y="180" on="0"/>
        <pt x="583" y="201" on="0"/>
        <pt x="617" y="256" on="0"/>
        <pt x="636" y="354" on="0"/>
        <pt x="636" y="431" on="1"/>
        <pt x="636" y="958" on="1"/>
        <pt x="636" y="1035" on="0"/>
        <pt x="617" y="1132" on="0"/>
        <pt x="584" y="1188" on="0"/>
        <pt x="538" y="1208" on="0"/>
        <pt x="510" y="1208" on="1"/>
        <pt x="463" y="1208" on="0"/>
        <pt x="402" y="1153" on="0"/>
        <pt x="383" y="1115" on="1"/>
      </contour>
    </TTGlyph>
    <TTGlyph name="backslash" xMin="10" yMin="-326" xMax="542" yMax="1884">
      <contour>
        <pt x="10" y="1884" on="1"/>
        <pt x="229" y="1884" on="1"/>
        <pt x="542" y="-326" on="1"/>
        <pt x="323" y="-326" on="1"/>
      </contour>
    </TTGlyph>
    <TTGlyph name="bar" xMin="247" yMin="-326" xMax="467" yMax="1884">
      <contour>
        <pt x="247" y="1884" on="1"/>
        <pt x="467" y="1884" on="1"/>
        <pt x="467" y="-326" on="1"/>
        <pt x="247" y="-326" on="1"/>
      </contour>
    </TTGlyph>
    <TTGlyph name="braceleft" xMin="76" yMin="-256" xMax="765" yMax="1964">
      <contour>
        <pt x="284" y="551" on="1"/>
        <pt x="284" y="611" on="0"/>
        <pt x="264" y="691" on="0"/>
        <pt x="224" y="740" on="0"/>
        <pt x="166" y="762" on="0"/>
        <pt x="128" y="764" on="1"/>
        <pt x="76" y="767" on="1"/>
        <pt x="76" y="946" on="1"/>
        <pt x="127" y="949" on="1"/>
        <pt x="165" y="951" on="0"/>
        <pt x="223" y="973" on="0"/>
        <pt x="263" y="1022" on="0"/>
        <pt x="283" y="1101" on="0"/>
        <pt x="283" y="1161" on="1"/>
        <pt x="283" y="1580" on="1"/>
        <pt x="283" y="1683" on="0"/>
        <pt x="336" y="1829" on="0"/>
        <pt x="427" y="1922" on="0"/>
        <pt x="547" y="1964" on="0"/>
        <pt x="615" y="1964" on="1"/>
        <pt x="647" y="1964" on="0"/>
        <pt x="726" y="1950" on="0"/>
        <pt x="765" y="1938" on="1"/>
        <pt x="765" y="1784" on="1"/>
        <pt x="727" y="1784" on="1"/>
        <pt x="665" y="1784" on="0"/>
        <pt x="582" y="1770" on="0"/>
        <pt x="530" y="1738" on="0"/>
        <pt x="508" y="1685" on="0"/>
        <pt x="508" y="1646" on="1"/>
        <pt x="508" y="1245" on="1"/>
        <pt x="508" y="1171" on="0"/>
        <pt x="493" y="1052" on="0"/>
        <pt x="456" y="958" on="0"/>
        <pt x="393" y="890" on="0"/>
        <pt x="346" y="869" on="1"/>
        <pt x="346" y="843" on="1"/>
        <pt x="392" y="822" on="0"/>
        <pt x="454" y="754" on="0"/>
        <pt x="492" y="661" on="0"/>
        <pt x="508" y="541" on="0"/>
        <pt x="508" y="468" on="1"/>
        <pt x="508" y="63" on="1"/>
        <pt x="508" y="24" on="0"/>
        <pt x="530" y="-29" on="0"/>
        <pt x="582" y="-62" on="0"/>
        <pt x="665" y="-76" on="0"/>
        <pt x="727" y="-76" on="1"/>
        <pt x="765" y="-76" on="1"/>
        <pt x="765" y="-229" on="1"/>
        <pt x="726" y="-242" on="0"/>
        <pt x="647" y="-256" on="0"/>
        <pt x="615" y="-256" on="1"/>
        <pt x="547" y="-256" on="0"/>
        <pt x="427" y="-214" on="0"/>
        <pt x="337" y="-121" on="0"/>
        <pt x="284" y="25" on="0"/>
        <pt x="284" y="129" on="1"/>
      </contour>
    </TTGlyph>
    <TTGlyph name="braceright" xMin="131" yMin="-256" xMax="820" yMax="1964">
      <contour>
        <pt x="169" y="-76" on="1"/>
        <pt x="230" y="-76" on="0"/>
        <pt x="314" y="-62" on="0"/>
        <pt x="366" y="-29" on="0"/>
        <pt x="388" y="24" on="0"/>
        <pt x="388" y="63" on="1"/>
        <pt x="388" y="468" on="1"/>
        <pt x="388" y="541" on="0"/>
        <pt x="404" y="661" on="0"/>
        <pt x="441" y="754" on="0"/>
        <pt x="503" y="822" on="0"/>
        <pt x="549" y="843" on="1"/>
        <pt x="549" y="869" on="1"/>
        <pt x="502" y="890" on="0"/>
        <pt x="440" y="958" on="0"/>
        <pt x="403" y="1052" on="0"/>
        <pt x="388" y="1171" on="0"/>
        <pt x="388" y="1245" on="1"/>
        <pt x="388" y="1646" on="1"/>
        <pt x="388" y="1685" on="0"/>
        <pt x="366" y="1738" on="0"/>
        <pt x="314" y="1770" on="0"/>
        <pt x="230" y="1784" on="0"/>
        <pt x="169" y="1784" on="1"/>
        <pt x="131" y="1784" on="1"/>
        <pt x="131" y="1938" on="1"/>
        <pt x="170" y="1950" on="0"/>
        <pt x="248" y="1964" on="0"/>
        <pt x="281" y="1964" on="1"/>
        <pt x="348" y="1964" on="0"/>
        <pt x="469" y="1922" on="0"/>
        <pt x="560" y="1829" on="0"/>
        <pt x="613" y="1683" on="0"/>
        <pt x="613" y="1580" on="1"/>
        <pt x="613" y="1161" on="1"/>
        <pt x="613" y="1101" on="0"/>
        <pt x="633" y="1022" on="0"/>
        <pt x="673" y="973" on="0"/>
        <pt x="731" y="951" on="0"/>
        <pt x="769" y="949" on="1"/>
        <pt x="820" y="946" on="1"/>
        <pt x="820" y="767" on="1"/>
        <pt x="768" y="764" on="1"/>
        <pt x="730" y="762" on="0"/>
        <pt x="672" y="740" on="0"/>
        <pt x="632" y="691" on="0"/>
        <pt x="612" y="611" on="0"/>
        <pt x="612" y="551" on="1"/>
        <pt x="612" y="129" on="1"/>
        <pt x="612" y="25" on="0"/>
        <pt x="559" y="-121" on="0"/>
        <pt x="469" y="-214" on="0"/>
        <pt x="348" y="-256" on="0"/>
        <pt x="281" y="-256" on="1"/>
        <pt x="248" y="-256" on="0"/>
        <pt x="170" y="-242" on="0"/>
        <pt x="131" y="-229" on="1"/>
        <pt x="131" y="-76" on="1"/>
      </contour>
    </TTGlyph>
    <TTGlyph name="bracketleft" xMin="139" yMin="-256" xMax="644" yMax="1963">
      <contour>
        <pt x="139" y="1963" on="1"/>
        <pt x="644" y="1963" on="1"/>
        <pt x="644" y="1771" on="1"/>
        <pt x="361" y="1771" on="1"/>
        <pt x="361" y="-66" on="1"/>
        <pt x="644" y="-66" on="1"/>
        <pt x="644" y="-256" on="1"/>
        <pt x="139" y="-256" on="1"/>
      </contour>
    </TTGlyph>
    <TTGlyph name="bracketright" xMin="131" yMin="-256" xMax="636" yMax="1963">
      <contour>
        <pt x="415" y="-66" on="1"/>
        <pt x="415" y="1771" on="1"/>
        <pt x="131" y="1771" on="1"/>
        <pt x="131" y="1963" on="1"/>
        <pt x="636" y="1963" on="1"/>
        <pt x="636" y="-256" on="1"/>
        <pt x="131" y="-256" on="1"/>
        <pt x="131" y="-66" on="1"/>
      </contour>
    </TTGlyph>
    <TTGlyph name="brokenbar" xMin="247" yMin="-326" xMax="467" yMax="1884">
      <contour>
        <pt x="247" y="1884" on="1"/>
        <pt x="467" y="1884" on="1"/>
        <pt x="467" y="940" on="1"/>
        <pt x="247" y="940" on="1"/>
      </contour>
      <contour>
        <pt x="247" y="683" on="1"/>
        <pt x="467" y="683" on="1"/>
        <pt x="467" y="-326" on="1"/>
        <pt x="247" y="-326" on="1"/>
      </contour>
    </TTGlyph>
    <TTGlyph name="bullet" xMin="134" yMin="532" xMax="577" yMax="1008">
      <contour>
        <pt x="350" y="532" on="1"/>
        <pt x="295" y="532" on="0"/>
        <pt x="214" y="571" on="0"/>
        <pt x="160" y="636" on="0"/>
        <pt x="134" y="720" on="0"/>
        <pt x="134" y="764" on="1"/>
        <pt x="134" y="812" on="0"/>
        <pt x="160" y="900" on="0"/>
        <pt x="213" y="967" on="0"/>
        <pt x="294" y="1008" on="0"/>
        <pt x="350" y="1008" on="1"/>
        <pt x="407" y="1008" on="0"/>
        <pt x="492" y="968" on="0"/>
        <pt x="549" y="901" on="0"/>
        <pt x="577" y="812" on="0"/>
        <pt x="577" y="764" on="1"/>
        <pt x="577" y="722" on="0"/>
        <pt x="549" y="639" on="0"/>
        <pt x="492" y="573" on="0"/>
        <pt x="407" y="532" on="0"/>
      </contour>
    </TTGlyph>
    <TTGlyph name="c" xMin="94" yMin="-15" xMax="797" yMax="1393">
      <contour>
        <pt x="451" y="-15" on="1"/>
        <pt x="277" y="-15" on="0"/>
        <pt x="94" y="271" on="0"/>
        <pt x="94" y="564" on="1"/>
        <pt x="94" y="824" on="1"/>
        <pt x="94" y="955" on="0"/>
        <pt x="132" y="1142" on="0"/>
        <pt x="195" y="1269" on="0"/>
        <pt x="276" y="1343" on="0"/>
        <pt x="362" y="1382" on="0"/>
        <pt x="446" y="1393" on="0"/>
        <pt x="481" y="1393" on="1"/>
        <pt x="551" y="1393" on="0"/>
        <pt x="667" y="1356" on="0"/>
        <pt x="751" y="1281" on="0"/>
        <pt x="797" y="1167" on="0"/>
        <pt x="797" y="1090" on="1"/>
        <pt x="797" y="1042" on="0"/>
        <pt x="788" y="973" on="0"/>
        <pt x="780" y="941" on="1"/>
        <pt x="578" y="941" on="1"/>
        <pt x="578" y="987" on="1"/>
        <pt x="578" y="1091" on="0"/>
        <pt x="529" y="1208" on="0"/>
        <pt x="473" y="1208" on="1"/>
        <pt x="442" y="1208" on="0"/>
        <pt x="396" y="1179" on="0"/>
        <pt x="365" y="1109" on="0"/>
        <pt x="350" y="991" on="0"/>
        <pt x="350" y="902" on="1"/>
        <pt x="350" y="511" on="1"/>
        <pt x="350" y="421" on="0"/>
        <pt x="362" y="295" on="0"/>
        <pt x="392" y="216" on="0"/>
        <pt x="442" y="180" on="0"/>
        <pt x="479" y="180" on="1"/>
        <pt x="498" y="180" on="0"/>
        <pt x="534" y="199" on="0"/>
        <pt x="561" y="243" on="0"/>
        <pt x="578" y="316" on="0"/>
        <pt x="578" y="370" on="1"/>
        <pt x="578" y="413" on="1"/>
        <pt x="796" y="413" on="1"/>
        <pt x="796" y="360" on="1"/>
        <pt x="796" y="164" on="0"/>
        <pt x="623" y="-15" on="0"/>
      </contour>
    </TTGlyph>
    <TTGlyph name="caron" xMin="114" yMin="1485" xMax="834" yMax="2066">
      <contour>
        <pt x="384" y="1485" on="1"/>
        <pt x="114" y="2066" on="1"/>
        <pt x="332" y="2066" on="1"/>
        <pt x="426" y="1854" on="1"/>
        <pt x="476" y="1683" on="1"/>
        <pt x="527" y="1854" on="1"/>
        <pt x="615" y="2066" on="1"/>
        <pt x="834" y="2066" on="1"/>
        <pt x="558" y="1485" on="1"/>
      </contour>
    </TTGlyph>
    <TTGlyph name="caron.cap" xMin="114" yMin="1756" xMax="844" yMax="2066">
      <contour>
        <pt x="364" y="1756" on="1"/>
        <pt x="114" y="2066" on="1"/>
        <pt x="362" y="2066" on="1"/>
        <pt x="446" y="1936" on="1"/>
        <pt x="486" y="1880" on="1"/>
        <pt x="526" y="1936" on="1"/>
        <pt x="595" y="2066" on="1"/>
        <pt x="844" y="2066" on="1"/>
        <pt x="598" y="1756" on="1"/>
      </contour>
    </TTGlyph>
    <TTGlyph name="ccedilla" xMin="94" yMin="-414" xMax="797" yMax="1393">
      <component glyphName="c" x="0" y="0" flags="0x204"/>
      <component glyphName="cedilla" x="71" y="5" flags="0x4"/>
    </TTGlyph>
    <TTGlyph name="cedilla" xMin="114" yMin="-419" xMax="482" yMax="136">
      <contour>
        <pt x="478" y="-104" on="1"/>
        <pt x="482" y="-175" on="0"/>
        <pt x="463" y="-277" on="0"/>
        <pt x="426" y="-347" on="0"/>
        <pt x="377" y="-389" on="0"/>
        <pt x="327" y="-412" on="0"/>
        <pt x="281" y="-419" on="0"/>
        <pt x="265" y="-419" on="1"/>
        <pt x="223" y="-419" on="0"/>
        <pt x="156" y="-405" on="0"/>
        <pt x="114" y="-389" on="1"/>
        <pt x="121" y="-238" on="1"/>
        <pt x="129" y="-239" on="0"/>
        <pt x="146" y="-239" on="0"/>
        <pt x="154" y="-239" on="1"/>
        <pt x="188" y="-239" on="0"/>
        <pt x="242" y="-225" on="0"/>
        <pt x="282" y="-186" on="0"/>
        <pt x="305" y="-114" on="0"/>
        <pt x="308" y="-56" on="1"/>
        <pt x="310" y="-12" on="1"/>
        <pt x="403" y="136" on="1"/>
        <pt x="472" y="-1" on="1"/>
      </contour>
    </TTGlyph>
    <TTGlyph name="cent" xMin="113" yMin="-258" xMax="814" yMax="1623">
      <contour>
        <pt x="395" y="-8" on="1"/>
        <pt x="326" y="5" on="0"/>
        <pt x="221" y="84" on="0"/>
        <pt x="149" y="224" on="0"/>
        <pt x="113" y="427" on="0"/>
        <pt x="113" y="564" on="1"/>
        <pt x="113" y="824" on="1"/>
        <pt x="113" y="926" on="0"/>
        <pt x="136" y="1083" on="0"/>
        <pt x="177" y="1202" on="0"/>
        <pt x="231" y="1285" on="0"/>
        <pt x="294" y="1341" on="0"/>
        <pt x="361" y="1373" on="0"/>
        <pt x="394" y="1381" on="1"/>
        <pt x="394" y="1623" on="1"/>
        <pt x="580" y="1623" on="1"/>
        <pt x="580" y="1386" on="1"/>
        <pt x="633" y="1377" on="0"/>
        <pt x="720" y="1331" on="0"/>
        <pt x="781" y="1257" on="0"/>
        <pt x="814" y="1156" on="0"/>
        <pt x="814" y="1090" on="1"/>
        <pt x="814" y="1042" on="0"/>
        <pt x="805" y="973" on="0"/>
        <pt x="797" y="941" on="1"/>
        <pt x="605" y="941" on="1"/>
        <pt x="605" y="987" on="1"/>
        <pt x="605" y="1091" on="0"/>
        <pt x="548" y="1208" on="0"/>
        <pt x="492" y="1208" on="1"/>
        <pt x="461" y="1208" on="0"/>
        <pt x="414" y="1177" on="0"/>
        <pt x="383" y="1104" on="0"/>
        <pt x="367" y="984" on="0"/>
        <pt x="367" y="895" on="1"/>
        <pt x="367" y="501" on="1"/>
        <pt x="367" y="411" on="0"/>
        <pt x="380" y="288" on="0"/>
        <pt x="411" y="213" on="0"/>
        <pt x="461" y="180" on="0"/>
        <pt x="498" y="180" on="1"/>
        <pt x="517" y="180" on="0"/>
        <pt x="555" y="199" on="0"/>
        <pt x="586" y="243" on="0"/>
        <pt x="605" y="316" on="0"/>
        <pt x="605" y="370" on="1"/>
        <pt x="605" y="423" on="1"/>
        <pt x="810" y="423" on="1"/>
        <pt x="810" y="360" on="1"/>
        <pt x="810" y="198" on="0"/>
        <pt x="697" y="22" on="0"/>
        <pt x="581" y="-4" on="1"/>
        <pt x="581" y="-258" on="1"/>
        <pt x="395" y="-258" on="1"/>
        <pt x="395" y="-8" on="1"/>
      </contour>
    </TTGlyph>
    <TTGlyph name="circumflex" xMin="114" yMin="1485" xMax="834" yMax="2066">
      <contour>
        <pt x="527" y="1697" on="1"/>
        <pt x="476" y="1869" on="1"/>
        <pt x="426" y="1697" on="1"/>
        <pt x="332" y="1485" on="1"/>
        <pt x="114" y="1485" on="1"/>
        <pt x="384" y="2066" on="1"/>
        <pt x="558" y="2066" on="1"/>
        <pt x="834" y="1485" on="1"/>
        <pt x="615" y="1485" on="1"/>
      </contour>
    </TTGlyph>
    <TTGlyph name="circumflex.cap" xMin="114" yMin="1756" xMax="844" yMax="2066">
      <contour>
        <pt x="526" y="1886" on="1"/>
        <pt x="486" y="1942" on="1"/>
        <pt x="446" y="1886" on="1"/>
        <pt x="362" y="1756" on="1"/>
        <pt x="114" y="1756" on="1"/>
        <pt x="364" y="2066" on="1"/>
        <pt x="598" y="2066" on="1"/>
        <pt x="844" y="1756" on="1"/>
        <pt x="595" y="1756" on="1"/>
      </contour>
    </TTGlyph>
    <TTGlyph name="colon" xMin="91" yMin="-14" xMax="404" yMax="1349">
      <component glyphName="period" x="0" y="972" flags="0x204"/>
      <component glyphName="period" x="0" y="0" flags="0x4"/>
    </TTGlyph>
    <TTGlyph name="comma" xMin="55" yMin="-327" xMax="412" yMax="350">
      <contour>
        <pt x="155" y="350" on="1"/>
        <pt x="412" y="350" on="1"/>
        <pt x="266" y="-327" on="1"/>
        <pt x="55" y="-327" on="1"/>
      </contour>
    </TTGlyph>
    <TTGlyph name="commaaccent" xMin="114" yMin="-457" xMax="417" yMax="-23">
      <contour>
        <pt x="417" y="-23" on="1"/>
        <pt x="309" y="-457" on="1"/>
        <pt x="114" y="-457" on="1"/>
        <pt x="176" y="-23" on="1"/>
      </contour>
    </TTGlyph>
    <TTGlyph name="copyright" xMin="104" yMin="-15" xMax="1354" yMax="1740">
      <contour>
        <pt x="104" y="1030" on="1"/>
        <pt x="104" y="1185" on="0"/>
        <pt x="164" y="1411" on="0"/>
        <pt x="263" y="1569" on="0"/>
        <pt x="393" y="1667" on="0"/>
        <pt x="532" y="1721" on="0"/>
        <pt x="672" y="1740" on="0"/>
        <pt x="732" y="1740" on="1"/>
        <pt x="790" y="1740" on="0"/>
        <pt x="927" y="1722" on="0"/>
        <pt x="1065" y="1670" on="0"/>
        <pt x="1195" y="1573" on="0"/>
        <pt x="1294" y="1415" on="0"/>
        <pt x="1354" y="1187" on="0"/>
        <pt x="1354" y="1030" on="1"/>
        <pt x="1354" y="694" on="1"/>
        <pt x="1354" y="537" on="0"/>
        <pt x="1294" y="309" on="0"/>
        <pt x="1194" y="151" on="0"/>
        <pt x="1064" y="55" on="0"/>
        <pt x="926" y="3" on="0"/>
        <pt x="788" y="-15" on="0"/>
        <pt x="730" y="-15" on="1"/>
        <pt x="670" y="-15" on="0"/>
        <pt x="531" y="4" on="0"/>
        <pt x="391" y="58" on="0"/>
        <pt x="263" y="155" on="0"/>
        <pt x="163" y="313" on="0"/>
        <pt x="104" y="539" on="0"/>
        <pt x="104" y="694" on="1"/>
      </contour>
      <contour>
        <pt x="260" y="670" on="1"/>
        <pt x="260" y="547" on="0"/>
        <pt x="304" y="370" on="0"/>
        <pt x="378" y="248" on="0"/>
        <pt x="474" y="173" on="0"/>
        <pt x="579" y="133" on="0"/>
        <pt x="684" y="120" on="0"/>
        <pt x="730" y="120" on="1"/>
        <pt x="774" y="120" on="0"/>
        <pt x="878" y="132" on="0"/>
        <pt x="983" y="171" on="0"/>
        <pt x="1079" y="245" on="0"/>
        <pt x="1154" y="367" on="0"/>
        <pt x="1199" y="545" on="0"/>
        <pt x="1200" y="670" on="1"/>
        <pt x="1200" y="1054" on="1"/>
        <pt x="1200" y="1179" on="0"/>
        <pt x="1155" y="1357" on="0"/>
        <pt x="1081" y="1479" on="0"/>
        <pt x="984" y="1553" on="0"/>
        <pt x="880" y="1592" on="0"/>
        <pt x="776" y="1604" on="0"/>
        <pt x="732" y="1604" on="1"/>
        <pt x="686" y="1604" on="0"/>
        <pt x="580" y="1591" on="0"/>
        <pt x="475" y="1551" on="0"/>
        <pt x="379" y="1476" on="0"/>
        <pt x="304" y="1354" on="0"/>
        <pt x="260" y="1177" on="0"/>
        <pt x="260" y="1054" on="1"/>
      </contour>
      <contour>
        <pt x="756" y="292" on="1"/>
        <pt x="724" y="292" on="0"/>
        <pt x="649" y="302" on="0"/>
        <pt x="575" y="335" on="0"/>
        <pt x="506" y="394" on="0"/>
        <pt x="453" y="493" on="0"/>
        <pt x="421" y="636" on="0"/>
        <pt x="421" y="736" on="1"/>
        <pt x="421" y="993" on="1"/>
        <pt x="421" y="1093" on="0"/>
        <pt x="454" y="1236" on="0"/>
        <pt x="507" y="1333" on="0"/>
        <pt x="577" y="1390" on="0"/>
        <pt x="651" y="1421" on="0"/>
        <pt x="724" y="1430" on="0"/>
        <pt x="755" y="1430" on="1"/>
        <pt x="834" y="1430" on="0"/>
        <pt x="941" y="1383" on="0"/>
        <pt x="1006" y="1310" on="0"/>
        <pt x="1034" y="1221" on="0"/>
        <pt x="1034" y="1179" on="1"/>
        <pt x="1034" y="1136" on="0"/>
        <pt x="1024" y="1064" on="0"/>
        <pt x="1016" y="1020" on="1"/>
        <pt x="852" y="1020" on="1"/>
        <pt x="852" y="1076" on="1"/>
        <pt x="852" y="1169" on="0"/>
        <pt x="800" y="1263" on="0"/>
        <pt x="750" y="1263" on="1"/>
        <pt x="723" y="1263" on="0"/>
        <pt x="680" y="1241" on="0"/>
        <pt x="652" y="1190" on="0"/>
        <pt x="637" y="1104" on="0"/>
        <pt x="637" y="1040" on="1"/>
        <pt x="637" y="673" on="1"/>
        <pt x="637" y="611" on="0"/>
        <pt x="652" y="529" on="0"/>
        <pt x="681" y="479" on="0"/>
        <pt x="726" y="459" on="0"/>
        <pt x="756" y="459" on="1"/>
        <pt x="798" y="459" on="0"/>
        <pt x="853" y="531" on="0"/>
        <pt x="853" y="611" on="1"/>
        <pt x="853" y="696" on="1"/>
        <pt x="1038" y="696" on="1"/>
        <pt x="1038" y="622" on="1"/>
        <pt x="1038" y="461" on="0"/>
        <pt x="893" y="293" on="0"/>
      </contour>
    </TTGlyph>
    <TTGlyph name="currency" xMin="116" yMin="358" xMax="1171" yMax="1375">
      <contour>
        <pt x="116" y="513" on="1"/>
        <pt x="297" y="674" on="1"/>
        <pt x="279" y="717" on="0"/>
        <pt x="261" y="810" on="0"/>
        <pt x="261" y="858" on="1"/>
        <pt x="261" y="965" on="0"/>
        <pt x="299" y="1056" on="1"/>
        <pt x="116" y="1220" on="1"/>
        <pt x="254" y="1375" on="1"/>
        <pt x="429" y="1213" on="1"/>
        <pt x="469" y="1238" on="0"/>
        <pt x="568" y="1265" on="0"/>
        <pt x="628" y="1265" on="1"/>
        <pt x="694" y="1265" on="0"/>
        <pt x="803" y="1233" on="0"/>
        <pt x="847" y="1204" on="1"/>
        <pt x="1032" y="1375" on="1"/>
        <pt x="1171" y="1220" on="1"/>
        <pt x="974" y="1045" on="1"/>
        <pt x="1010" y="961" on="0"/>
        <pt x="1010" y="858" on="1"/>
        <pt x="1010" y="769" on="0"/>
        <pt x="975" y="687" on="1"/>
        <pt x="1171" y="513" on="1"/>
        <pt x="1032" y="358" on="1"/>
        <pt x="848" y="528" on="1"/>
        <pt x="804" y="498" on="0"/>
        <pt x="695" y="464" on="0"/>
        <pt x="628" y="464" on="1"/>
        <pt x="568" y="464" on="0"/>
        <pt x="468" y="492" on="0"/>
        <pt x="427" y="518" on="1"/>
        <pt x="254" y="358" on="1"/>
      </contour>
      <contour>
        <pt x="628" y="691" on="1"/>
        <pt x="669" y="691" on="0"/>
        <pt x="731" y="720" on="0"/>
        <pt x="772" y="767" on="0"/>
        <pt x="792" y="825" on="0"/>
        <pt x="792" y="855" on="1"/>
        <pt x="792" y="892" on="0"/>
        <pt x="772" y="959" on="0"/>
        <pt x="731" y="1009" on="0"/>
        <pt x="669" y="1039" on="0"/>
        <pt x="628" y="1039" on="1"/>
        <pt x="591" y="1039" on="0"/>
        <pt x="538" y="1009" on="0"/>
        <pt x="503" y="958" on="0"/>
        <pt x="486" y="891" on="0"/>
        <pt x="486" y="855" on="1"/>
        <pt x="486" y="824" on="0"/>
        <pt x="503" y="765" on="0"/>
        <pt x="539" y="719" on="0"/>
        <pt x="592" y="691" on="0"/>
      </contour>
    </TTGlyph>
    <TTGlyph name="d" xMin="98" yMin="-16" xMax="858" yMax="1819">
      <contour>
        <pt x="394" y="-16" on="1"/>
        <pt x="371" y="-16" on="0"/>
        <pt x="309" y="-7" on="0"/>
        <pt x="243" y="25" on="0"/>
        <pt x="179" y="89" on="0"/>
        <pt x="129" y="200" on="0"/>
        <pt x="98" y="364" on="0"/>
        <pt x="98" y="481" on="1"/>
        <pt x="98" y="918" on="1"/>
        <pt x="98" y="1034" on="0"/>
        <pt x="131" y="1194" on="0"/>
        <pt x="185" y="1299" on="0"/>
        <pt x="252" y="1358" on="0"/>
        <pt x="319" y="1386" on="0"/>
        <pt x="380" y="1392" on="0"/>
        <pt x="400" y="1392" on="1"/>
        <pt x="437" y="1392" on="0"/>
        <pt x="503" y="1372" on="0"/>
        <pt x="557" y="1339" on="0"/>
        <pt x="599" y="1298" on="0"/>
        <pt x="613" y="1277" on="1"/>
        <pt x="614" y="1278" on="1"/>
        <pt x="606" y="1452" on="1"/>
        <pt x="606" y="1819" on="1"/>
        <pt x="858" y="1819" on="1"/>
        <pt x="858" y="0" on="1"/>
        <pt x="661" y="0" on="1"/>
        <pt x="639" y="128" on="1"/>
        <pt x="622" y="101" on="0"/>
        <pt x="578" y="49" on="0"/>
        <pt x="518" y="8" on="0"/>
        <pt x="442" y="-16" on="0"/>
      </contour>
      <contour>
        <pt x="480" y="180" on="1"/>
        <pt x="505" y="180" on="0"/>
        <pt x="544" y="197" on="0"/>
        <pt x="575" y="224" on="0"/>
        <pt x="598" y="260" on="0"/>
        <pt x="606" y="279" on="1"/>
        <pt x="606" y="1107" on="1"/>
        <pt x="587" y="1149" on="0"/>
        <pt x="524" y="1208" on="0"/>
        <pt x="479" y="1208" on="1"/>
        <pt x="451" y="1208" on="0"/>
        <pt x="405" y="1188" on="0"/>
        <pt x="371" y="1133" on="0"/>
        <pt x="352" y="1036" on="0"/>
        <pt x="352" y="959" on="1"/>
        <pt x="352" y="431" on="1"/>
        <pt x="352" y="354" on="0"/>
        <pt x="371" y="256" on="0"/>
        <pt x="405" y="201" on="0"/>
        <pt x="452" y="180" on="0"/>
      </contour>
    </TTGlyph>
    <TTGlyph name="dagger" xMin="-146" yMin="-323" xMax="599" yMax="1865">
      <contour>
        <pt x="116" y="1155" on="1"/>
        <pt x="-146" y="1155" on="1"/>
        <pt x="-146" y="1356" on="1"/>
        <pt x="116" y="1356" on="1"/>
        <pt x="116" y="1865" on="1"/>
        <pt x="336" y="1865" on="1"/>
        <pt x="336" y="1356" on="1"/>
        <pt x="599" y="1356" on="1"/>
        <pt x="599" y="1155" on="1"/>
        <pt x="336" y="1155" on="1"/>
        <pt x="336" y="-323" on="1"/>
        <pt x="116" y="-323" on="1"/>
      </contour>
    </TTGlyph>
    <TTGlyph name="daggerdbl" xMin="-146" yMin="-323" xMax="598" yMax="1865">
      <contour>
        <pt x="116" y="628" on="1"/>
        <pt x="-146" y="628" on="1"/>
        <pt x="-146" y="829" on="1"/>
        <pt x="116" y="829" on="1"/>
        <pt x="116" y="1155" on="1"/>
        <pt x="-146" y="1155" on="1"/>
        <pt x="-146" y="1356" on="1"/>
        <pt x="116" y="1356" on="1"/>
        <pt x="116" y="1865" on="1"/>
        <pt x="336" y="1865" on="1"/>
        <pt x="336" y="1356" on="1"/>
        <pt x="598" y="1356" on="1"/>
        <pt x="598" y="1155" on="1"/>
        <pt x="336" y="1155" on="1"/>
        <pt x="336" y="829" on="1"/>
        <pt x="598" y="829" on="1"/>
        <pt x="598" y="628" on="1"/>
        <pt x="336" y="628" on="1"/>
        <pt x="336" y="-323" on="1"/>
        <pt x="116" y="-323" on="1"/>
      </contour>
    </TTGlyph>
    <TTGlyph name="degree" xMin="106" yMin="1072" xMax="783" yMax="1795">
      <contour>
        <pt x="439" y="1072" on="1"/>
        <pt x="355" y="1072" on="0"/>
        <pt x="229" y="1132" on="0"/>
        <pt x="147" y="1232" on="0"/>
        <pt x="106" y="1360" on="0"/>
        <pt x="106" y="1428" on="1"/>
        <pt x="106" y="1499" on="0"/>
        <pt x="145" y="1632" on="0"/>
        <pt x="227" y="1734" on="0"/>
        <pt x="353" y="1795" on="0"/>
        <pt x="439" y="1795" on="1"/>
        <pt x="525" y="1795" on="0"/>
        <pt x="654" y="1735" on="0"/>
        <pt x="740" y="1633" on="0"/>
        <pt x="783" y="1500" on="0"/>
        <pt x="783" y="1428" on="1"/>
        <pt x="783" y="1363" on="0"/>
        <pt x="740" y="1236" on="0"/>
        <pt x="654" y="1135" on="0"/>
        <pt x="525" y="1072" on="0"/>
      </contour>
      <contour>
        <pt x="436" y="1265" on="1"/>
        <pt x="473" y="1265" on="0"/>
        <pt x="528" y="1293" on="0"/>
        <pt x="565" y="1338" on="0"/>
        <pt x="583" y="1396" on="0"/>
        <pt x="583" y="1425" on="1"/>
        <pt x="583" y="1460" on="0"/>
        <pt x="565" y="1524" on="0"/>
        <pt x="528" y="1573" on="0"/>
        <pt x="473" y="1602" on="0"/>
        <pt x="436" y="1602" on="1"/>
        <pt x="402" y="1602" on="0"/>
        <pt x="353" y="1573" on="0"/>
        <pt x="321" y="1523" on="0"/>
        <pt x="306" y="1459" on="0"/>
        <pt x="306" y="1425" on="1"/>
        <pt x="306" y="1394" on="0"/>
        <pt x="322" y="1337" on="0"/>
        <pt x="354" y="1292" on="0"/>
        <pt x="403" y="1265" on="0"/>
      </contour>
    </TTGlyph>
    <TTGlyph name="dieresis" xMin="114" yMin="1566" xMax="834" yMax="1899">
      <contour>
        <pt x="688" y="1566" on="1"/>
        <pt x="610" y="1566" on="0"/>
        <pt x="552" y="1647" on="0"/>
        <pt x="552" y="1728" on="1"/>
        <pt x="552" y="1771" on="0"/>
        <pt x="565" y="1835" on="0"/>
        <pt x="596" y="1878" on="0"/>
        <pt x="648" y="1899" on="0"/>
        <pt x="688" y="1899" on="1"/>
        <pt x="770" y="1899" on="0"/>
        <pt x="834" y="1816" on="0"/>
        <pt x="834" y="1728" on="1"/>
        <pt x="834" y="1651" on="0"/>
        <pt x="770" y="1566" on="0"/>
      </contour>
      <contour>
        <pt x="251" y="1566" on="1"/>
        <pt x="173" y="1566" on="0"/>
        <pt x="114" y="1647" on="0"/>
        <pt x="114" y="1728" on="1"/>
        <pt x="114" y="1771" on="0"/>
        <pt x="127" y="1835" on="0"/>
        <pt x="158" y="1878" on="0"/>
        <pt x="211" y="1899" on="0"/>
        <pt x="251" y="1899" on="1"/>
        <pt x="333" y="1899" on="0"/>
        <pt x="396" y="1816" on="0"/>
        <pt x="396" y="1728" on="1"/>
        <pt x="396" y="1651" on="0"/>
        <pt x="333" y="1566" on="0"/>
      </contour>
    </TTGlyph>
    <TTGlyph name="dieresis.cap" xMin="114" yMin="1751" xMax="834" yMax="2066">
      <contour>
        <pt x="688" y="1751" on="1"/>
        <pt x="610" y="1751" on="0"/>
        <pt x="552" y="1834" on="0"/>
        <pt x="552" y="1909" on="1"/>
        <pt x="552" y="1948" on="0"/>
        <pt x="565" y="2007" on="0"/>
        <pt x="596" y="2046" on="0"/>
        <pt x="648" y="2066" on="0"/>
        <pt x="688" y="2066" on="1"/>
        <pt x="770" y="2066" on="0"/>
        <pt x="834" y="1990" on="0"/>
        <pt x="834" y="1909" on="1"/>
        <pt x="834" y="1873" on="0"/>
        <pt x="819" y="1815" on="0"/>
        <pt x="785" y="1773" on="0"/>
        <pt x="729" y="1751" on="0"/>
      </contour>
      <contour>
        <pt x="251" y="1751" on="1"/>
        <pt x="173" y="1751" on="0"/>
        <pt x="114" y="1834" on="0"/>
        <pt x="114" y="1909" on="1"/>
        <pt x="114" y="1948" on="0"/>
        <pt x="127" y="2007" on="0"/>
        <pt x="158" y="2046" on="0"/>
        <pt x="211" y="2066" on="0"/>
        <pt x="251" y="2066" on="1"/>
        <pt x="333" y="2066" on="0"/>
        <pt x="396" y="1990" on="0"/>
        <pt x="396" y="1909" on="1"/>
        <pt x="396" y="1873" on="0"/>
        <pt x="381" y="1815" on="0"/>
        <pt x="347" y="1773" on="0"/>
        <pt x="292" y="1751" on="0"/>
      </contour>
    </TTGlyph>
    <TTGlyph name="divide" xMin="45" yMin="215" xMax="790" yMax="1363">
      <contour>
        <pt x="418" y="1043" on="1"/>
        <pt x="358" y="1043" on="0"/>
        <pt x="283" y="1127" on="0"/>
        <pt x="283" y="1205" on="1"/>
        <pt x="283" y="1292" on="0"/>
        <pt x="357" y="1363" on="0"/>
        <pt x="419" y="1363" on="1"/>
        <pt x="482" y="1363" on="0"/>
        <pt x="547" y="1286" on="0"/>
        <pt x="547" y="1205" on="1"/>
        <pt x="547" y="1130" on="0"/>
        <pt x="481" y="1043" on="0"/>
      </contour>
      <contour>
        <pt x="45" y="887" on="1"/>
        <pt x="790" y="887" on="1"/>
        <pt x="790" y="691" on="1"/>
        <pt x="45" y="691" on="1"/>
      </contour>
      <contour>
        <pt x="417" y="215" on="1"/>
        <pt x="357" y="215" on="0"/>
        <pt x="282" y="299" on="0"/>
        <pt x="282" y="377" on="1"/>
        <pt x="282" y="464" on="0"/>
        <pt x="356" y="535" on="0"/>
        <pt x="418" y="535" on="1"/>
        <pt x="481" y="535" on="0"/>
        <pt x="546" y="458" on="0"/>
        <pt x="546" y="377" on="1"/>
        <pt x="546" y="302" on="0"/>
        <pt x="480" y="215" on="0"/>
      </contour>
    </TTGlyph>
    <TTGlyph name="dollar" xMin="97" yMin="-255" xMax="908" yMax="1944">
      <contour>
        <pt x="97" y="346" on="1"/>
        <pt x="97" y="401" on="0"/>
        <pt x="110" y="494" on="0"/>
        <pt x="123" y="548" on="1"/>
        <pt x="324" y="548" on="1"/>
        <pt x="324" y="466" on="1"/>
        <pt x="324" y="327" on="0"/>
        <pt x="408" y="181" on="0"/>
        <pt x="495" y="181" on="1"/>
        <pt x="569" y="181" on="0"/>
        <pt x="642" y="256" on="0"/>
        <pt x="642" y="328" on="1"/>
        <pt x="642" y="356" on="0"/>
        <pt x="631" y="417" on="0"/>
        <pt x="604" y="485" on="0"/>
        <pt x="558" y="563" on="0"/>
        <pt x="522" y="608" on="1"/>
        <pt x="259" y="947" on="1"/>
        <pt x="188" y="1038" on="0"/>
        <pt x="108" y="1223" on="0"/>
        <pt x="108" y="1336" on="1"/>
        <pt x="108" y="1411" on="0"/>
        <pt x="151" y="1540" on="0"/>
        <pt x="232" y="1639" on="0"/>
        <pt x="349" y="1704" on="0"/>
        <pt x="424" y="1716" on="1"/>
        <pt x="424" y="1944" on="1"/>
        <pt x="610" y="1944" on="1"/>
        <pt x="610" y="1714" on="1"/>
        <pt x="692" y="1700" on="0"/>
        <pt x="803" y="1628" on="0"/>
        <pt x="871" y="1531" on="0"/>
        <pt x="900" y="1418" on="0"/>
        <pt x="900" y="1361" on="1"/>
        <pt x="900" y="1306" on="0"/>
        <pt x="884" y="1213" on="0"/>
        <pt x="873" y="1157" on="1"/>
        <pt x="673" y="1157" on="1"/>
        <pt x="673" y="1239" on="1"/>
        <pt x="673" y="1375" on="0"/>
        <pt x="587" y="1520" on="0"/>
        <pt x="506" y="1520" on="1"/>
        <pt x="433" y="1520" on="0"/>
        <pt x="358" y="1439" on="0"/>
        <pt x="358" y="1371" on="1"/>
        <pt x="358" y="1313" on="0"/>
        <pt x="405" y="1218" on="0"/>
        <pt x="443" y="1168" on="1"/>
        <pt x="738" y="786" on="1"/>
        <pt x="779" y="732" on="0"/>
        <pt x="843" y="632" on="0"/>
        <pt x="886" y="532" on="0"/>
        <pt x="908" y="427" on="0"/>
        <pt x="908" y="368" on="1"/>
        <pt x="908" y="294" on="0"/>
        <pt x="867" y="170" on="0"/>
        <pt x="790" y="74" on="0"/>
        <pt x="680" y="10" on="0"/>
        <pt x="611" y="-4" on="1"/>
        <pt x="611" y="-255" on="1"/>
        <pt x="425" y="-255" on="1"/>
        <pt x="425" y="-12" on="1"/>
        <pt x="330" y="-3" on="0"/>
        <pt x="204" y="65" on="0"/>
        <pt x="129" y="163" on="0"/>
        <pt x="97" y="283" on="0"/>
      </contour>
    </TTGlyph>
    <TTGlyph name="dotaccent" xMin="114" yMin="1574" xMax="419" yMax="1899">
      <contour>
        <pt x="265" y="1574" on="1"/>
        <pt x="195" y="1574" on="0"/>
        <pt x="114" y="1658" on="0"/>
        <pt x="114" y="1739" on="1"/>
        <pt x="114" y="1784" on="0"/>
        <pt x="135" y="1845" on="0"/>
        <pt x="174" y="1882" on="0"/>
        <pt x="230" y="1899" on="0"/>
        <pt x="266" y="1899" on="1"/>
        <pt x="341" y="1899" on="0"/>
        <pt x="419" y="1823" on="0"/>
        <pt x="419" y="1739" on="1"/>
        <pt x="419" y="1661" on="0"/>
        <pt x="340" y="1574" on="0"/>
      </contour>
    </TTGlyph>
    <TTGlyph name="dotlessi" xMin="134" yMin="0" xMax="387" yMax="1377">
      <contour>
        <pt x="134" y="1377" on="1"/>
        <pt x="387" y="1377" on="1"/>
        <pt x="387" y="0" on="1"/>
        <pt x="134" y="0" on="1"/>
      </contour>
    </TTGlyph>
    <TTGlyph name="dotlessj" xMin="-7" yMin="-444" xMax="387" yMax="1377">
      <contour>
        <pt x="134" y="1377" on="1"/>
        <pt x="387" y="1377" on="1"/>
        <pt x="387" y="-84" on="1"/>
        <pt x="387" y="-197" on="0"/>
        <pt x="342" y="-337" on="0"/>
        <pt x="266" y="-416" on="0"/>
        <pt x="168" y="-444" on="0"/>
        <pt x="115" y="-444" on="1"/>
        <pt x="85" y="-444" on="0"/>
        <pt x="23" y="-434" on="0"/>
        <pt x="-7" y="-420" on="1"/>
        <pt x="-7" y="-273" on="1"/>
        <pt x="1" y="-274" on="0"/>
        <pt x="17" y="-275" on="0"/>
        <pt x="25" y="-275" on="1"/>
        <pt x="47" y="-275" on="0"/>
        <pt x="87" y="-259" on="0"/>
        <pt x="117" y="-222" on="0"/>
        <pt x="134" y="-161" on="0"/>
        <pt x="134" y="-116" on="1"/>
      </contour>
    </TTGlyph>
    <TTGlyph name="e" xMin="94" yMin="-15" xMax="838" yMax="1393">
      <contour>
        <pt x="462" y="-15" on="1"/>
        <pt x="373" y="-15" on="0"/>
        <pt x="236" y="51" on="0"/>
        <pt x="142" y="191" on="0"/>
        <pt x="94" y="410" on="0"/>
        <pt x="94" y="564" on="1"/>
        <pt x="94" y="824" on="1"/>
        <pt x="94" y="955" on="0"/>
        <pt x="133" y="1142" on="0"/>
        <pt x="196" y="1269" on="0"/>
        <pt x="279" y="1343" on="0"/>
        <pt x="367" y="1382" on="0"/>
        <pt x="454" y="1393" on="0"/>
        <pt x="491" y="1393" on="1"/>
        <pt x="559" y="1393" on="0"/>
        <pt x="685" y="1352" on="0"/>
        <pt x="781" y="1253" on="0"/>
        <pt x="838" y="1087" on="0"/>
        <pt x="838" y="963" on="1"/>
        <pt x="838" y="921" on="0"/>
        <pt x="833" y="835" on="0"/>
        <pt x="825" y="752" on="0"/>
        <pt x="812" y="674" on="0"/>
        <pt x="805" y="641" on="1"/>
        <pt x="348" y="641" on="1"/>
        <pt x="348" y="501" on="1"/>
        <pt x="348" y="411" on="0"/>
        <pt x="362" y="288" on="0"/>
        <pt x="395" y="213" on="0"/>
        <pt x="452" y="180" on="0"/>
        <pt x="495" y="180" on="1"/>
        <pt x="518" y="180" on="0"/>
        <pt x="562" y="199" on="0"/>
        <pt x="595" y="243" on="0"/>
        <pt x="615" y="316" on="0"/>
        <pt x="615" y="370" on="1"/>
        <pt x="615" y="413" on="1"/>
        <pt x="826" y="413" on="1"/>
        <pt x="826" y="360" on="1"/>
        <pt x="826" y="164" on="0"/>
        <pt x="639" y="-15" on="0"/>
      </contour>
      <contour>
        <pt x="602" y="811" on="1"/>
        <pt x="603" y="822" on="0"/>
        <pt x="605" y="859" on="0"/>
        <pt x="606" y="899" on="0"/>
        <pt x="606" y="938" on="0"/>
        <pt x="606" y="952" on="1"/>
        <pt x="606" y="1088" on="0"/>
        <pt x="542" y="1208" on="0"/>
        <pt x="479" y="1208" on="1"/>
        <pt x="446" y="1208" on="0"/>
        <pt x="396" y="1177" on="0"/>
        <pt x="364" y="1104" on="0"/>
        <pt x="348" y="984" on="0"/>
        <pt x="348" y="895" on="1"/>
        <pt x="348" y="811" on="1"/>
      </contour>
    </TTGlyph>
    <TTGlyph name="eacute" xMin="100" yMin="-15" xMax="844" yMax="1983">
      <component glyphName="e" x="6" y="0" flags="0x4"/>
      <component glyphName="acute" x="247" y="0" flags="0x4"/>
    </TTGlyph>
    <TTGlyph name="ecircumflex" xMin="100" yMin="-15" xMax="846" yMax="2066">
      <component glyphName="e" x="6" y="0" flags="0x4"/>
      <component glyphName="circumflex" x="12" y="0" flags="0x4"/>
    </TTGlyph>
    <TTGlyph name="edieresis" xMin="100" yMin="-15" xMax="847" yMax="1899">
      <component glyphName="e" x="6" y="0" flags="0x4"/>
      <component glyphName="dieresis" x="13" y="0" flags="0x4"/>
    </TTGlyph>
    <TTGlyph name="egrave" xMin="100" yMin="-15" xMax="844" yMax="1983">
      <component glyphName="e" x="6" y="0" flags="0x4"/>
      <component glyphName="grave" x="38" y="0" flags="0x4"/>
    </TTGlyph>
    <TTGlyph name="eight" xMin="87" yMin="-15" xMax="958" yMax="1723">
      <contour>
        <pt x="87" y="519" on="1"/>
        <pt x="87" y="594" on="0"/>
        <pt x="119" y="710" on="0"/>
        <pt x="176" y="798" on="0"/>
        <pt x="254" y="861" on="0"/>
        <pt x="299" y="884" on="1"/>
        <pt x="299" y="892" on="1"/>
        <pt x="266" y="910" on="0"/>
        <pt x="199" y="964" on="0"/>
        <pt x="145" y="1043" on="0"/>
        <pt x="111" y="1150" on="0"/>
        <pt x="111" y="1219" on="1"/>
        <pt x="111" y="1339" on="1"/>
        <pt x="111" y="1422" on="0"/>
        <pt x="151" y="1544" on="0"/>
        <pt x="216" y="1630" on="0"/>
        <pt x="302" y="1683" on="0"/>
        <pt x="393" y="1713" on="0"/>
        <pt x="484" y="1723" on="0"/>
        <pt x="522" y="1723" on="1"/>
        <pt x="561" y="1723" on="0"/>
        <pt x="651" y="1713" on="0"/>
        <pt x="743" y="1683" on="0"/>
        <pt x="828" y="1630" on="0"/>
        <pt x="894" y="1545" on="0"/>
        <pt x="934" y="1423" on="0"/>
        <pt x="934" y="1340" on="1"/>
        <pt x="934" y="1220" on="1"/>
        <pt x="934" y="1151" on="0"/>
        <pt x="900" y="1044" on="0"/>
        <pt x="846" y="965" on="0"/>
        <pt x="779" y="911" on="0"/>
        <pt x="746" y="893" on="1"/>
        <pt x="746" y="885" on="1"/>
        <pt x="792" y="862" on="0"/>
        <pt x="869" y="799" on="0"/>
        <pt x="926" y="711" on="0"/>
        <pt x="958" y="595" on="0"/>
        <pt x="958" y="520" on="1"/>
        <pt x="958" y="415" on="1"/>
        <pt x="958" y="327" on="0"/>
        <pt x="922" y="195" on="0"/>
        <pt x="859" y="99" on="0"/>
        <pt x="775" y="37" on="0"/>
        <pt x="678" y="0" on="0"/>
        <pt x="573" y="-15" on="0"/>
        <pt x="521" y="-15" on="1"/>
        <pt x="469" y="-15" on="0"/>
        <pt x="365" y="0" on="0"/>
        <pt x="268" y="36" on="0"/>
        <pt x="184" y="99" on="0"/>
        <pt x="123" y="194" on="0"/>
        <pt x="87" y="326" on="0"/>
        <pt x="87" y="414" on="1"/>
      </contour>
      <contour>
        <pt x="534" y="976" on="1"/>
        <pt x="563" y="976" on="0"/>
        <pt x="614" y="995" on="0"/>
        <pt x="652" y="1041" on="0"/>
        <pt x="674" y="1119" on="0"/>
        <pt x="674" y="1178" on="1"/>
        <pt x="674" y="1319" on="1"/>
        <pt x="674" y="1425" on="0"/>
        <pt x="603" y="1535" on="0"/>
        <pt x="522" y="1535" on="1"/>
        <pt x="441" y="1535" on="0"/>
        <pt x="372" y="1423" on="0"/>
        <pt x="372" y="1317" on="1"/>
        <pt x="372" y="1177" on="1"/>
        <pt x="372" y="1120" on="0"/>
        <pt x="391" y="1043" on="0"/>
        <pt x="427" y="996" on="0"/>
        <pt x="478" y="976" on="0"/>
        <pt x="510" y="976" on="1"/>
      </contour>
      <contour>
        <pt x="350" y="393" on="1"/>
        <pt x="350" y="328" on="0"/>
        <pt x="379" y="245" on="0"/>
        <pt x="426" y="198" on="0"/>
        <pt x="488" y="180" on="0"/>
        <pt x="521" y="180" on="1"/>
        <pt x="554" y="180" on="0"/>
        <pt x="617" y="198" on="0"/>
        <pt x="665" y="246" on="0"/>
        <pt x="695" y="329" on="0"/>
        <pt x="695" y="394" on="1"/>
        <pt x="695" y="582" on="1"/>
        <pt x="695" y="638" on="0"/>
        <pt x="672" y="717" on="0"/>
        <pt x="630" y="768" on="0"/>
        <pt x="570" y="791" on="0"/>
        <pt x="534" y="791" on="1"/>
        <pt x="509" y="791" on="1"/>
        <pt x="436" y="791" on="0"/>
        <pt x="350" y="690" on="0"/>
        <pt x="350" y="581" on="1"/>
      </contour>
    </TTGlyph>
    <TTGlyph name="ellipsis" xMin="91" yMin="-14" xMax="1385" yMax="377">
      <component glyphName="period" x="0" y="0" flags="0x4"/>
      <component glyphName="period" x="490" y="0" flags="0x4"/>
      <component glyphName="period" x="981" y="0" flags="0x4"/>
    </TTGlyph>
    <TTGlyph name="emdash" xMin="126" yMin="685" xMax="1521" yMax="888">
      <contour>
        <pt x="126" y="888" on="1"/>
        <pt x="1521" y="888" on="1"/>
        <pt x="1521" y="685" on="1"/>
        <pt x="126" y="685" on="1"/>
      </contour>
    </TTGlyph>
    <TTGlyph name="endash" xMin="126" yMin="685" xMax="1254" yMax="888">
      <contour>
        <pt x="126" y="888" on="1"/>
        <pt x="1254" y="888" on="1"/>
        <pt x="1254" y="685" on="1"/>
        <pt x="126" y="685" on="1"/>
      </contour>
    </TTGlyph>
    <TTGlyph name="equal" xMin="86" yMin="488" xMax="830" yMax="1090">
      <contour>
        <pt x="86" y="1090" on="1"/>
        <pt x="830" y="1090" on="1"/>
        <pt x="830" y="895" on="1"/>
        <pt x="86" y="895" on="1"/>
      </contour>
      <contour>
        <pt x="86" y="683" on="1"/>
        <pt x="830" y="683" on="1"/>
        <pt x="830" y="488" on="1"/>
        <pt x="86" y="488" on="1"/>
      </contour>
    </TTGlyph>
    <TTGlyph name="eth" xMin="94" yMin="-15" xMax="873" yMax="2020">
      <contour>
        <pt x="489" y="-15" on="1"/>
        <pt x="445" y="-15" on="0"/>
        <pt x="352" y="-2" on="0"/>
        <pt x="264" y="41" on="0"/>
        <pt x="187" y="122" on="0"/>
        <pt x="128" y="258" on="0"/>
        <pt x="94" y="457" on="0"/>
        <pt x="94" y="597" on="1"/>
        <pt x="94" y="795" on="1"/>
        <pt x="94" y="932" on="0"/>
        <pt x="132" y="1125" on="0"/>
        <pt x="192" y="1254" on="0"/>
        <pt x="269" y="1329" on="0"/>
        <pt x="348" y="1367" on="0"/>
        <pt x="420" y="1377" on="0"/>
        <pt x="447" y="1377" on="1"/>
        <pt x="460" y="1377" on="0"/>
        <pt x="497" y="1376" on="0"/>
        <pt x="531" y="1373" on="0"/>
        <pt x="559" y="1369" on="0"/>
        <pt x="563" y="1367" on="1"/>
        <pt x="543" y="1445" on="0"/>
        <pt x="469" y="1579" on="0"/>
        <pt x="426" y="1632" on="1"/>
        <pt x="323" y="1509" on="1"/>
        <pt x="196" y="1615" on="1"/>
        <pt x="299" y="1743" on="1"/>
        <pt x="258" y="1766" on="0"/>
        <pt x="169" y="1792" on="0"/>
        <pt x="120" y="1793" on="1"/>
        <pt x="120" y="1959" on="1"/>
        <pt x="201" y="1959" on="0"/>
        <pt x="347" y="1919" on="0"/>
        <pt x="411" y="1882" on="1"/>
        <pt x="522" y="2020" on="1"/>
        <pt x="654" y="1904" on="1"/>
        <pt x="547" y="1777" on="1"/>
        <pt x="627" y="1697" on="0"/>
        <pt x="749" y="1480" on="0"/>
        <pt x="831" y="1224" on="0"/>
        <pt x="873" y="938" on="0"/>
        <pt x="873" y="789" on="1"/>
        <pt x="873" y="597" on="1"/>
        <pt x="873" y="460" on="0"/>
        <pt x="838" y="262" on="0"/>
        <pt x="779" y="126" on="0"/>
        <pt x="702" y="44" on="0"/>
        <pt x="617" y="-1" on="0"/>
        <pt x="529" y="-15" on="0"/>
      </contour>
      <contour>
        <pt x="491" y="180" on="1"/>
        <pt x="528" y="180" on="0"/>
        <pt x="574" y="215" on="0"/>
        <pt x="599" y="296" on="0"/>
        <pt x="607" y="425" on="0"/>
        <pt x="607" y="520" on="1"/>
        <pt x="607" y="1158" on="1"/>
        <pt x="593" y="1182" on="0"/>
        <pt x="543" y="1208" on="0"/>
        <pt x="491" y="1208" on="1"/>
        <pt x="459" y="1208" on="0"/>
        <pt x="413" y="1184" on="0"/>
        <pt x="383" y="1113" on="0"/>
        <pt x="368" y="985" on="0"/>
        <pt x="368" y="881" on="1"/>
        <pt x="368" y="520" on="1"/>
        <pt x="368" y="425" on="0"/>
        <pt x="377" y="296" on="0"/>
        <pt x="404" y="215" on="0"/>
        <pt x="452" y="180" on="0"/>
      </contour>
    </TTGlyph>
    <TTGlyph name="exclam" xMin="191" yMin="-14" xMax="504" yMax="1813">
      <contour>
        <pt x="208" y="1813" on="1"/>
        <pt x="481" y="1813" on="1"/>
        <pt x="450" y="555" on="1"/>
        <pt x="243" y="555" on="1"/>
      </contour>
      <contour>
        <pt x="191" y="177" on="1"/>
        <pt x="191" y="282" on="0"/>
        <pt x="275" y="373" on="0"/>
        <pt x="347" y="373" on="1"/>
        <pt x="422" y="373" on="0"/>
        <pt x="504" y="277" on="0"/>
        <pt x="504" y="177" on="1"/>
        <pt x="504" y="86" on="0"/>
        <pt x="421" y="-14" on="0"/>
        <pt x="346" y="-14" on="1"/>
        <pt x="275" y="-14" on="0"/>
        <pt x="191" y="83" on="0"/>
      </contour>
    </TTGlyph>
    <TTGlyph name="exclamdown" xMin="191" yMin="-424" xMax="504" yMax="1403">
      <component glyphName="exclam" x="0" y="1389" scalex="1.0" scaley="-0.999938964844" flags="0x4"/>
    </TTGlyph>
    <TTGlyph name="f" xMin="45" yMin="0" xMax="631" yMax="1836">
      <contour>
        <pt x="164" y="1197" on="1"/>
        <pt x="45" y="1197" on="1"/>
        <pt x="45" y="1377" on="1"/>
        <pt x="164" y="1377" on="1"/>
        <pt x="164" y="1476" on="1"/>
        <pt x="164" y="1588" on="0"/>
        <pt x="210" y="1729" on="0"/>
        <pt x="291" y="1808" on="0"/>
        <pt x="400" y="1836" on="0"/>
        <pt x="463" y="1836" on="1"/>
        <pt x="481" y="1836" on="0"/>
        <pt x="526" y="1832" on="0"/>
        <pt x="571" y="1823" on="0"/>
        <pt x="614" y="1811" on="0"/>
        <pt x="631" y="1802" on="1"/>
        <pt x="631" y="1624" on="1"/>
        <pt x="589" y="1635" on="0"/>
        <pt x="537" y="1635" on="1"/>
        <pt x="512" y="1635" on="0"/>
        <pt x="467" y="1619" on="0"/>
        <pt x="433" y="1582" on="0"/>
        <pt x="413" y="1521" on="0"/>
        <pt x="413" y="1476" on="1"/>
        <pt x="413" y="1377" on="1"/>
        <pt x="604" y="1377" on="1"/>
        <pt x="604" y="1197" on="1"/>
        <pt x="413" y="1197" on="1"/>
        <pt x="413" y="0" on="1"/>
        <pt x="164" y="0" on="1"/>
      </contour>
    </TTGlyph>
    <TTGlyph name="f_f" xMin="45" yMin="0" xMax="1254" yMax="1836">
      <contour>
        <pt x="164" y="1185" on="1"/>
        <pt x="45" y="1185" on="1"/>
        <pt x="45" y="1377" on="1"/>
        <pt x="164" y="1377" on="1"/>
        <pt x="164" y="1466" on="1"/>
        <pt x="164" y="1578" on="0"/>
        <pt x="210" y="1719" on="0"/>
        <pt x="291" y="1798" on="0"/>
        <pt x="400" y="1826" on="0"/>
        <pt x="463" y="1826" on="1"/>
        <pt x="481" y="1826" on="0"/>
        <pt x="526" y="1822" on="0"/>
        <pt x="571" y="1813" on="0"/>
        <pt x="614" y="1801" on="0"/>
        <pt x="631" y="1792" on="1"/>
        <pt x="631" y="1614" on="1"/>
        <pt x="589" y="1625" on="0"/>
        <pt x="537" y="1625" on="1"/>
        <pt x="512" y="1625" on="0"/>
        <pt x="467" y="1609" on="0"/>
        <pt x="433" y="1572" on="0"/>
        <pt x="413" y="1511" on="0"/>
        <pt x="413" y="1466" on="1"/>
        <pt x="413" y="1377" on="1"/>
        <pt x="604" y="1377" on="1"/>
        <pt x="604" y="1185" on="1"/>
        <pt x="413" y="1185" on="1"/>
        <pt x="413" y="0" on="1"/>
        <pt x="164" y="0" on="1"/>
      </contour>
      <contour>
        <pt x="787" y="1197" on="1"/>
        <pt x="668" y="1197" on="1"/>
        <pt x="668" y="1377" on="1"/>
        <pt x="787" y="1377" on="1"/>
        <pt x="787" y="1476" on="1"/>
        <pt x="787" y="1588" on="0"/>
        <pt x="833" y="1729" on="0"/>
        <pt x="914" y="1808" on="0"/>
        <pt x="1023" y="1836" on="0"/>
        <pt x="1086" y="1836" on="1"/>
        <pt x="1104" y="1836" on="0"/>
        <pt x="1149" y="1832" on="0"/>
        <pt x="1194" y="1823" on="0"/>
        <pt x="1237" y="1811" on="0"/>
        <pt x="1254" y="1802" on="1"/>
        <pt x="1254" y="1624" on="1"/>
        <pt x="1212" y="1635" on="0"/>
        <pt x="1160" y="1635" on="1"/>
        <pt x="1135" y="1635" on="0"/>
        <pt x="1090" y="1619" on="0"/>
        <pt x="1056" y="1582" on="0"/>
        <pt x="1036" y="1521" on="0"/>
        <pt x="1036" y="1476" on="1"/>
        <pt x="1036" y="1377" on="1"/>
        <pt x="1227" y="1377" on="1"/>
        <pt x="1227" y="1197" on="1"/>
        <pt x="1036" y="1197" on="1"/>
        <pt x="1036" y="0" on="1"/>
        <pt x="787" y="0" on="1"/>
      </contour>
    </TTGlyph>
    <TTGlyph name="f_i" xMin="45" yMin="0" xMax="1042" yMax="1899">
      <contour>
        <pt x="164" y="1185" on="1"/>
        <pt x="45" y="1185" on="1"/>
        <pt x="45" y="1377" on="1"/>
        <pt x="164" y="1377" on="1"/>
        <pt x="164" y="1476" on="1"/>
        <pt x="164" y="1588" on="0"/>
        <pt x="209" y="1729" on="0"/>
        <pt x="287" y="1808" on="0"/>
        <pt x="392" y="1836" on="0"/>
        <pt x="453" y="1836" on="1"/>
        <pt x="470" y="1836" on="0"/>
        <pt x="512" y="1832" on="0"/>
        <pt x="554" y="1823" on="0"/>
        <pt x="595" y="1811" on="0"/>
        <pt x="611" y="1802" on="1"/>
        <pt x="611" y="1624" on="1"/>
        <pt x="573" y="1635" on="0"/>
        <pt x="527" y="1635" on="1"/>
        <pt x="504" y="1635" on="0"/>
        <pt x="463" y="1619" on="0"/>
        <pt x="431" y="1582" on="0"/>
        <pt x="413" y="1521" on="0"/>
        <pt x="413" y="1476" on="1"/>
        <pt x="413" y="1377" on="1"/>
        <pt x="604" y="1377" on="1"/>
        <pt x="604" y="1185" on="1"/>
        <pt x="413" y="1185" on="1"/>
        <pt x="413" y="0" on="1"/>
        <pt x="164" y="0" on="1"/>
      </contour>
      <contour>
        <pt x="888" y="1574" on="1"/>
        <pt x="818" y="1574" on="0"/>
        <pt x="737" y="1658" on="0"/>
        <pt x="737" y="1739" on="1"/>
        <pt x="737" y="1784" on="0"/>
        <pt x="758" y="1845" on="0"/>
        <pt x="797" y="1882" on="0"/>
        <pt x="853" y="1899" on="0"/>
        <pt x="889" y="1899" on="1"/>
        <pt x="964" y="1899" on="0"/>
        <pt x="1042" y="1823" on="0"/>
        <pt x="1042" y="1739" on="1"/>
        <pt x="1042" y="1661" on="0"/>
        <pt x="963" y="1574" on="0"/>
      </contour>
      <contour>
        <pt x="757" y="1377" on="1"/>
        <pt x="1010" y="1377" on="1"/>
        <pt x="1010" y="0" on="1"/>
        <pt x="757" y="0" on="1"/>
      </contour>
    </TTGlyph>
    <TTGlyph name="f_l" xMin="45" yMin="0" xMax="1013" yMax="1836">
      <contour>
        <pt x="164" y="1185" on="1"/>
        <pt x="45" y="1185" on="1"/>
        <pt x="45" y="1377" on="1"/>
        <pt x="164" y="1377" on="1"/>
        <pt x="164" y="1476" on="1"/>
        <pt x="164" y="1588" on="0"/>
        <pt x="209" y="1729" on="0"/>
        <pt x="287" y="1808" on="0"/>
        <pt x="392" y="1836" on="0"/>
        <pt x="453" y="1836" on="1"/>
        <pt x="470" y="1836" on="0"/>
        <pt x="512" y="1832" on="0"/>
        <pt x="554" y="1823" on="0"/>
        <pt x="595" y="1811" on="0"/>
        <pt x="611" y="1802" on="1"/>
        <pt x="611" y="1624" on="1"/>
        <pt x="573" y="1635" on="0"/>
        <pt x="527" y="1635" on="1"/>
        <pt x="504" y="1635" on="0"/>
        <pt x="463" y="1619" on="0"/>
        <pt x="431" y="1582" on="0"/>
        <pt x="413" y="1521" on="0"/>
        <pt x="413" y="1476" on="1"/>
        <pt x="413" y="1377" on="1"/>
        <pt x="604" y="1377" on="1"/>
        <pt x="604" y="1185" on="1"/>
        <pt x="413" y="1185" on="1"/>
        <pt x="413" y="0" on="1"/>
        <pt x="164" y="0" on="1"/>
      </contour>
      <contour>
        <pt x="760" y="1819" on="1"/>
        <pt x="1013" y="1819" on="1"/>
        <pt x="1013" y="0" on="1"/>
        <pt x="760" y="0" on="1"/>
      </contour>
    </TTGlyph>
    <TTGlyph name="five" xMin="126" yMin="-15" xMax="922" yMax="1708">
      <contour>
        <pt x="126" y="351" on="1"/>
        <pt x="126" y="442" on="0"/>
        <pt x="151" y="549" on="1"/>
        <pt x="353" y="549" on="1"/>
        <pt x="353" y="409" on="1"/>
        <pt x="353" y="287" on="0"/>
        <pt x="424" y="180" on="0"/>
        <pt x="505" y="180" on="1"/>
        <pt x="587" y="180" on="0"/>
        <pt x="655" y="298" on="0"/>
        <pt x="655" y="409" on="1"/>
        <pt x="655" y="739" on="1"/>
        <pt x="655" y="803" on="0"/>
        <pt x="633" y="882" on="0"/>
        <pt x="595" y="927" on="0"/>
        <pt x="544" y="943" on="0"/>
        <pt x="514" y="943" on="1"/>
        <pt x="458" y="943" on="0"/>
        <pt x="378" y="880" on="0"/>
        <pt x="352" y="836" on="1"/>
        <pt x="161" y="836" on="1"/>
        <pt x="161" y="1708" on="1"/>
        <pt x="895" y="1708" on="1"/>
        <pt x="895" y="1479" on="1"/>
        <pt x="377" y="1479" on="1"/>
        <pt x="377" y="1057" on="1"/>
        <pt x="419" y="1105" on="0"/>
        <pt x="546" y="1159" on="0"/>
        <pt x="615" y="1159" on="1"/>
        <pt x="774" y="1159" on="0"/>
        <pt x="922" y="945" on="0"/>
        <pt x="922" y="737" on="1"/>
        <pt x="922" y="447" on="1"/>
        <pt x="922" y="315" on="0"/>
        <pt x="854" y="138" on="0"/>
        <pt x="742" y="31" on="0"/>
        <pt x="595" y="-15" on="0"/>
        <pt x="517" y="-15" on="1"/>
        <pt x="422" y="-15" on="0"/>
        <pt x="276" y="36" on="0"/>
        <pt x="177" y="132" on="0"/>
        <pt x="126" y="267" on="0"/>
      </contour>
    </TTGlyph>
    <TTGlyph name="florin" xMin="-65" yMin="-419" xMax="624" yMax="1836">
      <contour>
        <pt x="153" y="961" on="1"/>
        <pt x="38" y="961" on="1"/>
        <pt x="38" y="1153" on="1"/>
        <pt x="153" y="1153" on="1"/>
        <pt x="153" y="1476" on="1"/>
        <pt x="153" y="1588" on="0"/>
        <pt x="200" y="1729" on="0"/>
        <pt x="283" y="1808" on="0"/>
        <pt x="393" y="1836" on="0"/>
        <pt x="456" y="1836" on="1"/>
        <pt x="474" y="1836" on="0"/>
        <pt x="519" y="1832" on="0"/>
        <pt x="564" y="1823" on="0"/>
        <pt x="607" y="1811" on="0"/>
        <pt x="624" y="1802" on="1"/>
        <pt x="624" y="1624" on="1"/>
        <pt x="582" y="1635" on="0"/>
        <pt x="530" y="1635" on="1"/>
        <pt x="505" y="1635" on="0"/>
        <pt x="460" y="1619" on="0"/>
        <pt x="426" y="1582" on="0"/>
        <pt x="406" y="1521" on="0"/>
        <pt x="406" y="1476" on="1"/>
        <pt x="406" y="1153" on="1"/>
        <pt x="607" y="1153" on="1"/>
        <pt x="607" y="961" on="1"/>
        <pt x="406" y="961" on="1"/>
        <pt x="406" y="-59" on="1"/>
        <pt x="406" y="-171" on="0"/>
        <pt x="359" y="-312" on="0"/>
        <pt x="276" y="-391" on="0"/>
        <pt x="166" y="-419" on="0"/>
        <pt x="103" y="-419" on="1"/>
        <pt x="85" y="-419" on="0"/>
        <pt x="40" y="-415" on="0"/>
        <pt x="-5" y="-406" on="0"/>
        <pt x="-48" y="-394" on="0"/>
        <pt x="-65" y="-385" on="1"/>
        <pt x="-65" y="-207" on="1"/>
        <pt x="-23" y="-218" on="0"/>
        <pt x="29" y="-218" on="1"/>
        <pt x="54" y="-218" on="0"/>
        <pt x="99" y="-202" on="0"/>
        <pt x="133" y="-165" on="0"/>
        <pt x="153" y="-104" on="0"/>
        <pt x="153" y="-59" on="1"/>
      </contour>
    </TTGlyph>
    <TTGlyph name="four" xMin="81" yMin="0" xMax="1046" yMax="1708">
      <contour>
        <pt x="81" y="442" on="1"/>
        <pt x="579" y="1708" on="1"/>
        <pt x="888" y="1708" on="1"/>
        <pt x="888" y="509" on="1"/>
        <pt x="1046" y="509" on="1"/>
        <pt x="1046" y="306" on="1"/>
        <pt x="888" y="306" on="1"/>
        <pt x="888" y="0" on="1"/>
        <pt x="647" y="0" on="1"/>
        <pt x="647" y="306" on="1"/>
        <pt x="81" y="306" on="1"/>
      </contour>
      <contour>
        <pt x="647" y="509" on="1"/>
        <pt x="647" y="761" on="1"/>
        <pt x="671" y="1405" on="1"/>
        <pt x="641" y="1405" on="1"/>
        <pt x="345" y="509" on="1"/>
      </contour>
    </TTGlyph>
    <TTGlyph name="fraction" xMin="-94" yMin="0" xMax="547" yMax="1709">
      <contour>
        <pt x="-94" y="0" on="1"/>
        <pt x="365" y="1709" on="1"/>
        <pt x="547" y="1709" on="1"/>
        <pt x="88" y="0" on="1"/>
      </contour>
    </TTGlyph>
    <TTGlyph name="g" xMin="98" yMin="-445" xMax="858" yMax="1392">
      <contour>
        <pt x="336" y="-94" on="1"/>
        <pt x="336" y="-183" on="0"/>
        <pt x="402" y="-257" on="0"/>
        <pt x="471" y="-257" on="1"/>
        <pt x="499" y="-257" on="0"/>
        <pt x="551" y="-240" on="0"/>
        <pt x="590" y="-195" on="0"/>
        <pt x="614" y="-115" on="0"/>
        <pt x="614" y="-52" on="1"/>
        <pt x="614" y="165" on="1"/>
        <pt x="580" y="121" on="0"/>
        <pt x="473" y="58" on="0"/>
        <pt x="394" y="58" on="1"/>
        <pt x="371" y="58" on="0"/>
        <pt x="309" y="67" on="0"/>
        <pt x="243" y="99" on="0"/>
        <pt x="179" y="164" on="0"/>
        <pt x="129" y="274" on="0"/>
        <pt x="98" y="439" on="0"/>
        <pt x="98" y="556" on="1"/>
        <pt x="98" y="918" on="1"/>
        <pt x="98" y="1030" on="0"/>
        <pt x="129" y="1187" on="0"/>
        <pt x="179" y="1293" on="0"/>
        <pt x="244" y="1353" on="0"/>
        <pt x="311" y="1384" on="0"/>
        <pt x="375" y="1392" on="0"/>
        <pt x="400" y="1392" on="1"/>
        <pt x="450" y="1392" on="0"/>
        <pt x="527" y="1366" on="0"/>
        <pt x="584" y="1323" on="0"/>
        <pt x="624" y="1269" on="0"/>
        <pt x="638" y="1242" on="1"/>
        <pt x="661" y="1378" on="1"/>
        <pt x="858" y="1378" on="1"/>
        <pt x="858" y="56" on="1"/>
        <pt x="858" y="-59" on="0"/>
        <pt x="814" y="-244" on="0"/>
        <pt x="720" y="-375" on="0"/>
        <pt x="575" y="-445" on="0"/>
        <pt x="474" y="-445" on="1"/>
        <pt x="406" y="-445" on="0"/>
        <pt x="286" y="-421" on="0"/>
        <pt x="196" y="-360" on="0"/>
        <pt x="144" y="-255" on="0"/>
        <pt x="144" y="-174" on="1"/>
        <pt x="144" y="-160" on="0"/>
        <pt x="150" y="-118" on="0"/>
        <pt x="157" y="-94" on="1"/>
      </contour>
      <contour>
        <pt x="480" y="254" on="1"/>
        <pt x="505" y="254" on="0"/>
        <pt x="544" y="271" on="0"/>
        <pt x="575" y="299" on="0"/>
        <pt x="598" y="335" on="0"/>
        <pt x="606" y="354" on="1"/>
        <pt x="606" y="1107" on="1"/>
        <pt x="587" y="1149" on="0"/>
        <pt x="524" y="1208" on="0"/>
        <pt x="479" y="1208" on="1"/>
        <pt x="451" y="1208" on="0"/>
        <pt x="405" y="1188" on="0"/>
        <pt x="371" y="1133" on="0"/>
        <pt x="352" y="1036" on="0"/>
        <pt x="352" y="959" on="1"/>
        <pt x="352" y="506" on="1"/>
        <pt x="352" y="429" on="0"/>
        <pt x="371" y="331" on="0"/>
        <pt x="405" y="275" on="0"/>
        <pt x="452" y="254" on="0"/>
      </contour>
    </TTGlyph>
    <TTGlyph name="germandbls" xMin="134" yMin="-443" xMax="967" yMax="1828">
      <contour>
        <pt x="134" y="1408" on="1"/>
        <pt x="134" y="1514" on="0"/>
        <pt x="190" y="1672" on="0"/>
        <pt x="295" y="1776" on="0"/>
        <pt x="442" y="1828" on="0"/>
        <pt x="534" y="1828" on="1"/>
        <pt x="635" y="1828" on="0"/>
        <pt x="782" y="1775" on="0"/>
        <pt x="878" y="1681" on="0"/>
        <pt x="924" y="1551" on="0"/>
        <pt x="924" y="1474" on="1"/>
        <pt x="924" y="1432" on="0"/>
        <pt x="912" y="1353" on="0"/>
        <pt x="887" y="1272" on="0"/>
        <pt x="850" y="1185" on="0"/>
        <pt x="825" y="1134" on="1"/>
        <pt x="801" y="1095" on="0"/>
        <pt x="772" y="1038" on="0"/>
        <pt x="757" y="995" on="0"/>
        <pt x="752" y="963" on="0"/>
        <pt x="752" y="948" on="1"/>
        <pt x="752" y="913" on="0"/>
        <pt x="777" y="842" on="0"/>
        <pt x="801" y="790" on="1"/>
        <pt x="893" y="593" on="1"/>
        <pt x="910" y="546" on="0"/>
        <pt x="938" y="469" on="0"/>
        <pt x="957" y="399" on="0"/>
        <pt x="967" y="333" on="0"/>
        <pt x="967" y="297" on="1"/>
        <pt x="967" y="237" on="0"/>
        <pt x="937" y="123" on="0"/>
        <pt x="873" y="34" on="0"/>
        <pt x="770" y="-19" on="0"/>
        <pt x="698" y="-19" on="1"/>
        <pt x="652" y="-19" on="0"/>
        <pt x="576" y="-3" on="0"/>
        <pt x="542" y="11" on="1"/>
        <pt x="542" y="187" on="1"/>
        <pt x="553" y="184" on="0"/>
        <pt x="568" y="182" on="0"/>
        <pt x="582" y="180" on="0"/>
        <pt x="596" y="180" on="0"/>
        <pt x="607" y="180" on="1"/>
        <pt x="625" y="180" on="0"/>
        <pt x="662" y="191" on="0"/>
        <pt x="691" y="218" on="0"/>
        <pt x="710" y="263" on="0"/>
        <pt x="710" y="296" on="1"/>
        <pt x="710" y="347" on="0"/>
        <pt x="674" y="452" on="0"/>
        <pt x="648" y="509" on="1"/>
        <pt x="576" y="670" on="1"/>
        <pt x="548" y="732" on="0"/>
        <pt x="510" y="844" on="0"/>
        <pt x="510" y="907" on="1"/>
        <pt x="510" y="934" on="0"/>
        <pt x="519" y="984" on="0"/>
        <pt x="540" y="1038" on="0"/>
        <pt x="574" y="1100" on="0"/>
        <pt x="598" y="1140" on="1"/>
        <pt x="628" y="1191" on="0"/>
        <pt x="663" y="1271" on="0"/>
        <pt x="681" y="1340" on="0"/>
        <pt x="686" y="1403" on="0"/>
        <pt x="686" y="1436" on="1"/>
        <pt x="686" y="1477" on="0"/>
        <pt x="666" y="1548" on="0"/>
        <pt x="626" y="1600" on="0"/>
        <pt x="568" y="1629" on="0"/>
        <pt x="529" y="1629" on="1"/>
        <pt x="499" y="1629" on="0"/>
        <pt x="448" y="1614" on="0"/>
        <pt x="409" y="1580" on="0"/>
        <pt x="387" y="1525" on="0"/>
        <pt x="387" y="1485" on="1"/>
        <pt x="387" y="-443" on="1"/>
        <pt x="134" y="-443" on="1"/>
      </contour>
    </TTGlyph>
    <TTGlyph name="grave" xMin="114" yMin="1462" xMax="573" yMax="1983">
      <contour>
        <pt x="114" y="1846" on="1"/>
        <pt x="283" y="1983" on="1"/>
        <pt x="573" y="1567" on="1"/>
        <pt x="448" y="1462" on="1"/>
      </contour>
    </TTGlyph>
    <TTGlyph name="grave.cap" xMin="114" yMin="1733" xMax="564" yMax="2066">
      <contour>
        <pt x="114" y="1899" on="1"/>
        <pt x="243" y="2066" on="1"/>
        <pt x="564" y="1850" on="1"/>
        <pt x="459" y="1733" on="1"/>
      </contour>
    </TTGlyph>
    <TTGlyph name="greater" xMin="35" yMin="314" xMax="679" yMax="1262">
      <component glyphName="less" x="724" y="0" scalex="-0.999938964844" scaley="1.0" flags="0x4"/>
    </TTGlyph>
    <TTGlyph name="guillemotleft" xMin="144" yMin="305" xMax="1177" yMax="1273">
      <component glyphName="guilsinglleft" x="0" y="0" flags="0x4"/>
      <component glyphName="guilsinglleft" x="507" y="0" flags="0x4"/>
    </TTGlyph>
    <TTGlyph name="guillemotright" xMin="167" yMin="305" xMax="1214" yMax="1273">
      <component glyphName="guilsinglleft" x="837" y="0" scalex="-0.999938964844" scaley="1.0" flags="0x4"/>
      <component glyphName="guilsinglleft" x="1358" y="0" scalex="-0.999938964844" scaley="1.0" flags="0x4"/>
    </TTGlyph>
    <TTGlyph name="guilsinglleft" xMin="144" yMin="305" xMax="670" yMax="1273">
      <contour>
        <pt x="144" y="717" on="1"/>
        <pt x="144" y="867" on="1"/>
        <pt x="533" y="1273" on="1"/>
        <pt x="670" y="1149" on="1"/>
        <pt x="387" y="790" on="1"/>
        <pt x="666" y="430" on="1"/>
        <pt x="529" y="305" on="1"/>
      </contour>
    </TTGlyph>
    <TTGlyph name="guilsinglright" xMin="154" yMin="305" xMax="680" yMax="1273">
      <component glyphName="guilsinglleft" x="824" y="0" scalex="-0.999938964844" scaley="1.0" flags="0x4"/>
    </TTGlyph>
    <TTGlyph name="h" xMin="130" yMin="0" xMax="890" yMax="1819">
      <contour>
        <pt x="130" y="1819" on="1"/>
        <pt x="383" y="1819" on="1"/>
        <pt x="383" y="1495" on="1"/>
        <pt x="370" y="1259" on="1"/>
        <pt x="398" y="1298" on="0"/>
        <pt x="463" y="1349" on="0"/>
        <pt x="532" y="1380" on="0"/>
        <pt x="603" y="1393" on="0"/>
        <pt x="638" y="1393" on="1"/>
        <pt x="759" y="1393" on="0"/>
        <pt x="890" y="1224" on="0"/>
        <pt x="890" y="1055" on="1"/>
        <pt x="890" y="0" on="1"/>
        <pt x="637" y="0" on="1"/>
        <pt x="637" y="1046" on="1"/>
        <pt x="637" y="1137" on="0"/>
        <pt x="581" y="1208" on="0"/>
        <pt x="527" y="1208" on="1"/>
        <pt x="489" y="1208" on="0"/>
        <pt x="412" y="1157" on="0"/>
        <pt x="383" y="1112" on="1"/>
        <pt x="383" y="0" on="1"/>
        <pt x="130" y="0" on="1"/>
      </contour>
    </TTGlyph>
    <TTGlyph name="hbar" xMin="6" yMin="0" xMax="890" yMax="1810">
      <contour>
        <pt x="130" y="1505" on="1"/>
        <pt x="6" y="1505" on="1"/>
        <pt x="6" y="1676" on="1"/>
        <pt x="130" y="1676" on="1"/>
        <pt x="130" y="1810" on="1"/>
        <pt x="383" y="1810" on="1"/>
        <pt x="383" y="1676" on="1"/>
        <pt x="604" y="1676" on="1"/>
        <pt x="604" y="1505" on="1"/>
        <pt x="383" y="1505" on="1"/>
        <pt x="383" y="1488" on="1"/>
        <pt x="370" y="1259" on="1"/>
        <pt x="398" y="1297" on="0"/>
        <pt x="463" y="1349" on="0"/>
        <pt x="532" y="1380" on="0"/>
        <pt x="603" y="1393" on="0"/>
        <pt x="638" y="1393" on="1"/>
        <pt x="759" y="1393" on="0"/>
        <pt x="890" y="1223" on="0"/>
        <pt x="890" y="1055" on="1"/>
        <pt x="890" y="0" on="1"/>
        <pt x="637" y="0" on="1"/>
        <pt x="637" y="1047" on="1"/>
        <pt x="637" y="1137" on="0"/>
        <pt x="581" y="1208" on="0"/>
        <pt x="527" y="1208" on="1"/>
        <pt x="489" y="1208" on="0"/>
        <pt x="412" y="1154" on="0"/>
        <pt x="383" y="1115" on="1"/>
        <pt x="383" y="0" on="1"/>
        <pt x="130" y="0" on="1"/>
      </contour>
    </TTGlyph>
    <TTGlyph name="hyphen" xMin="126" yMin="685" xMax="871" yMax="888">
      <contour>
        <pt x="126" y="888" on="1"/>
        <pt x="871" y="888" on="1"/>
        <pt x="871" y="685" on="1"/>
        <pt x="126" y="685" on="1"/>
      </contour>
    </TTGlyph>
    <TTGlyph name="i" xMin="114" yMin="0" xMax="419" yMax="1899">
      <component glyphName="dotaccent" x="0" y="0" flags="0x4"/>
      <component glyphName="dotlessi" x="0" y="0" flags="0x4"/>
    </TTGlyph>
    <TTGlyph name="iacute" xMin="134" yMin="0" xMax="595" yMax="1983">
      <component glyphName="dotlessi" x="0" y="0" flags="0x204"/>
      <component glyphName="acute" x="22" y="0" flags="0x4"/>
    </TTGlyph>
    <TTGlyph name="icircumflex" xMin="-98" yMin="0" xMax="622" yMax="2066">
      <component glyphName="dotlessi" x="0" y="0" flags="0x204"/>
      <component glyphName="circumflex" x="-212" y="0" flags="0x4"/>
    </TTGlyph>
    <TTGlyph name="idieresis" xMin="-97" yMin="0" xMax="623" yMax="1899">
      <component glyphName="dotlessi" x="0" y="0" flags="0x204"/>
      <component glyphName="dieresis" x="-211" y="0" flags="0x4"/>
    </TTGlyph>
    <TTGlyph name="igrave" xMin="-72" yMin="0" xMax="387" yMax="1983">
      <component glyphName="dotlessi" x="0" y="0" flags="0x204"/>
      <component glyphName="grave" x="-186" y="0" flags="0x4"/>
    </TTGlyph>
    <TTGlyph name="ij" xMin="114" yMin="-444" xMax="930" yMax="1899">
      <component glyphName="dotaccent" x="0" y="0" flags="0x4"/>
      <component glyphName="dotlessi" x="0" y="0" flags="0x4"/>
      <component glyphName="dotaccent" x="511" y="0" flags="0x4"/>
      <component glyphName="dotlessj" x="511" y="0" flags="0x4"/>
    </TTGlyph>
    <TTGlyph name="integral" xMin="-65" yMin="-419" xMax="624" yMax="1836">
      <contour>
        <pt x="153" y="1476" on="1"/>
        <pt x="153" y="1588" on="0"/>
        <pt x="200" y="1729" on="0"/>
        <pt x="283" y="1808" on="0"/>
        <pt x="393" y="1836" on="0"/>
        <pt x="456" y="1836" on="1"/>
        <pt x="474" y="1836" on="0"/>
        <pt x="519" y="1832" on="0"/>
        <pt x="564" y="1823" on="0"/>
        <pt x="607" y="1811" on="0"/>
        <pt x="624" y="1802" on="1"/>
        <pt x="624" y="1624" on="1"/>
        <pt x="582" y="1635" on="0"/>
        <pt x="530" y="1635" on="1"/>
        <pt x="505" y="1635" on="0"/>
        <pt x="460" y="1619" on="0"/>
        <pt x="426" y="1582" on="0"/>
        <pt x="406" y="1521" on="0"/>
        <pt x="406" y="1476" on="1"/>
        <pt x="406" y="-59" on="1"/>
        <pt x="406" y="-171" on="0"/>
        <pt x="359" y="-312" on="0"/>
        <pt x="276" y="-391" on="0"/>
        <pt x="166" y="-419" on="0"/>
        <pt x="103" y="-419" on="1"/>
        <pt x="85" y="-419" on="0"/>
        <pt x="40" y="-415" on="0"/>
        <pt x="-5" y="-406" on="0"/>
        <pt x="-48" y="-394" on="0"/>
        <pt x="-65" y="-385" on="1"/>
        <pt x="-65" y="-207" on="1"/>
        <pt x="-23" y="-218" on="0"/>
        <pt x="29" y="-218" on="1"/>
        <pt x="54" y="-218" on="0"/>
        <pt x="99" y="-202" on="0"/>
        <pt x="133" y="-165" on="0"/>
        <pt x="153" y="-104" on="0"/>
        <pt x="153" y="-59" on="1"/>
      </contour>
    </TTGlyph>
    <TTGlyph name="itilde" xMin="-111" yMin="0" xMax="636" yMax="1943">
      <component glyphName="dotlessi" x="0" y="0" flags="0x204"/>
      <component glyphName="tilde" x="-225" y="51" flags="0x4"/>
    </TTGlyph>
    <TTGlyph name="j" xMin="-7" yMin="-444" xMax="419" yMax="1899">
      <component glyphName="dotaccent" x="0" y="0" flags="0x4"/>
      <component glyphName="dotlessj" x="0" y="0" flags="0x4"/>
    </TTGlyph>
    <TTGlyph name="jcircumflex" xMin="-94" yMin="-444" xMax="626" yMax="2066">
      <component glyphName="dotlessj" x="0" y="0" flags="0x204"/>
      <component glyphName="circumflex" x="-208" y="0" flags="0x4"/>
    </TTGlyph>
    <TTGlyph name="k" xMin="134" yMin="0" xMax="943" yMax="1819">
      <contour>
        <pt x="134" y="1819" on="1"/>
        <pt x="387" y="1819" on="1"/>
        <pt x="387" y="772" on="1"/>
        <pt x="395" y="772" on="1"/>
        <pt x="671" y="1377" on="1"/>
        <pt x="914" y="1377" on="1"/>
        <pt x="608" y="747" on="1"/>
        <pt x="943" y="0" on="1"/>
        <pt x="685" y="0" on="1"/>
        <pt x="395" y="683" on="1"/>
        <pt x="387" y="683" on="1"/>
        <pt x="387" y="0" on="1"/>
        <pt x="134" y="0" on="1"/>
      </contour>
    </TTGlyph>
    <TTGlyph name="kcommaaccent" xMin="134" yMin="-457" xMax="943" yMax="1819">
      <component glyphName="k" x="0" y="0" flags="0x4"/>
      <component glyphName="commaaccent" x="296" y="0" flags="0x4"/>
    </TTGlyph>
    <TTGlyph name="kgreenlandic" xMin="134" yMin="0" xMax="943" yMax="1370">
      <contour>
        <pt x="134" y="1370" on="1"/>
        <pt x="387" y="1370" on="1"/>
        <pt x="387" y="727" on="1"/>
        <pt x="395" y="727" on="1"/>
        <pt x="671" y="1370" on="1"/>
        <pt x="914" y="1370" on="1"/>
        <pt x="619" y="714" on="1"/>
        <pt x="943" y="0" on="1"/>
        <pt x="687" y="0" on="1"/>
        <pt x="395" y="639" on="1"/>
        <pt x="387" y="639" on="1"/>
        <pt x="387" y="0" on="1"/>
        <pt x="134" y="0" on="1"/>
      </contour>
    </TTGlyph>
    <TTGlyph name="l" xMin="134" yMin="0" xMax="387" yMax="1819">
      <contour>
        <pt x="134" y="1819" on="1"/>
        <pt x="387" y="1819" on="1"/>
        <pt x="387" y="0" on="1"/>
        <pt x="134" y="0" on="1"/>
      </contour>
    </TTGlyph>
    <TTGlyph name="ldot" xMin="134" yMin="0" xMax="752" yMax="1810">
      <contour>
        <pt x="134" y="1810" on="1"/>
        <pt x="387" y="1810" on="1"/>
        <pt x="387" y="0" on="1"/>
        <pt x="134" y="0" on="1"/>
      </contour>
      <contour>
        <pt x="619" y="712" on="1"/>
        <pt x="557" y="712" on="0"/>
        <pt x="480" y="805" on="0"/>
        <pt x="480" y="890" on="1"/>
        <pt x="480" y="937" on="0"/>
        <pt x="500" y="1003" on="0"/>
        <pt x="537" y="1044" on="0"/>
        <pt x="588" y="1062" on="0"/>
        <pt x="620" y="1062" on="1"/>
        <pt x="685" y="1062" on="0"/>
        <pt x="752" y="979" on="0"/>
        <pt x="752" y="890" on="1"/>
        <pt x="752" y="807" on="0"/>
        <pt x="685" y="712" on="0"/>
      </contour>
    </TTGlyph>
    <TTGlyph name="less" xMin="45" yMin="314" xMax="689" yMax="1262">
      <contour>
        <pt x="45" y="862" on="1"/>
        <pt x="689" y="1262" on="1"/>
        <pt x="689" y="1027" on="1"/>
        <pt x="273" y="792" on="1"/>
        <pt x="273" y="784" on="1"/>
        <pt x="689" y="548" on="1"/>
        <pt x="689" y="314" on="1"/>
        <pt x="45" y="715" on="1"/>
      </contour>
    </TTGlyph>
    <TTGlyph name="logicalnot" xMin="45" yMin="368" xMax="905" yMax="887">
      <contour>
        <pt x="45" y="887" on="1"/>
        <pt x="905" y="887" on="1"/>
        <pt x="905" y="368" on="1"/>
        <pt x="707" y="368" on="1"/>
        <pt x="707" y="692" on="1"/>
        <pt x="45" y="692" on="1"/>
      </contour>
    </TTGlyph>
    <TTGlyph name="lslash" xMin="-33" yMin="0" xMax="640" yMax="1810">
      <contour>
        <pt x="175" y="631" on="1"/>
        <pt x="85" y="539" on="1"/>
        <pt x="-33" y="660" on="1"/>
        <pt x="175" y="873" on="1"/>
        <pt x="175" y="1810" on="1"/>
        <pt x="427" y="1810" on="1"/>
        <pt x="427" y="1131" on="1"/>
        <pt x="522" y="1228" on="1"/>
        <pt x="640" y="1106" on="1"/>
        <pt x="427" y="888" on="1"/>
        <pt x="427" y="0" on="1"/>
        <pt x="175" y="0" on="1"/>
      </contour>
    </TTGlyph>
    <TTGlyph name="m" xMin="130" yMin="0" xMax="1388" yMax="1393">
      <contour>
        <pt x="130" y="1377" on="1"/>
        <pt x="326" y="1377" on="1"/>
        <pt x="348" y="1230" on="1"/>
        <pt x="348" y="1229" on="1"/>
        <pt x="378" y="1276" on="0"/>
        <pt x="446" y="1339" on="0"/>
        <pt x="519" y="1377" on="0"/>
        <pt x="596" y="1393" on="0"/>
        <pt x="634" y="1393" on="1"/>
        <pt x="715" y="1393" on="0"/>
        <pt x="827" y="1315" on="0"/>
        <pt x="856" y="1237" on="1"/>
        <pt x="886" y="1282" on="0"/>
        <pt x="953" y="1342" on="0"/>
        <pt x="1025" y="1378" on="0"/>
        <pt x="1099" y="1393" on="0"/>
        <pt x="1137" y="1393" on="1"/>
        <pt x="1257" y="1393" on="0"/>
        <pt x="1388" y="1224" on="0"/>
        <pt x="1388" y="1055" on="1"/>
        <pt x="1388" y="0" on="1"/>
        <pt x="1135" y="0" on="1"/>
        <pt x="1135" y="1046" on="1"/>
        <pt x="1135" y="1091" on="0"/>
        <pt x="1121" y="1153" on="0"/>
        <pt x="1093" y="1191" on="0"/>
        <pt x="1049" y="1208" on="0"/>
        <pt x="1018" y="1208" on="1"/>
        <pt x="983" y="1208" on="0"/>
        <pt x="913" y="1157" on="0"/>
        <pt x="884" y="1112" on="1"/>
        <pt x="885" y="1103" on="0"/>
        <pt x="885" y="1085" on="0"/>
        <pt x="885" y="1076" on="1"/>
        <pt x="885" y="0" on="1"/>
        <pt x="632" y="0" on="1"/>
        <pt x="632" y="1046" on="1"/>
        <pt x="632" y="1091" on="0"/>
        <pt x="618" y="1153" on="0"/>
        <pt x="590" y="1191" on="0"/>
        <pt x="546" y="1208" on="0"/>
        <pt x="515" y="1208" on="1"/>
        <pt x="481" y="1208" on="0"/>
        <pt x="411" y="1158" on="0"/>
        <pt x="383" y="1114" on="1"/>
        <pt x="383" y="0" on="1"/>
        <pt x="130" y="0" on="1"/>
      </contour>
    </TTGlyph>
    <TTGlyph name="macron" xMin="114" yMin="1633" xMax="737" yMax="1826">
      <contour>
        <pt x="114" y="1826" on="1"/>
        <pt x="737" y="1826" on="1"/>
        <pt x="737" y="1633" on="1"/>
        <pt x="114" y="1633" on="1"/>
      </contour>
    </TTGlyph>
    <TTGlyph name="macron.cap" xMin="114" yMin="1874" xMax="737" yMax="2066">
      <contour>
        <pt x="114" y="2066" on="1"/>
        <pt x="737" y="2066" on="1"/>
        <pt x="737" y="1874" on="1"/>
        <pt x="114" y="1874" on="1"/>
      </contour>
    </TTGlyph>
    <TTGlyph name="minus" xMin="126" yMin="691" xMax="871" yMax="887">
      <contour>
        <pt x="126" y="887" on="1"/>
        <pt x="871" y="887" on="1"/>
        <pt x="871" y="691" on="1"/>
        <pt x="126" y="691" on="1"/>
      </contour>
    </TTGlyph>
    <TTGlyph name="mu" xMin="121" yMin="-328" xMax="898" yMax="1377">
      <contour>
        <pt x="121" y="1377" on="1"/>
        <pt x="383" y="1377" on="1"/>
        <pt x="383" y="344" on="1"/>
        <pt x="383" y="298" on="0"/>
        <pt x="397" y="236" on="0"/>
        <pt x="426" y="198" on="0"/>
        <pt x="470" y="181" on="0"/>
        <pt x="500" y="181" on="1"/>
        <pt x="535" y="181" on="0"/>
        <pt x="600" y="206" on="0"/>
        <pt x="632" y="244" on="1"/>
        <pt x="632" y="1377" on="1"/>
        <pt x="898" y="1377" on="1"/>
        <pt x="898" y="0" on="1"/>
        <pt x="692" y="0" on="1"/>
        <pt x="675" y="96" on="1"/>
        <pt x="660" y="73" on="0"/>
        <pt x="618" y="32" on="0"/>
        <pt x="568" y="2" on="0"/>
        <pt x="515" y="-16" on="0"/>
        <pt x="490" y="-16" on="1"/>
        <pt x="456" y="-16" on="0"/>
        <pt x="395" y="5" on="0"/>
        <pt x="364" y="43" on="1"/>
        <pt x="356" y="44" on="1"/>
        <pt x="363" y="-328" on="1"/>
        <pt x="122" y="-328" on="1"/>
      </contour>
    </TTGlyph>
    <TTGlyph name="multiply" xMin="66" yMin="419" xMax="795" yMax="1161">
      <contour>
        <pt x="66" y="551" on="1"/>
        <pt x="300" y="790" on="1"/>
        <pt x="66" y="1029" on="1"/>
        <pt x="196" y="1161" on="1"/>
        <pt x="430" y="922" on="1"/>
        <pt x="665" y="1161" on="1"/>
        <pt x="795" y="1029" on="1"/>
        <pt x="560" y="790" on="1"/>
        <pt x="795" y="551" on="1"/>
        <pt x="665" y="419" on="1"/>
        <pt x="430" y="657" on="1"/>
        <pt x="196" y="419" on="1"/>
      </contour>
    </TTGlyph>
    <TTGlyph name="n" xMin="130" yMin="0" xMax="888" yMax="1393">
      <contour>
        <pt x="130" y="1377" on="1"/>
        <pt x="325" y="1377" on="1"/>
        <pt x="348" y="1230" on="1"/>
        <pt x="348" y="1229" on="1"/>
        <pt x="378" y="1276" on="0"/>
        <pt x="447" y="1339" on="0"/>
        <pt x="521" y="1377" on="0"/>
        <pt x="598" y="1393" on="0"/>
        <pt x="636" y="1393" on="1"/>
        <pt x="757" y="1393" on="0"/>
        <pt x="888" y="1224" on="0"/>
        <pt x="888" y="1055" on="1"/>
        <pt x="888" y="0" on="1"/>
        <pt x="635" y="0" on="1"/>
        <pt x="635" y="1046" on="1"/>
        <pt x="635" y="1137" on="0"/>
        <pt x="579" y="1208" on="0"/>
        <pt x="525" y="1208" on="1"/>
        <pt x="487" y="1208" on="0"/>
        <pt x="412" y="1158" on="0"/>
        <pt x="383" y="1114" on="1"/>
        <pt x="383" y="0" on="1"/>
        <pt x="130" y="0" on="1"/>
      </contour>
    </TTGlyph>
    <TTGlyph name="nacute" xMin="131" yMin="0" xMax="889" yMax="1983">
      <component glyphName="n" x="1" y="0" flags="0x4"/>
      <component glyphName="acute" x="297" y="0" flags="0x4"/>
    </TTGlyph>
    <TTGlyph name="nine" xMin="85" yMin="-15" xMax="924" yMax="1723">
      <contour>
        <pt x="924" y="499" on="1"/>
        <pt x="924" y="381" on="0"/>
        <pt x="882" y="213" on="0"/>
        <pt x="812" y="98" on="0"/>
        <pt x="723" y="31" on="0"/>
        <pt x="627" y="-5" on="0"/>
        <pt x="534" y="-15" on="0"/>
        <pt x="495" y="-15" on="1"/>
        <pt x="389" y="-15" on="0"/>
        <pt x="239" y="38" on="0"/>
        <pt x="145" y="127" on="0"/>
        <pt x="101" y="245" on="0"/>
        <pt x="101" y="310" on="1"/>
        <pt x="101" y="345" on="0"/>
        <pt x="114" y="429" on="0"/>
        <pt x="128" y="471" on="1"/>
        <pt x="325" y="471" on="1"/>
        <pt x="325" y="434" on="1"/>
        <pt x="325" y="356" on="0"/>
        <pt x="345" y="258" on="0"/>
        <pt x="387" y="201" on="0"/>
        <pt x="451" y="180" on="0"/>
        <pt x="495" y="180" on="1"/>
        <pt x="575" y="180" on="0"/>
        <pt x="662" y="297" on="0"/>
        <pt x="662" y="426" on="1"/>
        <pt x="662" y="740" on="1"/>
        <pt x="624" y="698" on="0"/>
        <pt x="504" y="641" on="0"/>
        <pt x="423" y="641" on="1"/>
        <pt x="365" y="641" on="0"/>
        <pt x="245" y="678" on="0"/>
        <pt x="147" y="773" on="0"/>
        <pt x="85" y="936" on="0"/>
        <pt x="85" y="1063" on="1"/>
        <pt x="85" y="1229" on="1"/>
        <pt x="85" y="1365" on="0"/>
        <pt x="142" y="1554" on="0"/>
        <pt x="248" y="1671" on="0"/>
        <pt x="397" y="1723" on="0"/>
        <pt x="490" y="1723" on="1"/>
        <pt x="595" y="1723" on="0"/>
        <pt x="756" y="1670" on="0"/>
        <pt x="867" y="1550" on="0"/>
        <pt x="924" y="1354" on="0"/>
        <pt x="924" y="1211" on="1"/>
      </contour>
      <contour>
        <pt x="662" y="1326" on="1"/>
        <pt x="662" y="1384" on="0"/>
        <pt x="642" y="1465" on="0"/>
        <pt x="601" y="1514" on="0"/>
        <pt x="537" y="1536" on="0"/>
        <pt x="493" y="1536" on="1"/>
        <pt x="416" y="1536" on="0"/>
        <pt x="344" y="1426" on="0"/>
        <pt x="344" y="1316" on="1"/>
        <pt x="344" y="1054" on="1"/>
        <pt x="344" y="992" on="0"/>
        <pt x="366" y="908" on="0"/>
        <pt x="406" y="857" on="0"/>
        <pt x="462" y="835" on="0"/>
        <pt x="497" y="835" on="1"/>
        <pt x="524" y="835" on="0"/>
        <pt x="573" y="851" on="0"/>
        <pt x="615" y="877" on="0"/>
        <pt x="649" y="911" on="0"/>
        <pt x="662" y="928" on="1"/>
      </contour>
    </TTGlyph>
    <TTGlyph name="notequal" xMin="86" yMin="200" xMax="830" yMax="1369">
      <contour>
        <pt x="261" y="488" on="1"/>
        <pt x="86" y="488" on="1"/>
        <pt x="86" y="683" on="1"/>
        <pt x="320" y="683" on="1"/>
        <pt x="383" y="895" on="1"/>
        <pt x="86" y="895" on="1"/>
        <pt x="86" y="1090" on="1"/>
        <pt x="442" y="1090" on="1"/>
        <pt x="526" y="1369" on="1"/>
        <pt x="685" y="1369" on="1"/>
        <pt x="601" y="1090" on="1"/>
        <pt x="830" y="1090" on="1"/>
        <pt x="830" y="895" on="1"/>
        <pt x="542" y="895" on="1"/>
        <pt x="479" y="683" on="1"/>
        <pt x="830" y="683" on="1"/>
        <pt x="830" y="488" on="1"/>
        <pt x="420" y="488" on="1"/>
        <pt x="334" y="200" on="1"/>
        <pt x="175" y="200" on="1"/>
      </contour>
    </TTGlyph>
    <TTGlyph name="ntilde" xMin="131" yMin="0" xMax="910" yMax="1943">
      <component glyphName="n" x="1" y="0" flags="0x4"/>
      <component glyphName="tilde" x="49" y="51" flags="0x4"/>
    </TTGlyph>
    <TTGlyph name="numbersign" xMin="96" yMin="0" xMax="1012" yMax="1369">
      <contour>
        <pt x="237" y="385" on="1"/>
        <pt x="96" y="385" on="1"/>
        <pt x="96" y="567" on="1"/>
        <pt x="250" y="567" on="1"/>
        <pt x="269" y="809" on="1"/>
        <pt x="136" y="809" on="1"/>
        <pt x="136" y="991" on="1"/>
        <pt x="282" y="991" on="1"/>
        <pt x="310" y="1369" on="1"/>
        <pt x="489" y="1369" on="1"/>
        <pt x="461" y="991" on="1"/>
        <pt x="699" y="991" on="1"/>
        <pt x="727" y="1369" on="1"/>
        <pt x="906" y="1369" on="1"/>
        <pt x="878" y="991" on="1"/>
        <pt x="1012" y="991" on="1"/>
        <pt x="1012" y="809" on="1"/>
        <pt x="865" y="809" on="1"/>
        <pt x="846" y="567" on="1"/>
        <pt x="972" y="567" on="1"/>
        <pt x="972" y="385" on="1"/>
        <pt x="833" y="385" on="1"/>
        <pt x="805" y="0" on="1"/>
        <pt x="626" y="0" on="1"/>
        <pt x="654" y="385" on="1"/>
        <pt x="416" y="385" on="1"/>
        <pt x="388" y="0" on="1"/>
        <pt x="209" y="0" on="1"/>
      </contour>
      <contour>
        <pt x="668" y="567" on="1"/>
        <pt x="686" y="809" on="1"/>
        <pt x="447" y="809" on="1"/>
        <pt x="429" y="567" on="1"/>
      </contour>
    </TTGlyph>
    <TTGlyph name="o" xMin="94" yMin="-15" xMax="856" yMax="1393">
      <contour>
        <pt x="477" y="-15" on="1"/>
        <pt x="433" y="-15" on="0"/>
        <pt x="342" y="-1" on="0"/>
        <pt x="257" y="43" on="0"/>
        <pt x="182" y="125" on="0"/>
        <pt x="126" y="259" on="0"/>
        <pt x="94" y="455" on="0"/>
        <pt x="94" y="591" on="1"/>
        <pt x="94" y="807" on="1"/>
        <pt x="94" y="941" on="0"/>
        <pt x="127" y="1132" on="0"/>
        <pt x="184" y="1262" on="0"/>
        <pt x="260" y="1339" on="0"/>
        <pt x="345" y="1380" on="0"/>
        <pt x="435" y="1393" on="0"/>
        <pt x="478" y="1393" on="1"/>
        <pt x="519" y="1393" on="0"/>
        <pt x="607" y="1381" on="0"/>
        <pt x="691" y="1342" on="0"/>
        <pt x="766" y="1265" on="0"/>
        <pt x="823" y="1135" on="0"/>
        <pt x="856" y="942" on="0"/>
        <pt x="856" y="807" on="1"/>
        <pt x="856" y="591" on="1"/>
        <pt x="856" y="457" on="0"/>
        <pt x="822" y="263" on="0"/>
        <pt x="764" y="129" on="0"/>
        <pt x="688" y="46" on="0"/>
        <pt x="604" y="0" on="0"/>
        <pt x="517" y="-15" on="0"/>
      </contour>
      <contour>
        <pt x="479" y="180" on="1"/>
        <pt x="513" y="180" on="0"/>
        <pt x="560" y="215" on="0"/>
        <pt x="589" y="295" on="0"/>
        <pt x="602" y="426" on="0"/>
        <pt x="602" y="523" on="1"/>
        <pt x="602" y="862" on="1"/>
        <pt x="602" y="959" on="0"/>
        <pt x="589" y="1091" on="0"/>
        <pt x="560" y="1172" on="0"/>
        <pt x="513" y="1208" on="0"/>
        <pt x="479" y="1208" on="1"/>
        <pt x="443" y="1208" on="0"/>
        <pt x="394" y="1172" on="0"/>
        <pt x="362" y="1091" on="0"/>
        <pt x="348" y="959" on="0"/>
        <pt x="348" y="862" on="1"/>
        <pt x="348" y="523" on="1"/>
        <pt x="348" y="426" on="0"/>
        <pt x="362" y="295" on="0"/>
        <pt x="394" y="215" on="0"/>
        <pt x="443" y="180" on="0"/>
      </contour>
    </TTGlyph>
    <TTGlyph name="oacute" xMin="98" yMin="-15" xMax="860" yMax="1983">
      <component glyphName="o" x="4" y="0" flags="0x4"/>
      <component glyphName="acute" x="239" y="0" flags="0x4"/>
    </TTGlyph>
    <TTGlyph name="ocircumflex" xMin="98" yMin="-15" xMax="860" yMax="2066">
      <component glyphName="o" x="4" y="0" flags="0x4"/>
      <component glyphName="circumflex" x="4" y="0" flags="0x4"/>
    </TTGlyph>
    <TTGlyph name="odieresis" xMin="98" yMin="-15" xMax="860" yMax="1899">
      <component glyphName="o" x="4" y="0" flags="0x4"/>
      <component glyphName="dieresis" x="5" y="0" flags="0x4"/>
    </TTGlyph>
    <TTGlyph name="oe" xMin="98" yMin="-15" xMax="1338" yMax="1386">
      <contour>
        <pt x="479" y="-15" on="1"/>
        <pt x="435" y="-15" on="0"/>
        <pt x="344" y="-1" on="0"/>
        <pt x="260" y="43" on="0"/>
        <pt x="185" y="124" on="0"/>
        <pt x="130" y="258" on="0"/>
        <pt x="98" y="453" on="0"/>
        <pt x="98" y="588" on="1"/>
        <pt x="98" y="803" on="1"/>
        <pt x="98" y="936" on="0"/>
        <pt x="131" y="1126" on="0"/>
        <pt x="187" y="1255" on="0"/>
        <pt x="263" y="1333" on="0"/>
        <pt x="347" y="1374" on="0"/>
        <pt x="437" y="1386" on="0"/>
        <pt x="480" y="1386" on="1"/>
        <pt x="510" y="1386" on="0"/>
        <pt x="577" y="1377" on="0"/>
        <pt x="643" y="1352" on="0"/>
        <pt x="706" y="1308" on="0"/>
        <pt x="733" y="1273" on="1"/>
        <pt x="741" y="1273" on="1"/>
        <pt x="772" y="1309" on="0"/>
        <pt x="841" y="1353" on="0"/>
        <pt x="908" y="1377" on="0"/>
        <pt x="973" y="1386" on="0"/>
        <pt x="1002" y="1386" on="1"/>
        <pt x="1070" y="1386" on="0"/>
        <pt x="1192" y="1345" on="0"/>
        <pt x="1284" y="1247" on="0"/>
        <pt x="1338" y="1082" on="0"/>
        <pt x="1338" y="958" on="1"/>
        <pt x="1338" y="875" on="0"/>
        <pt x="1320" y="704" on="0"/>
        <pt x="1305" y="638" on="1"/>
        <pt x="856" y="638" on="1"/>
        <pt x="856" y="499" on="1"/>
        <pt x="856" y="409" on="0"/>
        <pt x="870" y="285" on="0"/>
        <pt x="903" y="207" on="0"/>
        <pt x="960" y="172" on="0"/>
        <pt x="1003" y="172" on="1"/>
        <pt x="1026" y="172" on="0"/>
        <pt x="1070" y="191" on="0"/>
        <pt x="1105" y="234" on="0"/>
        <pt x="1126" y="307" on="0"/>
        <pt x="1126" y="361" on="1"/>
        <pt x="1126" y="411" on="1"/>
        <pt x="1331" y="411" on="1"/>
        <pt x="1331" y="358" on="1"/>
        <pt x="1331" y="164" on="0"/>
        <pt x="1161" y="-15" on="0"/>
        <pt x="980" y="-15" on="1"/>
        <pt x="905" y="-15" on="0"/>
        <pt x="777" y="47" on="0"/>
        <pt x="733" y="98" on="1"/>
        <pt x="725" y="98" on="1"/>
        <pt x="698" y="65" on="0"/>
        <pt x="637" y="21" on="0"/>
        <pt x="573" y="-4" on="0"/>
        <pt x="509" y="-15" on="0"/>
      </contour>
      <contour>
        <pt x="1104" y="807" on="1"/>
        <pt x="1105" y="818" on="0"/>
        <pt x="1107" y="856" on="0"/>
        <pt x="1108" y="899" on="0"/>
        <pt x="1108" y="939" on="0"/>
        <pt x="1108" y="953" on="1"/>
        <pt x="1108" y="1089" on="0"/>
        <pt x="1050" y="1207" on="0"/>
        <pt x="987" y="1208" on="1"/>
        <pt x="954" y="1208" on="0"/>
        <pt x="904" y="1177" on="0"/>
        <pt x="872" y="1104" on="0"/>
        <pt x="856" y="985" on="0"/>
        <pt x="856" y="897" on="1"/>
        <pt x="856" y="807" on="1"/>
      </contour>
      <contour>
        <pt x="481" y="172" on="1"/>
        <pt x="515" y="172" on="0"/>
        <pt x="561" y="207" on="0"/>
        <pt x="590" y="286" on="0"/>
        <pt x="602" y="417" on="0"/>
        <pt x="602" y="513" on="1"/>
        <pt x="602" y="864" on="1"/>
        <pt x="602" y="960" on="0"/>
        <pt x="590" y="1091" on="0"/>
        <pt x="561" y="1172" on="0"/>
        <pt x="515" y="1208" on="0"/>
        <pt x="481" y="1208" on="1"/>
        <pt x="445" y="1208" on="0"/>
        <pt x="396" y="1172" on="0"/>
        <pt x="366" y="1091" on="0"/>
        <pt x="352" y="960" on="0"/>
        <pt x="352" y="864" on="1"/>
        <pt x="352" y="513" on="1"/>
        <pt x="352" y="417" on="0"/>
        <pt x="366" y="286" on="0"/>
        <pt x="396" y="207" on="0"/>
        <pt x="445" y="172" on="0"/>
      </contour>
    </TTGlyph>
    <TTGlyph name="ograve" xMin="98" yMin="-15" xMax="860" yMax="1983">
      <component glyphName="o" x="4" y="0" flags="0x4"/>
      <component glyphName="grave" x="30" y="0" flags="0x4"/>
    </TTGlyph>
    <TTGlyph name="one" xMin="26" yMin="0" xMax="804" yMax="1708">
      <contour>
        <pt x="152" y="195" on="1"/>
        <pt x="350" y="195" on="1"/>
        <pt x="350" y="1360" on="1"/>
        <pt x="138" y="1173" on="1"/>
        <pt x="26" y="1304" on="1"/>
        <pt x="414" y="1708" on="1"/>
        <pt x="607" y="1708" on="1"/>
        <pt x="606" y="1706" on="1"/>
        <pt x="607" y="1707" on="1"/>
        <pt x="607" y="195" on="1"/>
        <pt x="804" y="195" on="1"/>
        <pt x="804" y="0" on="1"/>
        <pt x="152" y="0" on="1"/>
      </contour>
    </TTGlyph>
    <TTGlyph name="onehalf" xMin="107" yMin="0" xMax="1745" yMax="1726">
      <component glyphName="fraction" x="684" y="0" flags="0x4"/>
      <component glyphName="onesuperior" x="41" y="0" flags="0x4"/>
      <component glyphName="twosuperior" x="1007" y="-676" flags="0x4"/>
    </TTGlyph>
    <TTGlyph name="onequarter" xMin="107" yMin="0" xMax="1719" yMax="1726">
      <contour>
        <pt x="1002" y="281" on="1"/>
        <pt x="1375" y="1069" on="1"/>
        <pt x="1632" y="1069" on="1"/>
        <pt x="1632" y="339" on="1"/>
        <pt x="1719" y="339" on="1"/>
        <pt x="1719" y="185" on="1"/>
        <pt x="1632" y="185" on="1"/>
        <pt x="1632" y="1" on="1"/>
        <pt x="1410" y="1" on="1"/>
        <pt x="1410" y="185" on="1"/>
        <pt x="1002" y="185" on="1"/>
      </contour>
      <contour>
        <pt x="1410" y="339" on="1"/>
        <pt x="1410" y="376" on="1"/>
        <pt x="1436" y="796" on="1"/>
        <pt x="1424" y="796" on="1"/>
        <pt x="1223" y="339" on="1"/>
      </contour>
      <contour>
        <pt x="590" y="0" on="1"/>
        <pt x="1049" y="1709" on="1"/>
        <pt x="1231" y="1709" on="1"/>
        <pt x="772" y="0" on="1"/>
      </contour>
      <contour>
        <pt x="201" y="839" on="1"/>
        <pt x="328" y="839" on="1"/>
        <pt x="328" y="1450" on="1"/>
        <pt x="195" y="1338" on="1"/>
        <pt x="107" y="1470" on="1"/>
        <pt x="372" y="1726" on="1"/>
        <pt x="550" y="1726" on="1"/>
        <pt x="550" y="839" on="1"/>
        <pt x="684" y="839" on="1"/>
        <pt x="684" y="677" on="1"/>
        <pt x="201" y="677" on="1"/>
      </contour>
    </TTGlyph>
    <TTGlyph name="onesuperior" xMin="66" yMin="677" xMax="643" yMax="1726">
      <contour>
        <pt x="160" y="839" on="1"/>
        <pt x="287" y="839" on="1"/>
        <pt x="287" y="1450" on="1"/>
        <pt x="154" y="1338" on="1"/>
        <pt x="66" y="1470" on="1"/>
        <pt x="331" y="1726" on="1"/>
        <pt x="509" y="1726" on="1"/>
        <pt x="509" y="839" on="1"/>
        <pt x="643" y="839" on="1"/>
        <pt x="643" y="677" on="1"/>
        <pt x="160" y="677" on="1"/>
      </contour>
    </TTGlyph>
    <TTGlyph name="ordfeminine" xMin="69" yMin="649" xMax="727" yMax="1761">
      <contour>
        <pt x="309" y="649" on="1"/>
        <pt x="244" y="649" on="0"/>
        <pt x="153" y="693" on="0"/>
        <pt x="95" y="765" on="0"/>
        <pt x="69" y="857" on="0"/>
        <pt x="69" y="905" on="1"/>
        <pt x="69" y="988" on="0"/>
        <pt x="134" y="1111" on="0"/>
        <pt x="229" y="1199" on="0"/>
        <pt x="338" y="1258" on="0"/>
        <pt x="383" y="1276" on="1"/>
        <pt x="402" y="1284" on="0"/>
        <pt x="467" y="1311" on="0"/>
        <pt x="499" y="1320" on="1"/>
        <pt x="499" y="1479" on="1"/>
        <pt x="499" y="1533" on="0"/>
        <pt x="461" y="1597" on="0"/>
        <pt x="408" y="1597" on="1"/>
        <pt x="381" y="1597" on="0"/>
        <pt x="336" y="1581" on="0"/>
        <pt x="304" y="1543" on="0"/>
        <pt x="286" y="1483" on="0"/>
        <pt x="286" y="1438" on="1"/>
        <pt x="286" y="1392" on="1"/>
        <pt x="104" y="1392" on="1"/>
        <pt x="96" y="1430" on="0"/>
        <pt x="90" y="1485" on="0"/>
        <pt x="90" y="1514" on="1"/>
        <pt x="90" y="1560" on="0"/>
        <pt x="126" y="1648" on="0"/>
        <pt x="203" y="1718" on="0"/>
        <pt x="324" y="1761" on="0"/>
        <pt x="409" y="1761" on="1"/>
        <pt x="510" y="1761" on="0"/>
        <pt x="634" y="1711" on="0"/>
        <pt x="703" y="1629" on="0"/>
        <pt x="727" y="1526" on="0"/>
        <pt x="727" y="1472" on="1"/>
        <pt x="727" y="668" on="1"/>
        <pt x="555" y="668" on="1"/>
        <pt x="538" y="740" on="1"/>
        <pt x="520" y="722" on="0"/>
        <pt x="469" y="689" on="0"/>
        <pt x="408" y="664" on="0"/>
        <pt x="342" y="649" on="0"/>
      </contour>
      <contour>
        <pt x="400" y="814" on="1"/>
        <pt x="431" y="814" on="0"/>
        <pt x="480" y="836" on="0"/>
        <pt x="499" y="852" on="1"/>
        <pt x="499" y="1175" on="1"/>
        <pt x="482" y="1169" on="0"/>
        <pt x="458" y="1161" on="0"/>
        <pt x="433" y="1150" on="1"/>
        <pt x="410" y="1141" on="0"/>
        <pt x="358" y="1106" on="0"/>
        <pt x="315" y="1055" on="0"/>
        <pt x="287" y="989" on="0"/>
        <pt x="287" y="949" on="1"/>
        <pt x="287" y="889" on="0"/>
        <pt x="346" y="814" on="0"/>
      </contour>
    </TTGlyph>
    <TTGlyph name="ordmasculine" xMin="127" yMin="666" xMax="814" yMax="1761">
      <contour>
        <pt x="471" y="666" on="1"/>
        <pt x="435" y="666" on="0"/>
        <pt x="355" y="679" on="0"/>
        <pt x="279" y="712" on="0"/>
        <pt x="210" y="766" on="0"/>
        <pt x="158" y="849" on="0"/>
        <pt x="127" y="963" on="0"/>
        <pt x="127" y="1039" on="1"/>
        <pt x="127" y="1389" on="1"/>
        <pt x="127" y="1502" on="0"/>
        <pt x="193" y="1647" on="0"/>
        <pt x="295" y="1730" on="0"/>
        <pt x="416" y="1761" on="0"/>
        <pt x="471" y="1761" on="1"/>
        <pt x="507" y="1761" on="0"/>
        <pt x="586" y="1748" on="0"/>
        <pt x="662" y="1715" on="0"/>
        <pt x="731" y="1660" on="0"/>
        <pt x="783" y="1577" on="0"/>
        <pt x="814" y="1463" on="0"/>
        <pt x="814" y="1387" on="1"/>
        <pt x="814" y="1040" on="1"/>
        <pt x="814" y="964" on="0"/>
        <pt x="783" y="850" on="0"/>
        <pt x="731" y="767" on="0"/>
        <pt x="662" y="712" on="0"/>
        <pt x="586" y="679" on="0"/>
        <pt x="507" y="666" on="0"/>
      </contour>
      <contour>
        <pt x="471" y="830" on="1"/>
        <pt x="542" y="830" on="0"/>
        <pt x="593" y="934" on="0"/>
        <pt x="593" y="1039" on="1"/>
        <pt x="593" y="1387" on="1"/>
        <pt x="593" y="1493" on="0"/>
        <pt x="542" y="1597" on="0"/>
        <pt x="471" y="1597" on="1"/>
        <pt x="400" y="1597" on="0"/>
        <pt x="348" y="1494" on="0"/>
        <pt x="348" y="1389" on="1"/>
        <pt x="348" y="1040" on="1"/>
        <pt x="348" y="933" on="0"/>
        <pt x="400" y="830" on="0"/>
      </contour>
    </TTGlyph>
    <TTGlyph name="oslash" xMin="94" yMin="-171" xMax="857" yMax="1541">
      <contour>
        <pt x="217" y="-171" on="1"/>
        <pt x="100" y="-171" on="1"/>
        <pt x="740" y="1541" on="1"/>
        <pt x="857" y="1541" on="1"/>
      </contour>
      <contour>
        <pt x="477" y="-15" on="1"/>
        <pt x="433" y="-15" on="0"/>
        <pt x="342" y="-1" on="0"/>
        <pt x="257" y="43" on="0"/>
        <pt x="182" y="125" on="0"/>
        <pt x="126" y="259" on="0"/>
        <pt x="94" y="455" on="0"/>
        <pt x="94" y="591" on="1"/>
        <pt x="94" y="807" on="1"/>
        <pt x="94" y="941" on="0"/>
        <pt x="127" y="1132" on="0"/>
        <pt x="184" y="1262" on="0"/>
        <pt x="260" y="1339" on="0"/>
        <pt x="345" y="1380" on="0"/>
        <pt x="435" y="1393" on="0"/>
        <pt x="478" y="1393" on="1"/>
        <pt x="519" y="1393" on="0"/>
        <pt x="607" y="1381" on="0"/>
        <pt x="691" y="1342" on="0"/>
        <pt x="766" y="1265" on="0"/>
        <pt x="823" y="1135" on="0"/>
        <pt x="856" y="942" on="0"/>
        <pt x="856" y="807" on="1"/>
        <pt x="856" y="591" on="1"/>
        <pt x="856" y="457" on="0"/>
        <pt x="822" y="263" on="0"/>
        <pt x="764" y="129" on="0"/>
        <pt x="688" y="46" on="0"/>
        <pt x="604" y="0" on="0"/>
        <pt x="517" y="-15" on="0"/>
      </contour>
      <contour>
        <pt x="479" y="180" on="1"/>
        <pt x="513" y="180" on="0"/>
        <pt x="560" y="215" on="0"/>
        <pt x="589" y="295" on="0"/>
        <pt x="602" y="426" on="0"/>
        <pt x="602" y="523" on="1"/>
        <pt x="602" y="862" on="1"/>
        <pt x="602" y="959" on="0"/>
        <pt x="589" y="1091" on="0"/>
        <pt x="560" y="1172" on="0"/>
        <pt x="513" y="1208" on="0"/>
        <pt x="479" y="1208" on="1"/>
        <pt x="443" y="1208" on="0"/>
        <pt x="394" y="1172" on="0"/>
        <pt x="362" y="1091" on="0"/>
        <pt x="348" y="959" on="0"/>
        <pt x="348" y="862" on="1"/>
        <pt x="348" y="523" on="1"/>
        <pt x="348" y="426" on="0"/>
        <pt x="362" y="295" on="0"/>
        <pt x="394" y="215" on="0"/>
        <pt x="443" y="180" on="0"/>
      </contour>
    </TTGlyph>
    <TTGlyph name="otilde" xMin="98" yMin="-15" xMax="860" yMax="1943">
      <component glyphName="o" x="4" y="0" flags="0x4"/>
      <component glyphName="tilde" x="-8" y="51" flags="0x4"/>
    </TTGlyph>
    <TTGlyph name="p" xMin="130" yMin="-445" xMax="892" yMax="1392">
      <contour>
        <pt x="383" y="-78" on="1"/>
        <pt x="383" y="-445" on="1"/>
        <pt x="130" y="-445" on="1"/>
        <pt x="130" y="1377" on="1"/>
        <pt x="328" y="1377" on="1"/>
        <pt x="351" y="1232" on="1"/>
        <pt x="368" y="1260" on="0"/>
        <pt x="415" y="1318" on="0"/>
        <pt x="478" y="1363" on="0"/>
        <pt x="557" y="1392" on="0"/>
        <pt x="606" y="1392" on="1"/>
        <pt x="627" y="1392" on="0"/>
        <pt x="686" y="1384" on="0"/>
        <pt x="749" y="1352" on="0"/>
        <pt x="812" y="1289" on="0"/>
        <pt x="861" y="1179" on="0"/>
        <pt x="892" y="1015" on="0"/>
        <pt x="892" y="898" on="1"/>
        <pt x="892" y="481" on="1"/>
        <pt x="892" y="364" on="0"/>
        <pt x="861" y="200" on="0"/>
        <pt x="811" y="90" on="0"/>
        <pt x="747" y="26" on="0"/>
        <pt x="681" y="-6" on="0"/>
        <pt x="619" y="-15" on="0"/>
        <pt x="596" y="-15" on="1"/>
        <pt x="516" y="-15" on="0"/>
        <pt x="409" y="47" on="0"/>
        <pt x="375" y="91" on="1"/>
      </contour>
      <contour>
        <pt x="383" y="281" on="1"/>
        <pt x="391" y="261" on="0"/>
        <pt x="414" y="225" on="0"/>
        <pt x="445" y="197" on="0"/>
        <pt x="484" y="180" on="0"/>
        <pt x="510" y="180" on="1"/>
        <pt x="538" y="180" on="0"/>
        <pt x="584" y="201" on="0"/>
        <pt x="618" y="256" on="0"/>
        <pt x="637" y="354" on="0"/>
        <pt x="637" y="431" on="1"/>
        <pt x="637" y="958" on="1"/>
        <pt x="637" y="1035" on="0"/>
        <pt x="618" y="1132" on="0"/>
        <pt x="585" y="1188" on="0"/>
        <pt x="539" y="1208" on="0"/>
        <pt x="511" y="1208" on="1"/>
        <pt x="463" y="1208" on="0"/>
        <pt x="402" y="1151" on="0"/>
        <pt x="383" y="1113" on="1"/>
      </contour>
    </TTGlyph>
    <TTGlyph name="paragraph" xMin="99" yMin="0" xMax="941" yMax="1708">
      <contour>
        <pt x="683" y="1708" on="1"/>
        <pt x="941" y="1708" on="1"/>
        <pt x="941" y="0" on="1"/>
        <pt x="683" y="0" on="1"/>
      </contour>
      <contour>
        <pt x="481" y="520" on="1"/>
        <pt x="447" y="520" on="0"/>
        <pt x="364" y="529" on="0"/>
        <pt x="280" y="567" on="0"/>
        <pt x="199" y="642" on="0"/>
        <pt x="137" y="776" on="0"/>
        <pt x="99" y="976" on="0"/>
        <pt x="99" y="1119" on="1"/>
        <pt x="99" y="1179" on="1"/>
        <pt x="99" y="1305" on="0"/>
        <pt x="137" y="1481" on="0"/>
        <pt x="199" y="1598" on="0"/>
        <pt x="280" y="1666" on="0"/>
        <pt x="364" y="1699" on="0"/>
        <pt x="447" y="1708" on="0"/>
        <pt x="481" y="1708" on="1"/>
        <pt x="512" y="1708" on="1"/>
        <pt x="512" y="520" on="1"/>
      </contour>
    </TTGlyph>
    <TTGlyph name="parenleft" xMin="131" yMin="-257" xMax="654" yMax="1963">
      <contour>
        <pt x="654" y="-257" on="1"/>
        <pt x="618" y="-257" on="0"/>
        <pt x="535" y="-250" on="0"/>
        <pt x="448" y="-222" on="0"/>
        <pt x="361" y="-165" on="0"/>
        <pt x="280" y="-66" on="0"/>
        <pt x="211" y="82" on="0"/>
        <pt x="160" y="294" on="0"/>
        <pt x="131" y="576" on="0"/>
        <pt x="131" y="760" on="1"/>
        <pt x="131" y="957" on="1"/>
        <pt x="131" y="1137" on="0"/>
        <pt x="160" y="1415" on="0"/>
        <pt x="211" y="1625" on="0"/>
        <pt x="280" y="1772" on="0"/>
        <pt x="361" y="1870" on="0"/>
        <pt x="448" y="1927" on="0"/>
        <pt x="535" y="1955" on="0"/>
        <pt x="618" y="1963" on="0"/>
        <pt x="654" y="1963" on="1"/>
        <pt x="654" y="1790" on="1"/>
        <pt x="509" y="1790" on="0"/>
        <pt x="361" y="1393" on="0"/>
        <pt x="361" y="1003" on="1"/>
        <pt x="361" y="712" on="1"/>
        <pt x="361" y="506" on="0"/>
        <pt x="401" y="207" on="0"/>
        <pt x="476" y="11" on="0"/>
        <pt x="585" y="-83" on="0"/>
        <pt x="654" y="-83" on="1"/>
      </contour>
    </TTGlyph>
    <TTGlyph name="parenright" xMin="121" yMin="-257" xMax="644" yMax="1963">
      <contour>
        <pt x="121" y="-83" on="1"/>
        <pt x="190" y="-83" on="0"/>
        <pt x="300" y="11" on="0"/>
        <pt x="375" y="207" on="0"/>
        <pt x="415" y="506" on="0"/>
        <pt x="415" y="712" on="1"/>
        <pt x="415" y="1003" on="1"/>
        <pt x="415" y="1391" on="0"/>
        <pt x="266" y="1790" on="0"/>
        <pt x="121" y="1790" on="1"/>
        <pt x="121" y="1963" on="1"/>
        <pt x="157" y="1963" on="0"/>
        <pt x="241" y="1955" on="0"/>
        <pt x="328" y="1927" on="0"/>
        <pt x="415" y="1870" on="0"/>
        <pt x="495" y="1772" on="0"/>
        <pt x="564" y="1625" on="0"/>
        <pt x="615" y="1415" on="0"/>
        <pt x="644" y="1137" on="0"/>
        <pt x="644" y="957" on="1"/>
        <pt x="644" y="760" on="1"/>
        <pt x="644" y="576" on="0"/>
        <pt x="615" y="294" on="0"/>
        <pt x="564" y="82" on="0"/>
        <pt x="495" y="-66" on="0"/>
        <pt x="415" y="-165" on="0"/>
        <pt x="328" y="-222" on="0"/>
        <pt x="241" y="-250" on="0"/>
        <pt x="157" y="-257" on="0"/>
        <pt x="121" y="-257" on="1"/>
        <pt x="121" y="-83" on="1"/>
      </contour>
    </TTGlyph>
    <TTGlyph name="percent" xMin="156" yMin="-15" xMax="1729" yMax="1748">
      <contour>
        <pt x="479" y="786" on="1"/>
        <pt x="422" y="786" on="0"/>
        <pt x="307" y="818" on="0"/>
        <pt x="214" y="911" on="0"/>
        <pt x="156" y="1082" on="0"/>
        <pt x="156" y="1221" on="1"/>
        <pt x="156" y="1328" on="1"/>
        <pt x="156" y="1419" on="0"/>
        <pt x="184" y="1552" on="0"/>
        <pt x="233" y="1646" on="0"/>
        <pt x="297" y="1704" on="0"/>
        <pt x="369" y="1736" on="0"/>
        <pt x="444" y="1748" on="0"/>
        <pt x="480" y="1748" on="1"/>
        <pt x="514" y="1748" on="0"/>
        <pt x="588" y="1737" on="0"/>
        <pt x="659" y="1705" on="0"/>
        <pt x="723" y="1648" on="0"/>
        <pt x="771" y="1554" on="0"/>
        <pt x="799" y="1420" on="0"/>
        <pt x="799" y="1328" on="1"/>
        <pt x="799" y="1221" on="1"/>
        <pt x="799" y="1084" on="0"/>
        <pt x="737" y="913" on="0"/>
        <pt x="642" y="819" on="0"/>
        <pt x="529" y="786" on="0"/>
      </contour>
      <contour>
        <pt x="1085" y="1727" on="1"/>
        <pt x="1266" y="1727" on="1"/>
        <pt x="807" y="0" on="1"/>
        <pt x="625" y="0" on="1"/>
      </contour>
      <contour>
        <pt x="481" y="945" on="1"/>
        <pt x="544" y="945" on="0"/>
        <pt x="594" y="1054" on="0"/>
        <pt x="594" y="1169" on="1"/>
        <pt x="594" y="1363" on="1"/>
        <pt x="594" y="1479" on="0"/>
        <pt x="544" y="1589" on="0"/>
        <pt x="481" y="1589" on="1"/>
        <pt x="415" y="1589" on="0"/>
        <pt x="362" y="1479" on="0"/>
        <pt x="362" y="1363" on="1"/>
        <pt x="362" y="1169" on="1"/>
        <pt x="362" y="1054" on="0"/>
        <pt x="415" y="945" on="0"/>
      </contour>
      <contour>
        <pt x="1087" y="527" on="1"/>
        <pt x="1087" y="664" on="0"/>
        <pt x="1148" y="829" on="0"/>
        <pt x="1243" y="918" on="0"/>
        <pt x="1357" y="947" on="0"/>
        <pt x="1410" y="947" on="1"/>
        <pt x="1444" y="947" on="0"/>
        <pt x="1518" y="936" on="0"/>
        <pt x="1589" y="904" on="0"/>
        <pt x="1653" y="847" on="0"/>
        <pt x="1701" y="753" on="0"/>
        <pt x="1729" y="619" on="0"/>
        <pt x="1729" y="527" on="1"/>
        <pt x="1729" y="420" on="1"/>
        <pt x="1729" y="328" on="0"/>
        <pt x="1700" y="192" on="0"/>
        <pt x="1651" y="96" on="0"/>
        <pt x="1587" y="34" on="0"/>
        <pt x="1516" y="-2" on="0"/>
        <pt x="1442" y="-15" on="0"/>
        <pt x="1409" y="-15" on="1"/>
        <pt x="1371" y="-15" on="0"/>
        <pt x="1294" y="-2" on="0"/>
        <pt x="1223" y="32" on="0"/>
        <pt x="1160" y="94" on="0"/>
        <pt x="1114" y="190" on="0"/>
        <pt x="1087" y="327" on="0"/>
        <pt x="1087" y="420" on="1"/>
      </contour>
      <contour>
        <pt x="1292" y="368" on="1"/>
        <pt x="1292" y="253" on="0"/>
        <pt x="1345" y="144" on="0"/>
        <pt x="1411" y="144" on="1"/>
        <pt x="1474" y="144" on="0"/>
        <pt x="1524" y="253" on="0"/>
        <pt x="1524" y="368" on="1"/>
        <pt x="1524" y="562" on="1"/>
        <pt x="1524" y="678" on="0"/>
        <pt x="1474" y="788" on="0"/>
        <pt x="1411" y="788" on="1"/>
        <pt x="1345" y="788" on="0"/>
        <pt x="1292" y="678" on="0"/>
        <pt x="1292" y="562" on="1"/>
      </contour>
    </TTGlyph>
    <TTGlyph name="period" xMin="91" yMin="-14" xMax="404" yMax="377">
      <contour>
        <pt x="91" y="179" on="1"/>
        <pt x="91" y="285" on="0"/>
        <pt x="175" y="377" on="0"/>
        <pt x="247" y="377" on="1"/>
        <pt x="322" y="377" on="0"/>
        <pt x="404" y="279" on="0"/>
        <pt x="404" y="179" on="1"/>
        <pt x="404" y="87" on="0"/>
        <pt x="321" y="-14" on="0"/>
        <pt x="246" y="-14" on="1"/>
        <pt x="175" y="-14" on="0"/>
        <pt x="91" y="84" on="0"/>
      </contour>
    </TTGlyph>
    <TTGlyph name="periodcentered" xMin="121" yMin="600" xMax="434" yMax="991">
      <component glyphName="period" x="30" y="614" flags="0x4"/>
    </TTGlyph>
    <TTGlyph name="perthousand" xMin="156" yMin="-15" xMax="2519" yMax="1748">
      <contour>
        <pt x="1877" y="527" on="1"/>
        <pt x="1877" y="664" on="0"/>
        <pt x="1938" y="829" on="0"/>
        <pt x="2033" y="918" on="0"/>
        <pt x="2147" y="947" on="0"/>
        <pt x="2200" y="947" on="1"/>
        <pt x="2234" y="947" on="0"/>
        <pt x="2308" y="936" on="0"/>
        <pt x="2379" y="904" on="0"/>
        <pt x="2443" y="847" on="0"/>
        <pt x="2491" y="753" on="0"/>
        <pt x="2519" y="619" on="0"/>
        <pt x="2519" y="527" on="1"/>
        <pt x="2519" y="420" on="1"/>
        <pt x="2519" y="328" on="0"/>
        <pt x="2490" y="192" on="0"/>
        <pt x="2441" y="96" on="0"/>
        <pt x="2377" y="34" on="0"/>
        <pt x="2306" y="-2" on="0"/>
        <pt x="2232" y="-15" on="0"/>
        <pt x="2199" y="-15" on="1"/>
        <pt x="2161" y="-15" on="0"/>
        <pt x="2084" y="-2" on="0"/>
        <pt x="2013" y="32" on="0"/>
        <pt x="1950" y="94" on="0"/>
        <pt x="1904" y="190" on="0"/>
        <pt x="1877" y="327" on="0"/>
        <pt x="1877" y="420" on="1"/>
      </contour>
      <contour>
        <pt x="2082" y="368" on="1"/>
        <pt x="2082" y="253" on="0"/>
        <pt x="2135" y="144" on="0"/>
        <pt x="2201" y="144" on="1"/>
        <pt x="2264" y="144" on="0"/>
        <pt x="2314" y="253" on="0"/>
        <pt x="2314" y="368" on="1"/>
        <pt x="2314" y="562" on="1"/>
        <pt x="2314" y="678" on="0"/>
        <pt x="2264" y="788" on="0"/>
        <pt x="2201" y="788" on="1"/>
        <pt x="2135" y="788" on="0"/>
        <pt x="2082" y="678" on="0"/>
        <pt x="2082" y="562" on="1"/>
      </contour>
      <contour>
        <pt x="479" y="786" on="1"/>
        <pt x="422" y="786" on="0"/>
        <pt x="307" y="818" on="0"/>
        <pt x="214" y="911" on="0"/>
        <pt x="156" y="1082" on="0"/>
        <pt x="156" y="1221" on="1"/>
        <pt x="156" y="1328" on="1"/>
        <pt x="156" y="1419" on="0"/>
        <pt x="184" y="1552" on="0"/>
        <pt x="233" y="1646" on="0"/>
        <pt x="297" y="1704" on="0"/>
        <pt x="369" y="1736" on="0"/>
        <pt x="444" y="1748" on="0"/>
        <pt x="480" y="1748" on="1"/>
        <pt x="514" y="1748" on="0"/>
        <pt x="588" y="1737" on="0"/>
        <pt x="659" y="1705" on="0"/>
        <pt x="723" y="1648" on="0"/>
        <pt x="771" y="1554" on="0"/>
        <pt x="799" y="1420" on="0"/>
        <pt x="799" y="1328" on="1"/>
        <pt x="799" y="1221" on="1"/>
        <pt x="799" y="1084" on="0"/>
        <pt x="737" y="913" on="0"/>
        <pt x="642" y="819" on="0"/>
        <pt x="529" y="786" on="0"/>
      </contour>
      <contour>
        <pt x="1085" y="1727" on="1"/>
        <pt x="1266" y="1727" on="1"/>
        <pt x="807" y="0" on="1"/>
        <pt x="625" y="0" on="1"/>
      </contour>
      <contour>
        <pt x="481" y="945" on="1"/>
        <pt x="544" y="945" on="0"/>
        <pt x="594" y="1054" on="0"/>
        <pt x="594" y="1169" on="1"/>
        <pt x="594" y="1363" on="1"/>
        <pt x="594" y="1479" on="0"/>
        <pt x="544" y="1589" on="0"/>
        <pt x="481" y="1589" on="1"/>
        <pt x="415" y="1589" on="0"/>
        <pt x="362" y="1479" on="0"/>
        <pt x="362" y="1363" on="1"/>
        <pt x="362" y="1169" on="1"/>
        <pt x="362" y="1054" on="0"/>
        <pt x="415" y="945" on="0"/>
      </contour>
      <contour>
        <pt x="1087" y="527" on="1"/>
        <pt x="1087" y="664" on="0"/>
        <pt x="1148" y="829" on="0"/>
        <pt x="1243" y="918" on="0"/>
        <pt x="1357" y="947" on="0"/>
        <pt x="1410" y="947" on="1"/>
        <pt x="1444" y="947" on="0"/>
        <pt x="1518" y="936" on="0"/>
        <pt x="1589" y="904" on="0"/>
        <pt x="1653" y="847" on="0"/>
        <pt x="1701" y="753" on="0"/>
        <pt x="1729" y="619" on="0"/>
        <pt x="1729" y="527" on="1"/>
        <pt x="1729" y="420" on="1"/>
        <pt x="1729" y="328" on="0"/>
        <pt x="1700" y="192" on="0"/>
        <pt x="1651" y="96" on="0"/>
        <pt x="1587" y="34" on="0"/>
        <pt x="1516" y="-2" on="0"/>
        <pt x="1442" y="-15" on="0"/>
        <pt x="1409" y="-15" on="1"/>
        <pt x="1371" y="-15" on="0"/>
        <pt x="1294" y="-2" on="0"/>
        <pt x="1223" y="32" on="0"/>
        <pt x="1160" y="94" on="0"/>
        <pt x="1114" y="190" on="0"/>
        <pt x="1087" y="327" on="0"/>
        <pt x="1087" y="420" on="1"/>
      </contour>
      <contour>
        <pt x="1292" y="368" on="1"/>
        <pt x="1292" y="253" on="0"/>
        <pt x="1345" y="144" on="0"/>
        <pt x="1411" y="144" on="1"/>
        <pt x="1474" y="144" on="0"/>
        <pt x="1524" y="253" on="0"/>
        <pt x="1524" y="368" on="1"/>
        <pt x="1524" y="562" on="1"/>
        <pt x="1524" y="678" on="0"/>
        <pt x="1474" y="788" on="0"/>
        <pt x="1411" y="788" on="1"/>
        <pt x="1345" y="788" on="0"/>
        <pt x="1292" y="678" on="0"/>
        <pt x="1292" y="562" on="1"/>
      </contour>
    </TTGlyph>
    <TTGlyph name="plus" xMin="45" yMin="368" xMax="790" yMax="1200">
      <contour>
        <pt x="317" y="691" on="1"/>
        <pt x="45" y="691" on="1"/>
        <pt x="45" y="887" on="1"/>
        <pt x="317" y="887" on="1"/>
        <pt x="317" y="1200" on="1"/>
        <pt x="516" y="1200" on="1"/>
        <pt x="516" y="887" on="1"/>
        <pt x="790" y="887" on="1"/>
        <pt x="790" y="691" on="1"/>
        <pt x="516" y="691" on="1"/>
        <pt x="516" y="368" on="1"/>
        <pt x="317" y="368" on="1"/>
      </contour>
    </TTGlyph>
    <TTGlyph name="plusminus" xMin="86" yMin="169" xMax="830" yMax="1369">
      <contour>
        <pt x="357" y="860" on="1"/>
        <pt x="86" y="860" on="1"/>
        <pt x="86" y="1055" on="1"/>
        <pt x="357" y="1055" on="1"/>
        <pt x="357" y="1369" on="1"/>
        <pt x="556" y="1369" on="1"/>
        <pt x="556" y="1055" on="1"/>
        <pt x="830" y="1055" on="1"/>
        <pt x="830" y="860" on="1"/>
        <pt x="556" y="860" on="1"/>
        <pt x="556" y="537" on="1"/>
        <pt x="357" y="537" on="1"/>
      </contour>
      <contour>
        <pt x="86" y="364" on="1"/>
        <pt x="830" y="364" on="1"/>
        <pt x="830" y="169" on="1"/>
        <pt x="86" y="169" on="1"/>
      </contour>
    </TTGlyph>
    <TTGlyph name="q" xMin="98" yMin="-446" xMax="858" yMax="1392">
      <contour>
        <pt x="394" y="-15" on="1"/>
        <pt x="371" y="-15" on="0"/>
        <pt x="309" y="-6" on="0"/>
        <pt x="243" y="26" on="0"/>
        <pt x="179" y="90" on="0"/>
        <pt x="129" y="200" on="0"/>
        <pt x="98" y="364" on="0"/>
        <pt x="98" y="481" on="1"/>
        <pt x="98" y="898" on="1"/>
        <pt x="98" y="1015" on="0"/>
        <pt x="129" y="1179" on="0"/>
        <pt x="178" y="1289" on="0"/>
        <pt x="241" y="1352" on="0"/>
        <pt x="304" y="1384" on="0"/>
        <pt x="363" y="1392" on="0"/>
        <pt x="384" y="1392" on="1"/>
        <pt x="433" y="1392" on="0"/>
        <pt x="511" y="1364" on="0"/>
        <pt x="573" y="1319" on="0"/>
        <pt x="620" y="1262" on="0"/>
        <pt x="637" y="1234" on="1"/>
        <pt x="661" y="1377" on="1"/>
        <pt x="858" y="1377" on="1"/>
        <pt x="858" y="-446" on="1"/>
        <pt x="606" y="-446" on="1"/>
        <pt x="606" y="-79" on="1"/>
        <pt x="613" y="89" on="1"/>
        <pt x="579" y="46" on="0"/>
        <pt x="473" y="-15" on="0"/>
      </contour>
      <contour>
        <pt x="480" y="180" on="1"/>
        <pt x="505" y="180" on="0"/>
        <pt x="544" y="197" on="0"/>
        <pt x="575" y="224" on="0"/>
        <pt x="598" y="260" on="0"/>
        <pt x="606" y="279" on="1"/>
        <pt x="606" y="1107" on="1"/>
        <pt x="587" y="1149" on="0"/>
        <pt x="524" y="1208" on="0"/>
        <pt x="479" y="1208" on="1"/>
        <pt x="451" y="1208" on="0"/>
        <pt x="405" y="1187" on="0"/>
        <pt x="371" y="1132" on="0"/>
        <pt x="352" y="1034" on="0"/>
        <pt x="352" y="957" on="1"/>
        <pt x="352" y="431" on="1"/>
        <pt x="352" y="354" on="0"/>
        <pt x="371" y="256" on="0"/>
        <pt x="405" y="201" on="0"/>
        <pt x="452" y="180" on="0"/>
      </contour>
    </TTGlyph>
    <TTGlyph name="question" xMin="112" yMin="-14" xMax="923" yMax="1827">
      <contour>
        <pt x="392" y="760" on="1"/>
        <pt x="392" y="800" on="0"/>
        <pt x="396" y="859" on="0"/>
        <pt x="409" y="913" on="0"/>
        <pt x="435" y="968" on="0"/>
        <pt x="457" y="1003" on="1"/>
        <pt x="575" y="1189" on="1"/>
        <pt x="613" y="1251" on="0"/>
        <pt x="657" y="1383" on="0"/>
        <pt x="657" y="1439" on="1"/>
        <pt x="657" y="1480" on="0"/>
        <pt x="635" y="1548" on="0"/>
        <pt x="595" y="1596" on="0"/>
        <pt x="536" y="1623" on="0"/>
        <pt x="500" y="1623" on="1"/>
        <pt x="419" y="1623" on="0"/>
        <pt x="343" y="1479" on="0"/>
        <pt x="343" y="1343" on="1"/>
        <pt x="343" y="1261" on="1"/>
        <pt x="139" y="1261" on="1"/>
        <pt x="128" y="1317" on="0"/>
        <pt x="112" y="1410" on="0"/>
        <pt x="112" y="1465" on="1"/>
        <pt x="112" y="1541" on="0"/>
        <pt x="158" y="1673" on="0"/>
        <pt x="256" y="1771" on="0"/>
        <pt x="406" y="1827" on="0"/>
        <pt x="510" y="1827" on="1"/>
        <pt x="613" y="1827" on="0"/>
        <pt x="768" y="1772" on="0"/>
        <pt x="872" y="1670" on="0"/>
        <pt x="923" y="1527" on="0"/>
        <pt x="923" y="1439" on="1"/>
        <pt x="923" y="1389" on="0"/>
        <pt x="905" y="1298" on="0"/>
        <pt x="867" y="1207" on="0"/>
        <pt x="811" y="1112" on="0"/>
        <pt x="772" y="1060" on="1"/>
        <pt x="692" y="952" on="1"/>
        <pt x="663" y="913" on="0"/>
        <pt x="631" y="857" on="0"/>
        <pt x="616" y="803" on="0"/>
        <pt x="612" y="743" on="0"/>
        <pt x="612" y="701" on="1"/>
        <pt x="612" y="557" on="1"/>
        <pt x="391" y="557" on="1"/>
      </contour>
      <contour>
        <pt x="360" y="177" on="1"/>
        <pt x="360" y="282" on="0"/>
        <pt x="444" y="373" on="0"/>
        <pt x="516" y="373" on="1"/>
        <pt x="591" y="373" on="0"/>
        <pt x="673" y="277" on="0"/>
        <pt x="673" y="177" on="1"/>
        <pt x="673" y="86" on="0"/>
        <pt x="590" y="-14" on="0"/>
        <pt x="515" y="-14" on="1"/>
        <pt x="444" y="-14" on="0"/>
        <pt x="360" y="83" on="0"/>
      </contour>
    </TTGlyph>
    <TTGlyph name="questiondown" xMin="93" yMin="-438" xMax="904" yMax="1403">
      <component glyphName="question" x="1016" y="1389" scale="-0.999938964844" flags="0x4"/>
    </TTGlyph>
    <TTGlyph name="quotedbl" xMin="206" yMin="1180" xMax="917" yMax="1876">
      <component glyphName="quotesingle" x="0" y="0" flags="0x4"/>
      <component glyphName="quotesingle" x="462" y="0" flags="0x4"/>
    </TTGlyph>
    <TTGlyph name="quotedblbase" xMin="101" yMin="-458" xMax="920" yMax="238">
      <component glyphName="quoteleft" x="610" y="1418" scale="-0.999938964844" flags="0x4"/>
      <component glyphName="quoteleft" x="1082" y="1418" scale="-0.999938964844" flags="0x4"/>
    </TTGlyph>
    <TTGlyph name="quotedblleft" xMin="162" yMin="1180" xMax="981" yMax="1876">
      <component glyphName="quoteleft" x="0" y="0" flags="0x4"/>
      <component glyphName="quoteleft" x="472" y="0" flags="0x4"/>
    </TTGlyph>
    <TTGlyph name="quotedblright" xMin="101" yMin="1182" xMax="916" yMax="1878">
      <component glyphName="quoteleft" x="610" y="3058" scale="-0.999938964844" flags="0x4"/>
      <component glyphName="quoteleft" x="1078" y="3058" scale="-0.999938964844" flags="0x4"/>
    </TTGlyph>
    <TTGlyph name="quoteleft" xMin="162" yMin="1180" xMax="509" yMax="1876">
      <contour>
        <pt x="162" y="1404" on="1"/>
        <pt x="312" y="1876" on="1"/>
        <pt x="509" y="1876" on="1"/>
        <pt x="430" y="1479" on="1"/>
        <pt x="430" y="1180" on="1"/>
        <pt x="162" y="1180" on="1"/>
      </contour>
    </TTGlyph>
    <TTGlyph name="quoteright" xMin="101" yMin="1180" xMax="448" yMax="1876">
      <component glyphName="quoteleft" x="610" y="3056" scale="-0.999938964844" flags="0x4"/>
    </TTGlyph>
    <TTGlyph name="quotesinglbase" xMin="101" yMin="-458" xMax="448" yMax="238">
      <component glyphName="quoteleft" x="610" y="1418" scale="-0.999938964844" flags="0x4"/>
    </TTGlyph>
    <TTGlyph name="quotesingle" xMin="206" yMin="1180" xMax="455" yMax="1876">
      <contour>
        <pt x="206" y="1876" on="1"/>
        <pt x="455" y="1876" on="1"/>
        <pt x="434" y="1180" on="1"/>
        <pt x="231" y="1180" on="1"/>
      </contour>
    </TTGlyph>
</ttFont>
